<svg xmlns="http://www.w3.org/2000/svg" viewBox="0 0 427.97 248.98"><defs><style>.cls-1{fill:#fff;}</style></defs><g id="Layer_2" data-name="Layer 2"><g id="Layer_1-2" data-name="Layer 1"><path class="cls-1" d="M352.83,135.48h15.66c.83,2.59,1.5,5.2,2.52,7.67a24,24,0,0,0,8.36,11,18,18,0,0,0,8.44,2.88c10.35,1.12,20.75.6,31.13.63a8.22,8.22,0,0,1,8.09,5.29c1.62,4.3-1.09,9.45-5.61,10.26a35.12,35.12,0,0,1-6.16.42c-7.33,0-14.66,0-22-.21-6.43-.2-12.78-1-18.7-3.8a31.82,31.82,0,0,1-9.16-6.56,46.24,46.24,0,0,1-11.84-22.39c-.37-1.6-.55-3.24-.81-4.86A1.16,1.16,0,0,1,352.83,135.48Z"/><path class="cls-1" d="M245.38,135.49c.42,0,.65-.05.88-.05,4.8,0,9.6,0,14.4,0,.71,0,.92.22,1.07.92,1.34,6.29,4,11.88,8.86,16.25a15.43,15.43,0,0,0,8.68,3.81c3.81.44,7.66.73,11.5.8,7,.13,14,0,21,.05a8.31,8.31,0,0,1,6.68,3,7.76,7.76,0,0,1-4.27,12.57,28.72,28.72,0,0,1-6.16.43c-7.33,0-14.67,0-22-.22-6.39-.19-12.7-1-18.61-3.75a33,33,0,0,1-11.33-8.89,45.35,45.35,0,0,1-9.21-18C246.29,140.13,245.89,137.87,245.38,135.49Z"/><path class="cls-1" d="M245.83,122.23c1-3.15,1.77-6.19,2.94-9.07A49.63,49.63,0,0,1,260,96.08a37.75,37.75,0,0,1,17.58-9.65A41.07,41.07,0,0,1,288,85.22c8.43.09,16.87.13,25.3.21a8.11,8.11,0,0,1,7.31,6.21,7.87,7.87,0,0,1-6.9,9.41,20.62,20.62,0,0,1-2.07.17q-11.65-.06-23.3-.15a24.41,24.41,0,0,0-15.19,4.58,26.48,26.48,0,0,0-7.57,9.24c-1.12,2.15-2,4.44-3,6.66-.13.28-.49.65-.75.65C256.61,122.24,251.41,122.23,245.83,122.23Z"/><path class="cls-1" d="M353.37,122.23a53,53,0,0,1,10.35-21.89,37.43,37.43,0,0,1,19.16-13,38.81,38.81,0,0,1,11.22-1.73q13.15.08,26.31.2a8,8,0,0,1,7.41,6.32,7.85,7.85,0,0,1-6.82,9.29,24.85,24.85,0,0,1-2.58.18q-11.44-.06-22.9-.15a24.33,24.33,0,0,0-15.19,4.6,26.58,26.58,0,0,0-7.53,9.15c-1.09,2.06-1.89,4.27-2.87,6.39a1.12,1.12,0,0,1-.81.6C363.92,122.24,358.71,122.23,353.37,122.23Z"/><path class="cls-1" d="M228.27,122.23c-5.62,0-11.15,0-16.68,0-.25,0-.61-.34-.73-.6-.93-2.1-1.83-4.22-2.83-6.56-.9,2.15-1.77,4.06-2.5,6a1.49,1.49,0,0,1-1.69,1.17c-5.27-.05-10.54,0-16,0l2.34-5.68c3.28-7.94,6.58-15.88,9.83-23.83,1-2.56,2.54-4.64,5.23-5.62a7.84,7.84,0,0,1,9.77,4.08c1.36,2.74,2.47,5.61,3.67,8.43q4.59,10.81,9.17,21.65C228,121.56,228.13,121.86,228.27,122.23Z"/><path class="cls-1" d="M216.7,135.44c5.61,0,11.11,0,16.61,0a1,1,0,0,1,.78.51q5.7,13.36,11.31,26.75a7.89,7.89,0,0,1-5.12,10.81,7.68,7.68,0,0,1-9-3.9c-1.39-2.72-2.51-5.58-3.71-8.4q-5.28-12.47-10.53-24.93C217,136.06,216.85,135.82,216.7,135.44Z"/><path class="cls-1" d="M199.53,135.52c-.7,1.76-1.37,3.47-2.07,5.16-3.8,9.19-7.58,18.39-11.43,27.56a7.93,7.93,0,0,1-15.19-.78,10.43,10.43,0,0,1,.89-6.16q5.16-12.56,10.38-25.1a1.32,1.32,0,0,1,.95-.73c5.33-.05,10.67,0,16,0A3,3,0,0,1,199.53,135.52Z"/><path class="cls-1" d="M328.34,135.48h15.81v1.06c-.07,9.86-.07,19.73-.24,29.59a7.31,7.31,0,0,1-4.83,6.9,7.46,7.46,0,0,1-8.29-1.44,7.85,7.85,0,0,1-2.63-6.19c0-9.73.11-19.46.18-29.2Z"/><path class="cls-1" d="M336.21,86.4c4.09-.16,7.89,3.6,7.81,8a8,8,0,0,1-8.19,7.79,7.91,7.91,0,0,1,.38-15.81Z"/><path class="cls-1" d="M344.29,122.19H328.36c0-2.65-.24-5.27,1-7.72a7.85,7.85,0,0,1,7.62-4.21,7.67,7.67,0,0,1,6.91,6A47.18,47.18,0,0,1,344.29,122.19Z"/><path class="cls-1" d="M142.72,240.28c9.84,3.16,18.61,4.69,19.75,3.36-3.21-.41-6.4-.63-9.52-1.25s-6.07-1.59-9.11-2.41l0-.26c1.37-.69,2.73-1.43,4.14-2.08a7.58,7.58,0,0,1,6.59.1c2.51,1.18,4.94,2.53,7.44,3.71a17.28,17.28,0,0,0,9.17,1.78,7.11,7.11,0,0,1-.69.45c-3,1.55-5.95,3.23-9.33,3.85-4.06.74-8.13,1.13-12.17-.09a6.48,6.48,0,0,1-4.22-3.47C144.21,242.72,143.45,241.55,142.72,240.28Z"/><path class="cls-1" d="M86.07,155.6c.7.78,1.31,1.48,2,2.28.65-4.07,2.52-6.88,6.41-8.08a1.21,1.21,0,0,0,.52-.87,6.34,6.34,0,0,1,1.2-3.6c.56-.65,1.16-1.26,1.8-1.94a12.07,12.07,0,0,0-1.23-.15,5.84,5.84,0,0,1-5.56-4.15,10.29,10.29,0,0,1,.1-5.77c.54-2.4,1.14-4.78,1.7-7.17a2.18,2.18,0,0,0,0-.67c-.18.18-.45.34-.52.56-.19.6-.3,1.22-.44,1.83l-1.77,7.54c-2.36.1-2.37,0-2.45-2.37a49.23,49.23,0,0,1,1-9.84,6.41,6.41,0,0,1,.27-.91l.83-.14c.11-1.66,1-3.23.1-4.86a1.83,1.83,0,0,1,.12-1.26c.33-.92.75-1.82,1.13-2.72.1-.24.33-.51.28-.72a5.21,5.21,0,0,1,1.08-3.89,9.65,9.65,0,0,0,1.57-3.18c.35-1.72,1.68-2.88,2.92-4a7.86,7.86,0,0,0,.87-1c.8-1,1.53-2.13,2.38-3.12.56-.64,1.46-1,1.88-1.73a12.38,12.38,0,0,1,4.26-4.07,2.39,2.39,0,0,0,.72-.62A10.47,10.47,0,0,1,112.44,87a2.5,2.5,0,0,0,1-.59,9.17,9.17,0,0,1,4.78-2.62,11.33,11.33,0,0,0,1.7-.71,33.28,33.28,0,0,1,3.18-1.25c1.15-.34,2.43-.18,3.47-1a3.31,3.31,0,0,1,1.11-.38c2.08-.51,3.44.24,3.8,1.77-.9,1.21-1.6,2.26-2.42,3.22-.33.38-1,.82-1.38.73-.71-.17-.42-.88-.17-1.33.44-.82,1-1.6,1.46-2.4a3.37,3.37,0,0,0-3.41.9A10.07,10.07,0,0,0,124.06,86c-.26.6-.94,1.36-1.4,1.19-.73-.26-.62-.85-.42-1.41s.54-1.4.83-2.13a1.94,1.94,0,0,0-.48,0c-2,.43-3.89,1.86-3.76,4.49,0,.72-.66,1.51-1.22,1.41-.76-.14-.85-.79-.76-1.4.11-.76.33-1.5.53-2.35a8.67,8.67,0,0,0-1,.27,3.93,3.93,0,0,0-2.6,4.43,1.25,1.25,0,0,1-1.11,1.42c-.75.17-1-.5-1-1a10.08,10.08,0,0,1,.1-1.92c-.71.44-1.32.76-1.88,1.17a3.09,3.09,0,0,0-1,4,1.66,1.66,0,0,1-.38,1.35.81.81,0,0,1-1.37,0,17.7,17.7,0,0,1-1-2,14.93,14.93,0,0,0-1.88,2.15,1.89,1.89,0,0,0,.71,3c.64.32.41.83.11,1.25a1.37,1.37,0,0,1-2.1.2,12,12,0,0,1-1.34-1.73,3.44,3.44,0,0,0-1.64,2.13,1.79,1.79,0,0,0,.87,2.34c.73.4.66.79.19,1.33a1.4,1.4,0,0,1-2,.27c-.52-.31-1-.71-1.57-1.12a13.6,13.6,0,0,0-1.28,2.08,1.82,1.82,0,0,0,1.56,2.52c.28,0,.72.25.75.44a1.09,1.09,0,0,1-.3.95,2.86,2.86,0,0,1-1.63.48,9.41,9.41,0,0,1-2-.84,13.4,13.4,0,0,0-.71,1.36A1.9,1.9,0,0,0,95.8,113c.37,0,.74,0,1.1,0,.71,0,1,.55.51,1a3,3,0,0,1-1.75.89,15.72,15.72,0,0,1-3-.34c-.09.26-.24.62-.35,1a1.87,1.87,0,0,0,1.74,2.58c.52,0,1.05-.16,1.56-.14s.89.11,1,.35a1.07,1.07,0,0,1-.24,1,4.07,4.07,0,0,1-1.67.75,13.52,13.52,0,0,1-2.3,0,2.69,2.69,0,0,0,.22,2.58,2.81,2.81,0,0,0,3.41.57,27,27,0,0,0,2.61-1.93l.24.78c1.75,0,3.48,0,5.21,0,.25,0,.57-.35.7-.61.88-1.84,1.62-3.75,2.59-5.55a27,27,0,0,1,7.52-9.16,24.41,24.41,0,0,1,15.28-4.61q11.46.11,22.91.15a23,23,0,0,0,2.48-.18,7.85,7.85,0,0,0,6.83-9.37,8.06,8.06,0,0,0-7.38-6.24q-10.09-.1-20.2-.19c-.66,0-1-.06-1.08-.87a12.67,12.67,0,0,0-2.9-7.63,2.69,2.69,0,0,0-1.57-.87,15.5,15.5,0,0,0-3,.14c-.62.05-1,0-1.18-.77-.62-3-1.61-5.84-3.87-7.69a21.31,21.31,0,0,0-.47-4c-.7-2.21-1.61-4.36-2.53-6.5a11.56,11.56,0,0,1-1.06-6,7.79,7.79,0,0,0-.18-1.65l-1.28,1c-.07.06-.1.18-.16.26l-3,4.36-.16,0c-.77-1.68-1.53-3.35-2.3-5A98.54,98.54,0,0,0,92,24.33,149.29,149.29,0,0,0,71.28,6C68.57,4,65.82,2.13,63.08.23a1.5,1.5,0,0,0-1-.22c-.13,0-.3.51-.27.75.51,3.25.94,6.52,1.59,9.75A38.68,38.68,0,0,0,70,25.91c1,1.34,2,2.67,3,4-.09,0-.13.07-.14.06-.55-.36-1.11-.72-1.65-1.09A159.51,159.51,0,0,0,44.94,14.28a3,3,0,0,0-1-.09,3.94,3.94,0,0,0,0,1c.87,2.76,1.68,5.54,2.68,8.25a39.85,39.85,0,0,0,9,14.69c.84.85,1.71,1.66,2.6,2.52-4.57-1.5-9-3.08-13.55-4.44a87.56,87.56,0,0,0-13.9-3.16c3.43,7,7.2,13.56,13.15,18.64-2-.39-4-.91-5.93-1.29q-5.49-1.07-11-2c-1.66-.28-3.34-.43-5-.61-.23,0-.64.1-.68.24a1.11,1.11,0,0,0,.19.77C22.2,49.92,22.9,51,23.69,52c2.17,2.81,4.27,5.68,6.62,8.34a67.8,67.8,0,0,0,5.5,5,5.6,5.6,0,0,1-.71,0c-3-.32-6-.67-9.06-1-1.43-.14-2.86-.21-4.28-.27-3.2-.12-6.39-.22-9.59-.32a1.42,1.42,0,0,0-.29,0c-.78.17-.94.57-.42,1.15,2.06,2.27,4.07,4.58,6.2,6.78a39.25,39.25,0,0,0,15.39,10l4.23,1.47a2.76,2.76,0,0,1-.46.08,130.21,130.21,0,0,0-20.52.67c-3.85.36-7.66,1-11.49,1.58-.29,0-.78.28-.78.43a1.33,1.33,0,0,0,.43.9C6,88.25,7.63,89.48,9.21,90.76a42,42,0,0,0,21.38,9.55c-.34.15-.51.26-.68.31-4.62,1.21-9.27,2.3-13.84,3.67-3.84,1.16-7.59,2.64-11.36,4a5,5,0,0,0-1.15.82,7.29,7.29,0,0,0,1,.9c.92.52,1.88,1,2.81,1.44a52.64,52.64,0,0,0,13.8,5.28c1.13.23,2.26.41,3.53.64-3.18,1.25-6.24,2.37-9.22,3.66-3.7,1.59-7.33,3.32-11,5-.31.14-.5.53-.75.8a3.86,3.86,0,0,0,.81.6c5.34,2.19,10.65,4.49,16.6,5.25-.25.22-.36.34-.49.43-4.05,2.62-8.15,5.17-12.12,7.9-2.76,1.89-5.35,4-8,6.08-.28.21-.4.62-.6.94a5.93,5.93,0,0,0,1,.37c.87.18,1.76.29,2.64.45a55.87,55.87,0,0,0,14.2,1.2,40.3,40.3,0,0,0,9.51-1.76c1.58-.52,3.14-1.11,4.77-1.7a1.33,1.33,0,0,1-.12.26c-3.88,3.23-7.91,6.29-11.6,9.73-4.16,3.87-8,8.08-12,12.16a2.56,2.56,0,0,0-.37.76,2.59,2.59,0,0,0,.87.33c3.76-.06,7.52-.09,11.27-.23a29,29,0,0,0,9-1.77c2.88-1.05,5.68-2.33,8.36-3.44,0-.07,0,.07-.13.19-2,2.7-4.23,5.3-6.1,8.11-3.07,4.59-5.95,9.31-8.89,14a3.86,3.86,0,0,0-.26,1.16,5.89,5.89,0,0,0,1.11,0c1.07-.19,2.13-.41,3.2-.63a54.31,54.31,0,0,0,13.17-4.06c1.38-.68,2.74-1.4,4.15-2.12a.86.86,0,0,1,0,.31c-1.74,3-3.58,5.95-5.23,9-1.77,3.31-3.37,6.71-5,10.09a1.55,1.55,0,0,0,0,1c0,.08.53.14.78.06,3.2-1,6.43-1.95,9.58-3.11a35.32,35.32,0,0,0,13.89-8.64c3.88-4.1,7.5-8.45,11.07-12.82,4.18-5.11,8.16-10.38,12.28-15.54C82.62,159.43,84.37,157.56,86.07,155.6ZM57,58.79h0c0-.11,0-.23,0-.35C57,58.56,57,58.68,57,58.79Z"/><path class="cls-1" d="M149.94,174.42a28.67,28.67,0,0,0,6.15-.43,7.76,7.76,0,0,0,4.28-12.57,8.28,8.28,0,0,0-6.67-3c-7.44,0-14.87,0-22.31,0a55.85,55.85,0,0,1-11.17-1,14.64,14.64,0,0,1-7.79-4c1.11.07,2.22.17,3.33.21.22,0,.45-.24.68-.37-.22-.14-.43-.37-.67-.4a3.75,3.75,0,0,1-3.1-1.88,17.7,17.7,0,0,1-1.41-3.33,6.08,6.08,0,0,0-5.59-4.83.92.92,0,0,1-.66-.55c-.56-2-1.1-4-1.56-6-.13-.6-.3-.85-.94-.85-2.73,0-5.47,0-8.2,0H93.06c.81-3.44,1.59-6.69,2.37-9.94l-.34-.11a7.6,7.6,0,0,0-.45,1.07c-.74,3.17-1.53,6.32-2.14,9.51-.4,2.13.67,5,3.35,5.57a23.59,23.59,0,0,0,3.87.29,4.73,4.73,0,0,1,3,1.09c-.1.21-.19.41-.38.8.77-.05,1.38,0,2-.13a5.3,5.3,0,0,1,6.07,3.6A13.55,13.55,0,0,0,113.1,153l-6.64-1a3,3,0,0,0-.2,1.08,8.76,8.76,0,0,0,.56,2.67c.18.42,1,.56,1.44.85a8,8,0,0,1,3.78,4.56c.69,2.15.21,4.28-.11,6.67-1.39-2.33-3.51-3.27-6-4.33.35.8.58,1.33.74,1.72.54,0,1-.16,1.12,0a1.34,1.34,0,0,1,.15,1,18.43,18.43,0,0,1-3.46,6.51c-.18.22-.55.3-.83.45l-.23-.3c1.44-2,3-4,3.54-6.51l-.47-.25c-.13-.07-.27-.12-.48-.22a9.05,9.05,0,0,1-3.3,5.23.88.88,0,0,0-.3.49c-.13,1.1-.23,2.22-.37,3.57a48.94,48.94,0,0,0,5.15-3.42,7.78,7.78,0,0,0,2.39-5.49c1.15,1.66-.11,3.1-.5,4.61l1.32.41a58.9,58.9,0,0,0,17.49,3C135.27,174.38,142.6,174.41,149.94,174.42Z"/><path class="cls-1" d="M172.71,242a14.88,14.88,0,0,1-3.18.57,17.34,17.34,0,0,1-6.85-1.7c-2.46-1.18-4.88-2.44-7.32-3.65a8.87,8.87,0,0,0-8.43.05c-1.11.57-2.22,1.15-3.35,1.67a2.14,2.14,0,0,1-1.32.26c-1.25-.38-2.45-.9-3.65-1.35.43-1.94-.11-2.78-1.92-3.28a1,1,0,0,1-.58-.65,11,11,0,0,0-7.29-7.24c-1.28-.43-2.64-1.23-4-.22a1.07,1.07,0,0,1-1.32,0,38.34,38.34,0,0,1-12.85-10.08,67.28,67.28,0,0,1-9.11-15.21c-.29-.67-.52-1.36-.83-2.2.88.31,1.53.54,2.18.75s1.29.4,1.94.59l.24-.46c-1.47-.73-2.93-1.48-3.52-3.14l-.34.12c.09.54.17,1.08.26,1.62l-.77-.21c-.58,1.05-.58,1.05-.2,2a62.58,62.58,0,0,0,5.6,10.89c3.11,4.86,6.66,9.35,11.54,12.59,1.91,1.27,3.92,2.4,5.89,3.59-.85,1.18-.87,1.21-1.34,1A41.17,41.17,0,0,1,113,222.1a56.71,56.71,0,0,1-12.25-17.36c-1-2.13-1.87-4.36-2.91-6.8a3.38,3.38,0,0,0,.65.25c.37,0,.75,0,1.12,0a6.11,6.11,0,0,0-.84-.7c-1-.59-2.07-1.15-3.11-1.71a3.51,3.51,0,0,0-.59-.18c-.11,1,.78,1.09,1.23,1.53s1,.69,1.11,1.15A66.45,66.45,0,0,0,106,215a37.88,37.88,0,0,0,9,9.52c2.39,1.67,4.88,3.22,7.38,4.86-.15.95-.35,2.06-.49,3.17-.33,2.59.52,4.71,3.32,5.33a17.23,17.23,0,0,0,8.53,0,.88.88,0,0,1,.76.19,2.14,2.14,0,0,0,3.09.71,1.24,1.24,0,0,1,.78-.11,6.11,6.11,0,0,1,4.56,3.5c.32.72.77,1.38,1.13,2.09a7.54,7.54,0,0,0,4.89,4,27.31,27.31,0,0,0,12.2.09c4.18-.77,7.82-2.85,11.46-4.89a2.22,2.22,0,0,0,.7-.54,3.47,3.47,0,0,0,.32-.85A4.56,4.56,0,0,0,172.71,242Zm-2.18,1.67c-3,1.55-5.95,3.23-9.33,3.85-4.06.74-8.13,1.13-12.17-.09a6.48,6.48,0,0,1-4.22-3.47c-.6-1.25-1.36-2.42-2.09-3.69,9.84,3.16,18.61,4.69,19.75,3.36-3.21-.41-6.4-.63-9.52-1.25s-6.07-1.59-9.11-2.41a2.34,2.34,0,0,1,0-.26c1.37-.69,2.73-1.43,4.14-2.08a7.58,7.58,0,0,1,6.59.1c2.51,1.18,4.94,2.53,7.44,3.71a17.28,17.28,0,0,0,9.17,1.78A7.11,7.11,0,0,1,170.53,243.68Z"/><path class="cls-1" d="M104.85,188.91c-.11-.72-.21-1.37-.29-1.91l-4.78.66L99.12,189c-.24-.41-.48-.81-.85-1.41l-.65-.14c.92-1.1,1-1.83.26-3.85a15.89,15.89,0,0,1-5.26,4.84,2.83,2.83,0,0,1-1,.19c.18-.29.29-.68.55-.85a15.25,15.25,0,0,0,5.15-4.89,2.23,2.23,0,0,0-.55-2.75,2,2,0,0,0-1.8.13c-.48.34-.67,1.11-1,1.68-.17.29-.39.55-.58.83-.13-.3-.28-.59-.39-.89a1.2,1.2,0,0,1,0-.38l-.3-.13a11,11,0,0,0-1.22,2.79,9.47,9.47,0,0,1-2.37,5.72c1.55-.25,2.87-.39,4.15-.68s2.52-.73,3.77-1.11l.12.3-1.49,1c1.51,2.4,4.43,3.62,4.92,6.76.25-.29.36-.37.41-.49a32.51,32.51,0,0,0,1.44-3.39c.44-1.38.94-2.84-.29-4.14,0-.09.06-.18.1-.27Z"/><path class="cls-1" d="M105.89,173.85c-1.3.55-1.52,1-1.23,2.44a9.76,9.76,0,0,0,7.47,7.06,7.59,7.59,0,0,1-.26-5.65,5.18,5.18,0,0,0-2.9-5.79,1,1,0,0,0-.7-.13,2.43,2.43,0,0,0-1.35,2.9,14.93,14.93,0,0,0,2.89,5.66,9.52,9.52,0,0,1,.7,1.15l-.42.23A14.57,14.57,0,0,1,105.89,173.85Z"/><path class="cls-1" d="M103.73,154c-.6-.83-1.16-1.68-1.68-2.56a15.81,15.81,0,0,1-1.83-6.85c-2.86,3.65.57,10.36,5.85,11.54-.75-2-.43-4-.09-6a5.37,5.37,0,0,0-4.94-6,11.83,11.83,0,0,0,.94,5.4c.74,1.66,1.72,3.23,2.6,4.84A.91.91,0,0,1,103.73,154Z"/><path class="cls-1" d="M108.32,190a8.12,8.12,0,0,0,3.66-4c.57-1.41.31-1.82-1.26-2.05-1.26,3.36-3,5.81-4.25,5.83,1.3-2.1,3-3.87,3.46-6.32-.91-.57-1.81-1.17-2.76-1.7a1,1,0,0,0-.79.13,3.18,3.18,0,0,0-1.31,3.42c.37,2.11.91,4.19.09,6.42C106.21,191.13,107.29,190.61,108.32,190Z"/><path class="cls-1" d="M95.8,191.84c.15-.72-.67-2.18-1.13-2.1-1.15.21-2.28.5-3.5.77a19.67,19.67,0,0,0,.18,2.14c.29,1.42.66,2.82,1,4.23,0,.2-.09.44-.15.66a2.84,2.84,0,0,1-.54-.43,1.25,1.25,0,0,1-.2-.55c-.43-2-.86-4-1.29-6.06l-1.42.25c-.68,4.11,1.81,6.57,4.56,9.22-.27-2.36.82-4.05,1.79-5.8A8,8,0,0,0,95.8,191.84Z"/><path class="cls-1" d="M102.6,161.88c-.82-1.38-1.66-2.76-2.34-4.21a19.77,19.77,0,0,1-.91-3,1.31,1.31,0,0,0-1.12,1.67c.11.61.2,1.23.36,1.83.88,3.31,3.63,4.65,6.46,6.12a8.6,8.6,0,0,1-.39-1.92c0-1.41.25-2.81.32-4.21,0-.56.07-1.41-.26-1.65-1.35-1-2.84-1.86-4.47-2.88-.12,3.41,1.74,6,3.32,8.71A1.37,1.37,0,0,1,102.6,161.88Z"/><path class="cls-1" d="M105,166.82c.51-1.46.46-1.57-1.07-2.17a5.66,5.66,0,0,1-.28.72c-.81,1.55-1.61,3.09-2.47,4.61-.18.31-.6.49-.91.74l-.25-.26.36-.65c.87-1.59,1.74-3.17,2.59-4.77.29-.56.14-.95-.46-1.27-.75-.4-1.44-.91-2.15-1.37a3.8,3.8,0,0,0-1.64,4.1,25.81,25.81,0,0,1,.32,3.83,12.46,12.46,0,0,1-.37,2.2c1.11-.62,2.12-1.1,3-1.72A7.86,7.86,0,0,0,105,166.82Z"/><path class="cls-1" d="M95,151.74c.24-.17.24-.7.35-1.06a2.55,2.55,0,0,0-.86-.06A7.19,7.19,0,0,0,90.84,153c-1.72,2.09-1.91,4.59-2.08,7.33a8.63,8.63,0,0,1,5-2.39,4.79,4.79,0,0,0,3.43-2.06c-1.13.51-2.2,1.12-3.31,1.67a2.71,2.71,0,0,1-1,.07c.18-.26.29-.61.53-.76,1.7-1,2-2.63,2.14-4.54-2.23,1.19-3.5,3-4.81,4.8a6.14,6.14,0,0,1-.91.85,4.48,4.48,0,0,1,.33-1.26A16.57,16.57,0,0,1,95,151.74Z"/><path class="cls-1" d="M103.84,177.14c-1.86,1.63-2.61,4-3.93,6.13a1.38,1.38,0,0,1-.12-1,10.74,10.74,0,0,1,.78-1.81c.63-1.13,1.31-2.22,2-3.35a11.1,11.1,0,0,1-1.72.56,2,2,0,0,0-1.64,1.56c-.69,2.07-.27,4.12,0,6.29,1.64-2.62,4.82-2.8,6.89-4.4Z"/><path class="cls-1" d="M94.72,158.51c-.85.11-1.15.65-1.38,1.35a12.32,12.32,0,0,0,0,6.49c1.29-2.66,4.45-2.76,6.19-4.46l-2.19-4.24L94,164c-.54-.66-.54-.66,2.37-6.13A7.83,7.83,0,0,1,94.72,158.51Z"/><path class="cls-1" d="M95.8,155.77c1.21-.69,2.27-1.23,3.25-1.88,1.19-.78,1.17-.82.3-2-.79.49-.82,1.85-2.33,2,.43-.65.72-1.07,1-1.5a2.86,2.86,0,0,0,.66-2.63,7.79,7.79,0,0,1,0-3.12,18.41,18.41,0,0,1,.88-2.89A5.51,5.51,0,0,0,96,150.2a15.18,15.18,0,0,1,.21,3.64A10.08,10.08,0,0,1,95.8,155.77Z"/><path class="cls-1" d="M103.59,175.13c-.1,0-.13-.08-.15-.07-1.1.53-2.17,1.09-3.29,1.57a4.47,4.47,0,0,1-1.29.18,4.78,4.78,0,0,1,.87-.92,3.83,3.83,0,0,0,1.7-4.17,27.42,27.42,0,0,0-2.75,2.13c-.92.91-1.64,2-2.48,3a2.81,2.81,0,0,1-.77.41l-.23-.33,1.74-2.46H95.77a4,4,0,0,1,.7-.86,3.38,3.38,0,0,0,1.64-2.67c-2.53,1.59-4.33,5.65-3.74,8.43,2.12-1.48,2.34-1.55,5.22-2.13A6.33,6.33,0,0,0,103.59,175.13Z"/><path class="cls-1" d="M119.44,190.06c.2-.25.53-.47.57-.75.27-1.66.43-3.34.69-5a8.51,8.51,0,0,0-6.17-9.77,17.36,17.36,0,0,0-2-.34l-.14.41a3,3,0,0,0,.79.42,7.7,7.7,0,0,1,6.48,5.14c.85,2.16.3,4.34-.07,6.77-1.5-2.49-4-3.21-6.19-4.29l-.22.21a3.64,3.64,0,0,0,.78.83c1.12.64,2.34,1.12,3.38,1.85a4,4,0,0,1,1.9,3.72A2.29,2.29,0,0,0,119.44,190.06Z"/><path class="cls-1" d="M81.16,190.18c.16-.82.34-1.72.54-2.62a7.88,7.88,0,0,1,9.59-6.1c.22.06.52-.15.79-.24,0-.1-.07-.21-.11-.32s-.39-.06-.58-.11c-3.69-1-8.24.91-9.63,4.45a53.18,53.18,0,0,0-1.92,7.55c0,.2.19.47.29.71.17-.2.43-.37.49-.59a3.79,3.79,0,0,1,2.78-2.84,25.36,25.36,0,0,1,3.79-.61c.56-.07,1.08-.06,1.17-.88a27.63,27.63,0,0,0-3.68.37A28.9,28.9,0,0,0,81.16,190.18Z"/><path class="cls-1" d="M117.22,181.2c.39.83.7,1.71,1.09,2.54.1.21.39.33.59.49,0-.26.19-.54.12-.76a21.9,21.9,0,0,0-.9-2.19,14,14,0,0,0-5.32-6.08l-.23.22a5.52,5.52,0,0,0,.8,1A13.92,13.92,0,0,1,117.22,181.2Z"/><path class="cls-1" d="M82.45,187.94c0,.11.09.22.13.32.25-.11.59-.16.75-.35a15.91,15.91,0,0,1,7.24-5.2,4,4,0,0,0,.93-.64C88.43,182.11,84.19,185.07,82.45,187.94Z"/><path class="cls-1" d="M111.35,165c0-.22.16-.47.09-.65a36.92,36.92,0,0,0-1.53-3.73,5,5,0,0,0-3.12-3,14.78,14.78,0,0,1,1.62,2c.86,1.58,1.59,3.23,2.4,4.84C110.91,164.74,111.17,164.87,111.35,165Z"/><path class="cls-1" d="M96.82,168.89c-.27.85-.54,1.64-.8,2.44l.25.12,2-3.67c-1.55.67-3.27.22-4.69.88l.09.41Z"/><path class="cls-1" d="M89,169c1.18,0,2.37,0,3.55,0l.12-.31-.81-.45.74-1.41-.34-.18A3.87,3.87,0,0,1,89,168.26c-.19,0-.39.25-.58.39C88.64,168.78,88.83,169,89,169Z"/><path class="cls-1" d="M110.94,151.53l-4.06-2.65C106.86,150,109.51,151.87,110.94,151.53Z"/><path class="cls-1" d="M104.33,184.13l-4.25,2.2.12.44a9.71,9.71,0,0,0,3.73-1.66C104.13,185,104.15,184.59,104.33,184.13Z"/><path class="cls-1" d="M97.31,195.18c.62.62,1,1.68,2.49,1.58l-3.29-3.55C96.17,194,96.12,194,97.31,195.18Z"/><path class="cls-1" d="M92.73,159l-2.54,1.13,1.8,1.58C92.25,160.71,92.47,159.89,92.73,159Z"/><path class="cls-1" d="M94.15,167.42c.2,0,.44.16.58.09.94-.47,1.87-.95,2.77-1.49.22-.13.28-.52.42-.79l-.17-.11c-1.1.59-2.21,1.16-3.29,1.77C94.31,167,94.25,167.24,94.15,167.42Z"/><path class="cls-1" d="M98.66,178.18l-1.39.34c.21.69.38,1.27.63,2.1Z"/></g></g></svg>