<svg id="Layer_1" data-name="Layer 1" xmlns="http://www.w3.org/2000/svg" xmlns:xlink="http://www.w3.org/1999/xlink" viewBox="0 0 841.89 595.28"><defs><style>.cls-1,.cls-3{fill:none;}.cls-2{clip-path:url(#clip-path);}.cls-3{stroke:#2aabe2;stroke-miterlimit:10;stroke-width:2px;}.cls-4{fill:#28ade4;}.cls-11,.cls-5{fill:#231f20;}.cls-6{fill:#2aabe2;}.cls-7{fill:#62cdf4;}.cls-8{fill:#a9e0f7;}.cls-9{fill:#fff;}.cls-10{clip-path:url(#clip-path-3);}.cls-11,.cls-17{fill-rule:evenodd;}.cls-12{clip-path:url(#clip-path-4);}.cls-13{clip-path:url(#clip-path-5);}.cls-14{clip-path:url(#clip-path-6);}.cls-15{clip-path:url(#clip-path-7);}.cls-16{clip-path:url(#clip-path-8);}.cls-17{fill:#2babe2;}.cls-18{clip-path:url(#clip-path-9);}</style><clipPath id="clip-path"><rect class="cls-1" width="841.89" height="595.28"/></clipPath><clipPath id="clip-path-3"><rect class="cls-1" x="36.38" y="36.37" width="202.64" height="97.73"/></clipPath><clipPath id="clip-path-4"><rect class="cls-1" x="36.38" y="36.37" width="202.64" height="97.73"/></clipPath><clipPath id="clip-path-5"><rect class="cls-1" x="36.38" y="36.37" width="202.64" height="97.73"/></clipPath><clipPath id="clip-path-6"><rect class="cls-1" x="36.38" y="36.37" width="202.64" height="97.73"/></clipPath><clipPath id="clip-path-7"><rect class="cls-1" x="36.38" y="36.37" width="202.64" height="97.73"/></clipPath><clipPath id="clip-path-8"><rect class="cls-1" x="36.38" y="36.37" width="202.64" height="97.73"/></clipPath><clipPath id="clip-path-9"><rect class="cls-1" x="36.38" y="36.37" width="202.64" height="97.73"/></clipPath></defs><g class="cls-2"><rect class="cls-3" x="15.97" y="14.33" width="809.95" height="566.42"/><g class="cls-2"><path class="cls-4" d="M160,492.68h5.51c.29.91.52,1.83.88,2.7a8.41,8.41,0,0,0,3,3.86,6.29,6.29,0,0,0,3,1,105.26,105.26,0,0,0,11,.22,2.9,2.9,0,0,1,2.85,1.86,2.75,2.75,0,0,1-2,3.61,12,12,0,0,1-2.16.14c-2.58,0-5.16,0-7.74-.07a16.32,16.32,0,0,1-6.57-1.33,11,11,0,0,1-3.22-2.31,16.28,16.28,0,0,1-4.17-7.88c-.13-.56-.19-1.14-.28-1.71,0,0,0-.06,0-.11"/><path class="cls-4" d="M122.18,492.69l.31,0h5.06c.25,0,.32.08.38.33A10.32,10.32,0,0,0,131,498.7a5.46,5.46,0,0,0,3.05,1.34c1.34.15,2.7.26,4,.28,2.46.05,4.92,0,7.38,0a2.89,2.89,0,0,1,2.35,1,2.72,2.72,0,0,1-1.5,4.42,9.22,9.22,0,0,1-2.17.15c-2.57,0-5.15,0-7.73-.07a16.42,16.42,0,0,1-6.55-1.32,11.68,11.68,0,0,1-4-3.13,15.84,15.84,0,0,1-3.24-6.33c-.2-.78-.34-1.58-.52-2.41"/><path class="cls-4" d="M122.33,488c.36-1.11.63-2.17,1-3.18a17.31,17.31,0,0,1,3.93-6,13.23,13.23,0,0,1,6.18-3.39,13.71,13.71,0,0,1,3.67-.43l8.89.07a2.85,2.85,0,0,1,2.57,2.19,2.77,2.77,0,0,1-2.42,3.31c-.24,0-.49.06-.73.06-2.73,0-5.46,0-8.19-.06a8.62,8.62,0,0,0-5.34,1.61,9.33,9.33,0,0,0-2.67,3.25c-.39.76-.69,1.57-1,2.34-.05.1-.18.23-.27.23-1.83,0-3.65,0-5.62,0"/><path class="cls-4" d="M160.15,488a18.64,18.64,0,0,1,3.64-7.7,13.26,13.26,0,0,1,6.74-4.56,13.91,13.91,0,0,1,3.95-.61l9.25.07a2.81,2.81,0,0,1,2.6,2.23,2.75,2.75,0,0,1-2.4,3.26c-.3,0-.6.07-.9.07l-8.06-.06a8.65,8.65,0,0,0-5.34,1.62,9.26,9.26,0,0,0-2.64,3.22c-.39.72-.67,1.5-1,2.25a.47.47,0,0,1-.29.21h-5.54"/><path class="cls-4" d="M116.16,488h-5.87a.4.4,0,0,1-.25-.21c-.33-.74-.65-1.49-1-2.31-.31.75-.62,1.43-.88,2.12a.51.51,0,0,1-.59.41H102l.82-2c1.16-2.79,2.32-5.58,3.46-8.37a3.2,3.2,0,0,1,1.84-2,2.75,2.75,0,0,1,3.43,1.43c.48,1,.87,2,1.29,3l3.23,7.61.13.34"/><path class="cls-4" d="M112.09,492.67c2,0,3.91,0,5.84,0a.36.36,0,0,1,.28.18c1.33,3.13,2.67,6.26,4,9.4a2.77,2.77,0,0,1-1.8,3.8,2.69,2.69,0,0,1-3.16-1.37c-.49-.95-.88-2-1.3-2.95q-1.86-4.38-3.71-8.77l-.12-.3"/><path class="cls-4" d="M106.05,492.7c-.24.61-.48,1.22-.72,1.81-1.34,3.23-2.67,6.47-4,9.69a2.79,2.79,0,0,1-5.35-.27,3.68,3.68,0,0,1,.32-2.17q1.81-4.41,3.65-8.82a.45.45,0,0,1,.33-.26c1.88,0,3.75,0,5.63,0l.16,0"/><path class="cls-4" d="M151.35,492.68h5.56v.37c0,3.47,0,6.94-.09,10.41a2.56,2.56,0,0,1-1.69,2.43,2.64,2.64,0,0,1-2.92-.51,2.79,2.79,0,0,1-.93-2.18c0-3.42.05-6.84.07-10.26v-.26"/><path class="cls-4" d="M154.12,475.42a2.78,2.78,0,1,1-2.84,2.67,2.78,2.78,0,0,1,2.84-2.67"/><path class="cls-4" d="M157,488h-5.6a5.61,5.61,0,0,1,.35-2.72,2.78,2.78,0,0,1,2.68-1.48,2.7,2.7,0,0,1,2.43,2.12A15.68,15.68,0,0,1,157,488"/><path class="cls-4" d="M86.08,529.54c3.45,1.11,6.54,1.64,6.94,1.18-1.13-.15-2.25-.23-3.35-.44s-2.13-.56-3.2-.85v-.09c.49-.24,1-.51,1.46-.73a2.66,2.66,0,0,1,2.32,0c.88.42,1.73.89,2.61,1.31a6.13,6.13,0,0,0,3.23.62l-.24.16a12,12,0,0,1-3.29,1.36,9.11,9.11,0,0,1-4.28,0,2.3,2.3,0,0,1-1.48-1.23c-.21-.44-.48-.85-.73-1.29"/><path class="cls-4" d="M66.16,499.76l.7.8a3.17,3.17,0,0,1,2.26-2.84.44.44,0,0,0,.18-.31,2.26,2.26,0,0,1,.42-1.26c.2-.23.41-.45.64-.69a3.71,3.71,0,0,0-.44,0A2,2,0,0,1,68,494a3.6,3.6,0,0,1,0-2c.19-.84.41-1.68.6-2.52a1,1,0,0,0,0-.24c-.07.07-.16.13-.18.2s-.11.43-.16.64c-.21.89-.42,1.77-.62,2.66-.83,0-.84,0-.86-.84a17.52,17.52,0,0,1,.36-3.46c0-.11.07-.21.1-.32l.29,0c0-.59.35-1.14,0-1.71a.65.65,0,0,1,0-.45c.12-.32.26-.64.4-.95,0-.09.11-.18.1-.26a1.83,1.83,0,0,1,.37-1.36,3.47,3.47,0,0,0,.56-1.12,2.79,2.79,0,0,1,1-1.42,2.76,2.76,0,0,0,.31-.37c.28-.37.54-.75.84-1.1s.51-.36.66-.6a4.19,4.19,0,0,1,1.5-1.43.92.92,0,0,0,.25-.23,3.69,3.69,0,0,1,1.82-1.36.72.72,0,0,0,.33-.21,3.35,3.35,0,0,1,1.69-.92,3.72,3.72,0,0,0,.59-.25,11.81,11.81,0,0,1,1.12-.44c.41-.12.85-.06,1.22-.34a1.06,1.06,0,0,1,.39-.13c.73-.18,1.21.08,1.34.62-.32.42-.56.79-.85,1.13-.12.13-.35.29-.49.26s-.14-.31-.06-.47.34-.56.52-.84a1.19,1.19,0,0,0-1.2.31,3.53,3.53,0,0,0-.52.93c-.09.21-.33.47-.49.42s-.22-.31-.15-.5.19-.49.29-.75a.86.86,0,0,0-.16,0A1.54,1.54,0,0,0,77.67,476c0,.26-.23.54-.43.5S77,476.25,77,476s.11-.53.18-.83l-.33.1a1.38,1.38,0,0,0-.92,1.55.45.45,0,0,1-.39.51c-.26.05-.34-.18-.36-.37a4.08,4.08,0,0,1,0-.68c-.24.16-.46.27-.66.41a1.09,1.09,0,0,0-.34,1.4.55.55,0,0,1-.13.48.28.28,0,0,1-.48,0,5.76,5.76,0,0,1-.37-.71,6.1,6.1,0,0,0-.66.76.66.66,0,0,0,.25,1c.23.12.15.3,0,.45a.49.49,0,0,1-.74.07,6.12,6.12,0,0,1-.47-.61,1.24,1.24,0,0,0-.58.75.64.64,0,0,0,.31.82c.26.14.23.28.07.47a.49.49,0,0,1-.69.09c-.19-.11-.36-.25-.56-.39a6,6,0,0,0-.45.73.65.65,0,0,0,.55.89c.1,0,.25.08.27.15a.39.39,0,0,1-.11.34,1,1,0,0,1-.57.16,3,3,0,0,1-.72-.29,5.39,5.39,0,0,0-.25.48.67.67,0,0,0,.68,1c.12,0,.25,0,.38,0s.35.2.18.37a1,1,0,0,1-.61.31,4.75,4.75,0,0,1-1-.12c0,.1-.09.22-.13.36a.66.66,0,0,0,.62.9c.18,0,.37-.05.55-.05s.31,0,.36.13a.37.37,0,0,1-.09.36,1.44,1.44,0,0,1-.58.26,5.46,5.46,0,0,1-.81,0,1,1,0,0,0,.08.91,1,1,0,0,0,1.19.2,9.91,9.91,0,0,0,.92-.68l.09.27c.61,0,1.22,0,1.83,0,.08,0,.2-.12.24-.21.31-.65.58-1.32.92-1.95a9.4,9.4,0,0,1,2.64-3.23A8.6,8.6,0,0,1,81.7,481c2.68,0,5.37,0,8,.06a8.5,8.5,0,0,0,.87-.07A2.76,2.76,0,0,0,93,477.7a2.85,2.85,0,0,0-2.6-2.2l-7.11-.06c-.23,0-.36,0-.37-.31a4.46,4.46,0,0,0-1-2.68.9.9,0,0,0-.55-.31,6.09,6.09,0,0,0-1,.05c-.22,0-.35,0-.41-.27a4.55,4.55,0,0,0-1.36-2.7,8.25,8.25,0,0,0-.17-1.41c-.25-.77-.57-1.53-.89-2.28a4,4,0,0,1-.37-2.1,2.3,2.3,0,0,0-.07-.58c-.15.11-.3.22-.44.34s0,.06-.06.09l-1,1.53h-.05L74.65,463a34.72,34.72,0,0,0-6.41-9.43A52.07,52.07,0,0,0,61,447.14c-1-.68-1.92-1.35-2.88-2a.57.57,0,0,0-.34-.08s-.11.18-.1.27c.18,1.14.33,2.29.56,3.43a13.63,13.63,0,0,0,2.31,5.41c.34.47.7.94,1,1.41l0,0c-.2-.12-.39-.25-.58-.38a56.29,56.29,0,0,0-9.23-5.14,1.31,1.31,0,0,0-.35,0,1.45,1.45,0,0,0,0,.36c.31,1,.59,1.95.94,2.9a14.1,14.1,0,0,0,3.17,5.17l.91.89c-1.6-.53-3.17-1.09-4.76-1.57a31,31,0,0,0-4.89-1.11,19.61,19.61,0,0,0,4.63,6.56c-.72-.14-1.4-.32-2.09-.45-1.29-.25-2.58-.49-3.87-.7-.58-.1-1.17-.16-1.76-.22-.08,0-.23,0-.24.08a.37.37,0,0,0,.06.27c.25.38.5.77.78,1.13.76,1,1.5,2,2.33,2.93A21.78,21.78,0,0,0,48.48,468h-.25c-1.06-.11-2.12-.24-3.19-.34-.5-.05-1-.08-1.5-.1l-3.37-.11h-.11c-.27.06-.33.2-.14.4.72.8,1.43,1.61,2.18,2.38a13.7,13.7,0,0,0,5.41,3.54l1.48.52-.16,0a44.54,44.54,0,0,0-7.21.23c-1.35.13-2.7.36-4,.56-.1,0-.28.09-.28.15a.48.48,0,0,0,.15.31c.55.46,1.12.89,1.67,1.34a14.82,14.82,0,0,0,7.52,3.35.92.92,0,0,1-.24.11c-1.62.43-3.26.81-4.86,1.3-1.35.4-2.67.92-4,1.4a1.85,1.85,0,0,0-.4.29,2.24,2.24,0,0,0,.37.32c.32.18.66.34,1,.51a18.83,18.83,0,0,0,4.86,1.85l1.24.23c-1.12.44-2.2.83-3.25,1.28-1.3.56-2.57,1.17-3.86,1.77-.11.05-.17.19-.26.28a1.37,1.37,0,0,0,.28.21,23.26,23.26,0,0,0,5.84,1.85,1.49,1.49,0,0,1-.17.15c-1.42.92-2.87,1.82-4.26,2.78-1,.66-1.88,1.41-2.81,2.13-.1.08-.14.23-.21.34.11,0,.22.1.33.13l.93.16a19.93,19.93,0,0,0,5,.42,14.58,14.58,0,0,0,3.34-.62c.56-.18,1.1-.39,1.68-.6,0,0,0,.08,0,.09-1.37,1.14-2.79,2.21-4.08,3.42-1.47,1.36-2.82,2.84-4.22,4.28a1.69,1.69,0,0,0-.13.27,1.05,1.05,0,0,0,.31.11c1.32,0,2.64,0,4-.08a10.25,10.25,0,0,0,3.16-.62c1-.37,2-.82,2.94-1.21l0,.07c-.72.95-1.49,1.86-2.15,2.85-1.08,1.61-2.09,3.27-3.12,4.92a1.06,1.06,0,0,0-.09.4,1.61,1.61,0,0,0,.38,0c.38-.06.76-.14,1.13-.21a19.72,19.72,0,0,0,4.63-1.43c.49-.24,1-.49,1.46-.75a.34.34,0,0,1,0,.11c-.62,1.06-1.26,2.09-1.84,3.17s-1.19,2.36-1.76,3.55a.59.59,0,0,0,0,.35s.19.05.28,0c1.12-.35,2.26-.68,3.36-1.09a12.39,12.39,0,0,0,4.89-3c1.36-1.44,2.64-3,3.89-4.51,1.47-1.79,2.87-3.65,4.32-5.46.56-.7,1.18-1.36,1.78-2.05M55.93,465.71h0s0-.08,0-.12,0,.08,0,.12"/><path class="cls-4" d="M88.61,506.38a10.42,10.42,0,0,0,2.17-.15,2.73,2.73,0,0,0,1.5-4.42,2.91,2.91,0,0,0-2.34-1.05c-2.62,0-5.23,0-7.85,0a19.22,19.22,0,0,1-3.93-.35A5.14,5.14,0,0,1,75.42,499c.39,0,.78.06,1.17.07.08,0,.16-.08.24-.13a.62.62,0,0,0-.23-.14,1.3,1.3,0,0,1-1.09-.66A6.34,6.34,0,0,1,75,497a2.13,2.13,0,0,0-2-1.7.36.36,0,0,1-.24-.19c-.19-.7-.38-1.4-.54-2.11,0-.21-.11-.3-.33-.3H68.61c.29-1.21.56-2.35.83-3.5l-.11,0a2.05,2.05,0,0,0-.16.38c-.26,1.11-.54,2.22-.75,3.35a1.65,1.65,0,0,0,1.17,1.95,8.81,8.81,0,0,0,1.36.11,1.67,1.67,0,0,1,1,.38c0,.07-.07.14-.13.28a6.55,6.55,0,0,0,.69-.05,1.86,1.86,0,0,1,2.13,1.27,4.77,4.77,0,0,0,1,2l-2.34-.37a1.43,1.43,0,0,0-.07.38,3.21,3.21,0,0,0,.2.94c.06.15.33.2.51.3a2.81,2.81,0,0,1,1.33,1.6,5.34,5.34,0,0,1,0,2.35,4,4,0,0,0-2.1-1.52l.26.6c.19,0,.36-.05.39,0a.44.44,0,0,1,.06.35,6.41,6.41,0,0,1-1.22,2.29c-.06.08-.19.11-.29.16l-.08-.1a6.55,6.55,0,0,0,1.24-2.29l-.16-.09-.17-.08A3.24,3.24,0,0,1,72,505.18a.32.32,0,0,0-.11.17l-.13,1.26a18.48,18.48,0,0,0,1.82-1.2,2.72,2.72,0,0,0,.83-1.93c.41.58,0,1.08-.17,1.62l.46.14a20.86,20.86,0,0,0,6.15,1.07c2.58.05,5.16.06,7.74.07"/><path class="cls-4" d="M96.62,530.15a6.27,6.27,0,0,1-1.12.2,6.34,6.34,0,0,1-2.41-.6c-.86-.42-1.71-.86-2.57-1.29a3.13,3.13,0,0,0-3,0c-.38.2-.77.41-1.17.59a.81.81,0,0,1-.47.09c-.44-.13-.86-.31-1.28-.48.15-.68,0-1-.68-1.15a.36.36,0,0,1-.2-.23,3.87,3.87,0,0,0-2.56-2.54c-.46-.16-.93-.43-1.41-.08-.17.13-.29.09-.46,0a13.45,13.45,0,0,1-4.52-3.54,24,24,0,0,1-3.21-5.35c-.1-.23-.18-.48-.29-.77l.77.26c.22.08.45.14.68.21l.08-.16a2.11,2.11,0,0,1-1.23-1.11l-.12,0,.09.57-.27-.07c-.21.37-.2.37-.07.7a22,22,0,0,0,2,3.83,14.27,14.27,0,0,0,4,4.42c.68.45,1.38.85,2.07,1.27-.29.41-.3.42-.47.34a14.44,14.44,0,0,1-3.23-2.18,20.12,20.12,0,0,1-4.31-6.1c-.36-.75-.65-1.54-1-2.39l.23.09h.39a2.37,2.37,0,0,0-.29-.25l-1.09-.6a1.05,1.05,0,0,0-.21-.06c0,.36.27.38.43.53s.33.25.39.41a23.45,23.45,0,0,0,3,5.86A13.21,13.21,0,0,0,76.32,524c.84.59,1.72,1.13,2.59,1.71,0,.33-.12.72-.17,1.11a1.5,1.5,0,0,0,1.17,1.88,6.09,6.09,0,0,0,3,0,.32.32,0,0,1,.27.07.74.74,0,0,0,1.08.24.53.53,0,0,1,.28,0,2.18,2.18,0,0,1,1.6,1.24c.11.25.27.48.4.73a2.64,2.64,0,0,0,1.72,1.41,9.56,9.56,0,0,0,4.29,0,13.44,13.44,0,0,0,4-1.72.65.65,0,0,0,.24-.19,1.57,1.57,0,0,0,.12-.3,1.16,1.16,0,0,0-.32,0m-.76.58a12,12,0,0,1-3.29,1.36,9.11,9.11,0,0,1-4.28,0,2.3,2.3,0,0,1-1.48-1.23c-.21-.44-.48-.85-.73-1.29,3.45,1.11,6.54,1.64,6.94,1.18-1.13-.15-2.25-.23-3.35-.44s-2.13-.56-3.2-.85c0,0,0-.06,0-.09.49-.24,1-.5,1.46-.73a2.66,2.66,0,0,1,2.32,0c.88.42,1.73.89,2.61,1.31a6.13,6.13,0,0,0,3.23.62l-.24.16"/><path class="cls-4" d="M72.76,511.47c0-.25-.08-.48-.1-.67L71,511l-.24.48-.29-.49-.24,0c.33-.39.35-.65.1-1.36a5.59,5.59,0,0,1-1.85,1.71,1.21,1.21,0,0,1-.34.06c.06-.1.1-.24.19-.29a5.26,5.26,0,0,0,1.81-1.73.78.78,0,0,0-.19-1,.68.68,0,0,0-.63.05c-.17.11-.24.38-.36.58a3.13,3.13,0,0,1-.2.3c0-.11-.1-.21-.14-.32s0-.09,0-.13l-.1,0a3.47,3.47,0,0,0-.43,1,3.34,3.34,0,0,1-.83,2c.54-.09,1-.14,1.46-.24s.88-.26,1.32-.39l0,.1-.53.37c.53.84,1.56,1.27,1.73,2.37.09-.1.13-.13.14-.17a11.21,11.21,0,0,0,.51-1.19c.16-.49.33-1-.1-1.46l0-.09.92.34"/><path class="cls-4" d="M73.12,506.18c-.45.19-.53.35-.43.85a3.45,3.45,0,0,0,2.63,2.49,2.69,2.69,0,0,1-.09-2,1.83,1.83,0,0,0-1-2c-.08,0-.19-.07-.25,0a.86.86,0,0,0-.47,1,5.15,5.15,0,0,0,1,2,3.34,3.34,0,0,1,.25.4l-.15.08a5.08,5.08,0,0,1-1.48-2.76"/><path class="cls-4" d="M72.36,499.2a10.71,10.71,0,0,1-.59-.9,5.54,5.54,0,0,1-.64-2.41c-1,1.28.2,3.64,2.06,4.06a4.05,4.05,0,0,1,0-2.13,1.88,1.88,0,0,0-1.73-2.13,4.09,4.09,0,0,0,.33,1.9c.26.59.61,1.14.91,1.71a.34.34,0,0,1-.3-.1"/><path class="cls-4" d="M74,511.86a2.92,2.92,0,0,0,1.29-1.42c.19-.5.1-.65-.45-.72-.44,1.17-1,2-1.49,2a7,7,0,0,0,1.22-2.22c-.33-.2-.64-.41-1-.6a.34.34,0,0,0-.27.05,1.11,1.11,0,0,0-.46,1.2,4.13,4.13,0,0,1,0,2.26c.37-.2.75-.38,1.11-.59"/><path class="cls-4" d="M69.58,512.5c0-.25-.24-.76-.4-.74L68,512a5.86,5.86,0,0,0,.06.76c.1.5.23,1,.34,1.48a.74.74,0,0,1,0,.24.78.78,0,0,1-.2-.16.54.54,0,0,1-.07-.19q-.23-1-.45-2.13l-.5.09c-.24,1.44.64,2.31,1.6,3.24a3.25,3.25,0,0,1,.64-2,3.27,3.27,0,0,0,.26-.82"/><path class="cls-4" d="M72,502a16.65,16.65,0,0,1-.83-1.49,8.4,8.4,0,0,1-.32-1,.46.46,0,0,0-.39.59c0,.21.07.43.13.64.3,1.16,1.27,1.63,2.27,2.15a2.77,2.77,0,0,1-.14-.67c0-.5.09-1,.11-1.49,0-.19,0-.49-.09-.58-.47-.35-1-.65-1.57-1a5.72,5.72,0,0,0,1.17,3.07A.53.53,0,0,1,72,502"/><path class="cls-4" d="M72.8,503.7c.18-.51.16-.55-.38-.76a1.17,1.17,0,0,1-.1.26c-.28.54-.56,1.08-.86,1.61a1,1,0,0,1-.32.26l-.09-.09a2.53,2.53,0,0,1,.13-.22c.3-.56.61-1.12.9-1.68.11-.2.06-.34-.15-.45s-.51-.32-.76-.48a1.35,1.35,0,0,0-.58,1.44,8.68,8.68,0,0,1,.11,1.35,3.92,3.92,0,0,1-.12.77c.38-.21.74-.39,1.07-.6a2.8,2.8,0,0,0,1.15-1.41"/><path class="cls-4" d="M69.3,498.4c.08-.06.08-.25.12-.37a.77.77,0,0,0-.3,0,2.49,2.49,0,0,0-1.29.85,4.19,4.19,0,0,0-.73,2.57,3,3,0,0,1,1.78-.84,1.66,1.66,0,0,0,1.2-.72c-.4.18-.77.39-1.16.58a1,1,0,0,1-.34,0c.06-.09.1-.22.19-.27a1.77,1.77,0,0,0,.75-1.6,5.05,5.05,0,0,0-1.69,1.69,2.27,2.27,0,0,1-.32.3,1.5,1.5,0,0,1,.12-.44,5.61,5.61,0,0,1,1.67-1.76"/><path class="cls-4" d="M72.4,507.33A8.94,8.94,0,0,0,71,509.49a.45.45,0,0,1,0-.35,3.61,3.61,0,0,1,.27-.64c.22-.4.46-.78.7-1.18a5.27,5.27,0,0,1-.6.2.67.67,0,0,0-.58.55,4.85,4.85,0,0,0,0,2.21c.58-.92,1.7-1,2.43-1.55l-.8-1.4"/><path class="cls-4" d="M69.2,500.78a.57.57,0,0,0-.49.47,4.45,4.45,0,0,0,0,2.29c.46-.94,1.57-1,2.18-1.57l-.77-1.49L69,502.73c-.19-.24-.19-.24.83-2.16a2.4,2.4,0,0,1-.58.21"/><path class="cls-4" d="M69.57,499.82c.43-.25.8-.44,1.15-.66s.41-.29.1-.71c-.28.17-.29.65-.82.69l.36-.53a1,1,0,0,0,.23-.93,2.85,2.85,0,0,1,0-1.09,6.29,6.29,0,0,1,.31-1,1.94,1.94,0,0,0-1.25,2.29,5.44,5.44,0,0,1,.08,1.28,3.69,3.69,0,0,1-.15.68"/><path class="cls-4" d="M72.32,506.63l-.06,0c-.38.19-.76.39-1.15.55a1.77,1.77,0,0,1-.46.07,2,2,0,0,1,.31-.33,1.36,1.36,0,0,0,.6-1.46,8.3,8.3,0,0,0-1,.75c-.32.31-.58.7-.88,1a.93.93,0,0,1-.26.15l-.09-.12.62-.86h-.41a1.5,1.5,0,0,1,.24-.31,1.17,1.17,0,0,0,.58-.94,3.24,3.24,0,0,0-1.32,3,3.45,3.45,0,0,1,1.84-.75,2.26,2.26,0,0,0,1.41-.73"/><path class="cls-4" d="M77.89,511.88c.07-.09.19-.17.2-.27.09-.58.15-1.17.24-1.76a3,3,0,0,0-2.17-3.43,5.69,5.69,0,0,0-.72-.12c0,.05,0,.09,0,.14s.18.14.27.15A2.7,2.7,0,0,1,78,508.4a4.48,4.48,0,0,1,0,2.38,4.34,4.34,0,0,0-2.18-1.51l-.08.07a1.61,1.61,0,0,0,.28.3c.39.22.82.39,1.19.65a1.39,1.39,0,0,1,.66,1.3,1.08,1.08,0,0,0,.09.29"/><path class="cls-4" d="M64.43,511.92c0-.29.12-.61.19-.92A2.77,2.77,0,0,1,68,508.85c.08,0,.18-.05.28-.08l0-.11-.2-.05a2.94,2.94,0,0,0-3.39,1.57,18.52,18.52,0,0,0-.68,2.66c0,.07.07.16.11.25.05-.07.15-.13.17-.21a1.35,1.35,0,0,1,1-1,9.71,9.71,0,0,1,1.33-.22c.2,0,.38,0,.41-.3a10.65,10.65,0,0,0-1.29.12,12.25,12.25,0,0,0-1.24.44"/><path class="cls-4" d="M77.11,508.76c.14.29.24.6.38.89,0,.08.14.12.21.17s.07-.19,0-.26c-.09-.26-.2-.52-.31-.77a4.88,4.88,0,0,0-1.88-2.14l-.08.08a2,2,0,0,0,.28.36,5,5,0,0,1,1.36,1.67"/><path class="cls-4" d="M64.88,511.13a.76.76,0,0,1,0,.11c.09,0,.21-.05.27-.12a5.61,5.61,0,0,1,2.54-1.83,1.72,1.72,0,0,0,.33-.22,4.57,4.57,0,0,0-3.18,2.06"/><path class="cls-4" d="M75,503.08c0-.08.06-.17,0-.24a11.41,11.41,0,0,0-.53-1.3,1.77,1.77,0,0,0-1.1-1.05,5.22,5.22,0,0,1,.57.71c.3.55.56,1.13.84,1.7,0,.07.13.12.19.18"/><path class="cls-4" d="M69.93,504.43c-.09.3-.19.58-.28.86l.09,0,.7-1.29c-.54.24-1.15.08-1.64.31,0,0,0,.1,0,.14l1.11-.06"/><path class="cls-4" d="M67.19,504.48h1.25l0-.1-.29-.16.26-.5-.12-.06a1.37,1.37,0,0,1-1.15.55c-.06,0-.13.09-.2.14s.14.13.2.13"/><path class="cls-4" d="M74.9,498.33l-1.43-.93c0,.38.93,1.05,1.43.93"/><path class="cls-4" d="M72.57,509.79l-1.49.77c0,.06,0,.11,0,.16a3.42,3.42,0,0,0,1.32-.59c.06,0,.07-.18.13-.34"/><path class="cls-4" d="M70.11,513.68c.22.21.36.59.87.55-.43-.47-.79-.85-1.16-1.24-.12.25-.13.27.29.69"/><path class="cls-4" d="M68.49,500.94l-.89.4.64.55c.09-.34.17-.62.25-.95"/><path class="cls-4" d="M69,503.91c.06,0,.15.06.2,0,.33-.17.66-.34,1-.53.08,0,.1-.18.15-.27l-.06,0c-.39.2-.77.4-1.16.62,0,0-.07.12-.1.18"/><path class="cls-4" d="M70.58,507.7l-.49.12c.08.24.14.45.22.74.11-.33.18-.57.27-.86"/></g><path class="cls-5" d="M44.31,540.83a2.18,2.18,0,0,0-2.25-1.7c-1.45,0-2.59,1.13-2.59,3.2s1.14,3.21,2.59,3.21a2.18,2.18,0,0,0,2.25-1.71h1a3.11,3.11,0,0,1-3.22,2.61c-2.05,0-3.53-1.57-3.53-4.11s1.48-4.1,3.53-4.1a3.11,3.11,0,0,1,3.22,2.6Zm1.89,2.55c0-1.84,1.08-3.12,2.7-3.12,1.25,0,2.58.76,2.58,3v.39H47.13a1.82,1.82,0,0,0,1.87,2,1.47,1.47,0,0,0,1.5-.94l.89.25A2.33,2.33,0,0,1,49,546.46C47.26,546.46,46.2,545.23,46.2,543.38Zm4.35-.53a1.63,1.63,0,0,0-1.65-1.77,1.79,1.79,0,0,0-1.77,1.77Zm3,3.48h-.93v-6h.89v.94h.08a1.77,1.77,0,0,1,1.75-1c1.22,0,2,.73,2,2.26v3.81h-.92v-3.75a1.33,1.33,0,0,0-1.37-1.5,1.49,1.49,0,0,0-1.53,1.65Zm7.89-5.21H60.19v3.5c0,.78.39.9.79.9a2.37,2.37,0,0,0,.41,0l.19.82a1.9,1.9,0,0,1-.69.11,1.54,1.54,0,0,1-1.63-1.54v-3.75h-.9v-.79h.9V538.9h.93v1.43h1.28Zm1.16-.79h.89v.91h.06a1.65,1.65,0,0,1,1.57-1l.48,0v.93a3.43,3.43,0,0,0-.56-.06,1.42,1.42,0,0,0-1.52,1.41v3.79h-.92Zm3.58,3c0-1.88,1.09-3.11,2.72-3.11s2.72,1.23,2.72,3.11-1.1,3.09-2.72,3.09S66.21,545.23,66.21,543.37Zm4.52,0c0-1.21-.57-2.29-1.8-2.29s-1.8,1.08-1.8,2.29.57,2.26,1.8,2.26S70.73,544.57,70.73,543.37Zm4.4,3,2.93-8h1l2.94,8H81l-.81-2.26H77l-.81,2.26Zm4.75-3.12-1.29-3.61h-.06l-1.28,3.61Zm2.73.16c0-1.83,1.08-3.11,2.71-3.11a2.24,2.24,0,0,1,2.37,1.87h-.92a1.41,1.41,0,0,0-1.44-1c-1.08,0-1.8.9-1.8,2.25s.71,2.3,1.8,2.3a1.4,1.4,0,0,0,1.44-1h.92a2.23,2.23,0,0,1-2.36,1.88C83.64,546.46,82.61,545.16,82.61,543.37Zm5.91,1.26c0-1.37,1.21-1.62,2.33-1.76s1.54-.11,1.54-.55v0a1.11,1.11,0,0,0-1.26-1.22,1.61,1.61,0,0,0-1.56.91l-.88-.32a2.44,2.44,0,0,1,2.41-1.4,2,2,0,0,1,2.22,2.12v4h-.93v-.81h0a1.9,1.9,0,0,1-1.78,1A1.86,1.86,0,0,1,88.52,544.63Zm3.87-.47v-.84a4.47,4.47,0,0,1-1.59.34c-.72.1-1.36.32-1.36,1s.53,1,1.27,1A1.54,1.54,0,0,0,92.39,544.16Zm2.1-.81c0-1.89,1.05-3.09,2.56-3.09a1.83,1.83,0,0,1,1.74,1h.08v-3h.92v8H98.9v-.92h-.11A1.85,1.85,0,0,1,97,546.46C95.54,546.46,94.49,545.26,94.49,543.35Zm4.39,0c0-1.34-.59-2.25-1.72-2.25s-1.75,1-1.75,2.25.6,2.3,1.75,2.3S98.88,544.69,98.88,543.33Zm2.21,0c0-1.84,1.08-3.12,2.71-3.12,1.25,0,2.57.76,2.57,3v.39H102a1.82,1.82,0,0,0,1.87,2,1.47,1.47,0,0,0,1.5-.94l.89.25a2.33,2.33,0,0,1-2.39,1.52C102.15,546.46,101.09,545.23,101.09,543.38Zm4.35-.53a1.63,1.63,0,0,0-1.64-1.77,1.79,1.79,0,0,0-1.78,1.77Zm-1.69-4.33-.81,1.1h-.88v-.07l1.27-1.62h.84l1.27,1.62v.07h-.88Zm3.79,1.81h.89v.94h.08a1.61,1.61,0,0,1,1.61-1,1.65,1.65,0,0,1,1.61,1h.06a1.9,1.9,0,0,1,1.8-1c1.07,0,1.83.65,1.83,2.06v4h-.92v-4a1.13,1.13,0,0,0-1.22-1.24,1.26,1.26,0,0,0-1.33,1.35v3.9H111v-4.1a1.11,1.11,0,0,0-1.18-1.15,1.43,1.43,0,0,0-1.36,1.5v3.75h-.93Zm9.14-1.62a.66.66,0,0,1,1.32,0,.66.66,0,0,1-1.32,0Zm.19,1.62h.92v6h-.92Zm2.1,3c0-1.83,1.08-3.11,2.7-3.11a2.24,2.24,0,0,1,2.38,1.87h-.93a1.4,1.4,0,0,0-1.43-1c-1.08,0-1.8.9-1.8,2.25s.7,2.3,1.8,2.3a1.39,1.39,0,0,0,1.43-1h.93a2.23,2.23,0,0,1-2.36,1.88C120,546.46,119,545.16,119,543.37Zm5.9,0c0-1.88,1.1-3.11,2.72-3.11s2.72,1.23,2.72,3.11-1.09,3.09-2.72,3.09S124.87,545.23,124.87,543.37Zm4.52,0c0-1.21-.56-2.29-1.8-2.29s-1.79,1.08-1.79,2.29.56,2.26,1.79,2.26S129.39,544.57,129.39,543.37Zm4.68,0c0-1.89,1.05-3.09,2.56-3.09a1.85,1.85,0,0,1,1.74,1h.08v-3h.92v8h-.89v-.92h-.11a1.87,1.87,0,0,1-1.75,1.05C135.12,546.46,134.07,545.26,134.07,543.35Zm4.39,0c0-1.34-.59-2.25-1.72-2.25s-1.75,1-1.75,2.25.6,2.3,1.75,2.3S138.46,544.69,138.46,543.33Zm2.21,0c0-1.84,1.08-3.12,2.7-3.12,1.25,0,2.58.76,2.58,3v.39H141.6a1.82,1.82,0,0,0,1.87,2,1.47,1.47,0,0,0,1.5-.94l.89.25a2.33,2.33,0,0,1-2.39,1.52C141.73,546.46,140.67,545.23,140.67,543.38Zm4.34-.53a1.63,1.63,0,0,0-1.64-1.77,1.79,1.79,0,0,0-1.77,1.77Zm10.57-2a2.19,2.19,0,0,0-2.25-1.7c-1.46,0-2.6,1.13-2.6,3.2s1.14,3.21,2.6,3.21a2.19,2.19,0,0,0,2.25-1.71h1a3.11,3.11,0,0,1-3.22,2.61c-2.05,0-3.53-1.57-3.53-4.11s1.48-4.1,3.53-4.1a3.11,3.11,0,0,1,3.22,2.6Zm2-2.12a.65.65,0,0,1,.66-.63.64.64,0,0,1,.65.63.64.64,0,0,1-.65.62A.65.65,0,0,1,157.56,538.71Zm.19,1.62h.92v6h-.92Zm2.09,3c0-1.84,1.08-3.12,2.71-3.12,1.25,0,2.57.76,2.57,3v.39h-4.35a1.82,1.82,0,0,0,1.87,2,1.46,1.46,0,0,0,1.5-.94l.89.25a2.33,2.33,0,0,1-2.39,1.52A2.76,2.76,0,0,1,159.84,543.38Zm4.35-.53a1.63,1.63,0,0,0-1.64-1.77,1.79,1.79,0,0,0-1.78,1.77Zm-1.69-4.33-.81,1.1h-.88v-.07l1.27-1.62h.84l1.27,1.62v.07h-.88Zm4.72,7.81h-.92v-6h.89v.94h.07a1.78,1.78,0,0,1,1.75-1c1.22,0,2,.73,2,2.26v3.81h-.93v-3.75a1.33,1.33,0,0,0-1.37-1.5,1.49,1.49,0,0,0-1.53,1.65Zm5-3c0-1.83,1.08-3.11,2.7-3.11a2.24,2.24,0,0,1,2.38,1.87h-.92a1.42,1.42,0,0,0-1.44-1c-1.08,0-1.8.9-1.8,2.25s.7,2.3,1.8,2.3a1.4,1.4,0,0,0,1.44-1h.92a2.23,2.23,0,0,1-2.36,1.88C173.25,546.46,172.22,545.16,172.22,543.37Zm6-4.66a.65.65,0,0,1,.66-.63.64.64,0,0,1,.65.63.64.64,0,0,1-.65.62A.65.65,0,0,1,178.22,538.71Zm.19,1.62h.92v6h-.92Zm2.09,4.3c0-1.37,1.22-1.62,2.33-1.76s1.55-.11,1.55-.55v0a1.12,1.12,0,0,0-1.27-1.22,1.61,1.61,0,0,0-1.56.91l-.88-.32a2.44,2.44,0,0,1,2.41-1.4,2,2,0,0,1,2.22,2.12v4h-.92v-.81h0a1.89,1.89,0,0,1-1.78,1A1.86,1.86,0,0,1,180.5,544.63Zm3.88-.47v-.84a4.59,4.59,0,0,1-1.6.34c-.72.1-1.36.32-1.36,1s.54,1,1.27,1A1.55,1.55,0,0,0,184.38,544.16Zm5-.81c0-1.89,1-3.09,2.56-3.09a1.82,1.82,0,0,1,1.73,1h.08v-3h.92v8h-.89v-.92h-.11a1.85,1.85,0,0,1-1.75,1.05C190.38,546.46,189.34,545.26,189.34,543.35Zm4.39,0c0-1.34-.6-2.25-1.72-2.25s-1.75,1-1.75,2.25.59,2.3,1.75,2.3S193.73,544.69,193.73,543.33Zm2.21,1.3c0-1.37,1.21-1.62,2.32-1.76s1.55-.11,1.55-.55v0a1.12,1.12,0,0,0-1.27-1.22A1.63,1.63,0,0,0,197,542l-.87-.32a2.43,2.43,0,0,1,2.4-1.4,2,2,0,0,1,2.22,2.12v4h-.92v-.81h-.05a1.87,1.87,0,0,1-1.78,1A1.85,1.85,0,0,1,195.94,544.63Zm3.87-.47v-.84a4.53,4.53,0,0,1-1.59.34c-.72.1-1.36.32-1.36,1s.53,1,1.26,1A1.54,1.54,0,0,0,199.81,544.16Zm10.83-3.33a2.17,2.17,0,0,0-2.25-1.7c-1.45,0-2.59,1.13-2.59,3.2s1.14,3.21,2.59,3.21a2.17,2.17,0,0,0,2.25-1.71h1a3.11,3.11,0,0,1-3.22,2.61c-2,0-3.53-1.57-3.53-4.11s1.49-4.1,3.53-4.1a3.11,3.11,0,0,1,3.22,2.6Zm1.89,2.54c0-1.88,1.1-3.11,2.72-3.11s2.72,1.23,2.72,3.11-1.09,3.09-2.72,3.09S212.53,545.23,212.53,543.37Zm4.52,0c0-1.21-.56-2.29-1.8-2.29s-1.79,1.08-1.79,2.29.56,2.26,1.79,2.26S217.05,544.57,217.05,543.37Zm2.1-3H220v.94h.08a1.61,1.61,0,0,1,1.61-1,1.65,1.65,0,0,1,1.61,1h.06a1.9,1.9,0,0,1,1.8-1c1.07,0,1.83.65,1.83,2.06v4h-.93v-4a1.12,1.12,0,0,0-1.21-1.24,1.26,1.26,0,0,0-1.33,1.35v3.9h-.94v-4.1a1.11,1.11,0,0,0-1.19-1.15,1.43,1.43,0,0,0-1.36,1.5v3.75h-.92Zm9.33,0h.89v1h.11a1.82,1.82,0,0,1,1.73-1c1.52,0,2.57,1.2,2.57,3.09s-1.05,3.11-2.55,3.11a1.85,1.85,0,0,1-1.75-1.05h-.08v3.17h-.92Zm2.62,5.3c1.16,0,1.75-1,1.75-2.3s-.57-2.25-1.75-2.25-1.71.91-1.71,2.25S230,545.63,231.1,545.63Zm7.63-5.3h.92v6h-.92v-1h-.06a1.87,1.87,0,0,1-1.78,1.09c-1.13,0-1.94-.73-1.94-2.26v-3.82h.92v3.75a1.31,1.31,0,0,0,1.31,1.44,1.56,1.56,0,0,0,1.55-1.64Zm5,.79h-1.28v3.5c0,.78.39.9.79.9a2.37,2.37,0,0,0,.41,0l.19.82a1.9,1.9,0,0,1-.69.11,1.54,1.54,0,0,1-1.63-1.54v-3.75h-.9v-.79h.9V538.9h.93v1.43h1.28Zm.88,3.51c0-1.37,1.21-1.62,2.33-1.76s1.54-.11,1.54-.55v0a1.11,1.11,0,0,0-1.26-1.22,1.61,1.61,0,0,0-1.56.91l-.88-.32a2.44,2.44,0,0,1,2.41-1.4,2,2,0,0,1,2.22,2.12v4h-.93v-.81h0a1.9,1.9,0,0,1-1.78,1A1.86,1.86,0,0,1,244.6,544.63Zm3.87-.47v-.84a4.47,4.47,0,0,1-1.59.34c-.72.1-1.36.32-1.36,1s.53,1,1.27,1A1.54,1.54,0,0,0,248.47,544.16Zm5.09,2.46a.87.87,0,0,1,.81.92c0,.67-.56,1.14-1.64,1.14l0-.61c.48,0,.84-.14.84-.5s-.25-.45-.84-.5l.13-.65a2.8,2.8,0,0,1-2.26-3c0-1.83,1.08-3.11,2.71-3.11a2.24,2.24,0,0,1,2.37,1.87h-.92a1.41,1.41,0,0,0-1.44-1c-1.08,0-1.8.9-1.8,2.25s.71,2.3,1.8,2.3a1.4,1.4,0,0,0,1.44-1h.92a2.17,2.17,0,0,1-2.06,1.86Zm2.92-2c0-1.37,1.21-1.62,2.33-1.76s1.54-.11,1.54-.55v0a1.11,1.11,0,0,0-1.26-1.22,1.61,1.61,0,0,0-1.56.91l-.88-.32a2.44,2.44,0,0,1,2.41-1.4,2,2,0,0,1,2.22,2.12v4h-.93v-.81h0a1.9,1.9,0,0,1-1.78,1A1.86,1.86,0,0,1,256.48,544.63Zm.72-5a1.24,1.24,0,0,1,1.19-1.35c.59,0,.86.5,1.42.5a.57.57,0,0,0,.53-.6l.7.06a1.2,1.2,0,0,1-1.19,1.33c-.71,0-.82-.5-1.42-.5a.56.56,0,0,0-.51.6Zm3.15,4.58v-.84a4.47,4.47,0,0,1-1.59.34c-.72.1-1.36.32-1.36,1s.53,1,1.27,1A1.54,1.54,0,0,0,260.35,544.16Zm2.1-.79c0-1.88,1.1-3.11,2.72-3.11s2.72,1.23,2.72,3.11-1.09,3.09-2.72,3.09S262.45,545.23,262.45,543.37Zm4.52,0c0-1.21-.56-2.29-1.8-2.29s-1.8,1.08-1.8,2.29.57,2.26,1.8,2.26S267,544.57,267,543.37Zm8.4,0h-3.5v-.85h3.5Zm3.69,3,2.93-8h1l2.94,8h-1l-.81-2.26h-3.23l-.81,2.26Zm4.75-3.12-1.28-3.61h-.07l-1.28,3.61Zm3.94,3.12h-.93v-8h.93Zm1.17-1.7c0-1.37,1.21-1.62,2.33-1.76s1.54-.11,1.54-.55v0a1.11,1.11,0,0,0-1.26-1.22A1.61,1.61,0,0,0,290,542l-.88-.32a2.44,2.44,0,0,1,2.41-1.4,2,2,0,0,1,2.22,2.12v4h-.93v-.81h0a1.9,1.9,0,0,1-1.78,1A1.86,1.86,0,0,1,288.92,544.63Zm3.87-.47v-.84a4.47,4.47,0,0,1-1.59.34c-.72.1-1.36.32-1.36,1s.53,1,1.27,1A1.54,1.54,0,0,0,292.79,544.16Zm3.3,2.17h-.92v-6h.89v.94h.08a1.77,1.77,0,0,1,1.75-1c1.22,0,2,.73,2,2.26v3.81H299v-3.75a1.33,1.33,0,0,0-1.37-1.5,1.5,1.5,0,0,0-1.54,1.65Z"/><polygon class="cls-5" points="303.92 538.34 309.92 538.34 309.92 539.19 307.41 539.19 307.41 546.34 306.44 546.34 306.44 539.19 303.92 539.19 303.92 538.34"/><path class="cls-5" d="M314,540.33h.92v6H314v-1H314a1.87,1.87,0,0,1-1.78,1.09c-1.13,0-1.94-.73-1.94-2.26v-3.82h.92v3.75a1.31,1.31,0,0,0,1.31,1.44,1.56,1.56,0,0,0,1.55-1.64Zm2.38,0h.89v.91h.06a1.64,1.64,0,0,1,1.56-1l.49,0v.93a3.43,3.43,0,0,0-.56-.06,1.42,1.42,0,0,0-1.52,1.41v3.79h-.92Zm3.67-1.62a.65.65,0,0,1,.66-.63.64.64,0,0,1,.65.63.64.64,0,0,1-.65.62A.65.65,0,0,1,320.07,538.71Zm.19,1.62h.92v6h-.92Zm3.3,6h-.92v-6h.89v.94h.07a1.78,1.78,0,0,1,1.75-1c1.22,0,2,.73,2,2.26v3.81h-.93v-3.75a1.33,1.33,0,0,0-1.37-1.5,1.49,1.49,0,0,0-1.53,1.65Zm5.25,1.18.73-.52a1.89,1.89,0,0,0,1.72.91c1,0,1.67-.46,1.67-1.46v-1.21h-.08a1.82,1.82,0,0,1-1.75,1c-1.45,0-2.54-1.06-2.54-2.94s1-3,2.56-3a1.86,1.86,0,0,1,1.75,1H333v-1h.89v6.18c0,1.54-1.15,2.2-2.59,2.2A2.63,2.63,0,0,1,328.81,547.51Zm4.14-4.22c0-1.3-.6-2.21-1.72-2.21s-1.75,1-1.75,2.21.59,2.12,1.75,2.12S333,544.62,333,543.29Z"/><path class="cls-5" d="M38.84,551.53h4.8v.86H39.81v2.71h3.47V556H39.81v3.57h-1Zm11.7,2.5a2.19,2.19,0,0,0-2.25-1.7c-1.46,0-2.6,1.13-2.6,3.2s1.14,3.21,2.6,3.21A2.19,2.19,0,0,0,50.54,557h1a3.11,3.11,0,0,1-3.22,2.61c-2,0-3.53-1.57-3.53-4.11s1.48-4.1,3.53-4.1a3.11,3.11,0,0,1,3.22,2.6Z"/><polygon class="cls-5" points="52.4 551.53 58.4 551.53 58.4 552.39 55.88 552.39 55.88 559.53 54.91 559.53 54.91 552.39 52.4 552.39 52.4 551.53"/><path class="cls-5" d="M62.17,556.53h-3.5v-.85h3.5Zm7.73-5v5.3a3.12,3.12,0,0,1-6.22,0v-5.3h1v5.22a2.14,2.14,0,0,0,4.28,0v-5.22Zm2.5,8h-.92v-6h.89v.94h.08a1.76,1.76,0,0,1,1.75-1c1.21,0,2,.73,2,2.26v3.81h-.92v-3.75a1.33,1.33,0,0,0-1.38-1.5,1.49,1.49,0,0,0-1.53,1.65Zm5-2.95c0-1.84,1.08-3.12,2.7-3.12,1.25,0,2.58.76,2.58,3v.39H78.33a1.82,1.82,0,0,0,1.87,2,1.47,1.47,0,0,0,1.5-.94l.89.25a2.33,2.33,0,0,1-2.39,1.52C78.46,559.66,77.4,558.43,77.4,556.58Zm4.34-.53a1.63,1.63,0,0,0-1.64-1.77,1.79,1.79,0,0,0-1.77,1.77Zm5.54-.94a1.28,1.28,0,0,0-1.3-.86c-.74,0-1.28.38-1.28.89s.32.7,1,.88l.89.22c1.07.26,1.59.79,1.59,1.62,0,1-.95,1.8-2.34,1.8a2.05,2.05,0,0,1-2.28-1.56l.87-.22a1.28,1.28,0,0,0,1.39,1c.86,0,1.41-.42,1.41-.94s-.29-.7-.89-.84l-1-.24c-1.1-.26-1.59-.81-1.59-1.64,0-1,.93-1.73,2.2-1.73a2,2,0,0,1,2.12,1.42Zm2.1-1.58h.89v1h.11a1.82,1.82,0,0,1,1.73-1c1.52,0,2.56,1.2,2.56,3.09s-1,3.11-2.54,3.11a1.85,1.85,0,0,1-1.75-1H90.3v3.17h-.92Zm2.62,5.3c1.16,0,1.75-1,1.75-2.3s-.58-2.25-1.75-2.25-1.72.91-1.72,2.25S90.89,558.83,92,558.83Z"/><polygon class="cls-6" points="666.32 14.27 697.56 14.27 697.93 14.06 666.32 14.27"/><polygon class="cls-6" points="697.56 14.27 666.32 14.27 666.32 32.3 697.56 14.27"/><polygon class="cls-7" points="697.93 50.55 666.32 32.3 666.32 68.8 686.36 57.23 697.93 50.55"/><path class="cls-6" d="M697.93,50.55,666.32,32.3Z"/><path class="cls-6" d="M697.56,14.27l.37-.21Z"/><polygon class="cls-6" points="666.32 32.3 697.56 14.27 697.56 14.27 666.32 32.3"/><polygon class="cls-8" points="697.56 14.27 697.93 14.27 697.93 14.06 697.56 14.27"/><polygon class="cls-8" points="697.56 14.27 666.32 32.3 697.93 50.55 697.93 14.27 697.56 14.27"/><path class="cls-4" d="M697.93,50.55l-11.57,6.68Z"/><path class="cls-9" d="M698.29,14.27l-.36-.21Z"/><path class="cls-9" d="M698.29,14.27l31.24,18Z"/><polygon class="cls-7" points="697.93 14.27 698.29 14.27 697.93 14.06 697.93 14.27"/><polygon class="cls-7" points="697.93 14.27 697.93 50.55 729.53 32.3 698.29 14.27 697.93 14.27"/><path class="cls-7" d="M729.53,32.3l-31.6,18.25Z"/><path class="cls-6" d="M729.53,32.3l-31.6,18.25Z"/><polygon class="cls-6" points="729.53 14.27 698.29 14.27 729.53 32.3 729.53 14.27"/><polygon class="cls-6" points="698.29 14.27 729.53 14.27 697.93 14.06 698.29 14.27"/><path class="cls-7" d="M698.29,14.27l-.36-.21Z"/><polygon class="cls-7" points="698.29 14.27 698.29 14.27 729.53 32.3 698.29 14.27"/><polygon class="cls-4" points="729.53 68.8 729.53 32.3 697.93 50.55 729.53 68.8"/><path class="cls-9" d="M747.78,58.26,729.53,68.8Z"/><polygon class="cls-9" points="729.53 68.8 729.53 68.8 747.78 58.26 761.14 50.55 729.53 32.3 729.53 68.8"/><polygon class="cls-4" points="761.14 50.55 761.14 50.55 792.74 32.3 761.14 50.55"/><polygon class="cls-6" points="761.14 50.55 761.14 50.55 729.53 32.3 761.14 50.55"/><polygon class="cls-6" points="792.74 68.8 792.74 32.3 761.14 50.55 792.74 68.8"/><polygon class="cls-8" points="666.32 68.8 666.32 105.29 697.93 87.04 666.32 68.8"/><path class="cls-4" d="M697.93,87,666.32,68.8Z"/><path class="cls-6" d="M718,62.12l11.57,6.68Z"/><polygon class="cls-9" points="697.93 50.55 697.93 87.05 729.53 68.8 717.96 62.12 697.93 50.55"/><polygon class="cls-6" points="717.96 62.12 729.53 68.8 697.93 50.55 717.96 62.12"/><polygon class="cls-9" points="697.93 50.55 697.93 50.55 717.96 62.12 697.93 50.55"/><path class="cls-6" d="M686.36,57.23l-20,11.57Z"/><polygon class="cls-7" points="686.36 57.23 666.32 68.8 697.93 87.05 697.93 50.55 686.36 57.23"/><polygon class="cls-4" points="729.53 68.8 697.93 87.04 729.53 105.29 729.53 68.8"/><polygon class="cls-8" points="729.53 68.8 729.53 105.29 761.14 87.05 729.53 68.8"/><path class="cls-4" d="M761.14,87,729.53,68.8Z"/><polygon class="cls-9" points="761.14 87.05 761.14 87.05 784.27 73.69 761.14 87.05"/><path class="cls-8" d="M761.14,50.55l31.6,18.25Z"/><polygon class="cls-6" points="761.14 87.05 784.27 73.69 792.74 68.8 761.14 50.55 761.14 87.05"/><polygon class="cls-4" points="729.53 68.8 761.14 50.55 747.78 58.26 729.53 68.8"/><polygon class="cls-7" points="761.14 87.05 761.14 50.55 729.53 68.8 761.14 87.05"/><polygon class="cls-7" points="792.74 68.8 784.27 73.69 761.14 87.04 792.74 105.29 792.74 68.8"/><path class="cls-6" d="M761.14,87l31.6,18.25Z"/><polygon class="cls-6" points="697.93 123.54 666.32 105.29 666.32 141.79 697.93 123.54"/><polygon class="cls-7" points="666.32 105.29 666.32 105.29 697.93 123.54 666.32 105.29"/><polygon class="cls-9" points="729.53 105.29 729.53 105.29 697.93 87.05 729.53 105.29"/><polygon class="cls-6" points="697.93 87.05 697.93 123.54 729.53 105.29 697.93 87.05"/><path class="cls-7" d="M697.93,87l-31.61,18.25Z"/><polygon class="cls-4" points="697.93 87.05 666.32 105.29 697.93 123.54 697.93 87.05"/><polygon class="cls-7" points="697.93 123.54 729.53 141.79 729.53 105.29 697.93 123.54"/><path class="cls-9" d="M697.93,123.54l31.6-18.25Z"/><path class="cls-8" d="M697.93,123.54l31.6,18.25Z"/><polygon class="cls-9" points="729.53 141.79 761.14 123.54 729.53 105.29 729.53 141.79"/><path class="cls-6" d="M761.14,123.54l31.6-18.25Z"/><polygon class="cls-7" points="761.14 123.54 792.74 105.29 761.14 87.04 761.14 123.54"/><polygon class="cls-9" points="761.14 123.54 761.14 87.04 729.53 105.29 761.14 123.54"/><polygon class="cls-7" points="784.27 136.9 792.74 141.79 792.74 105.29 761.14 123.54 784.27 136.9"/><path class="cls-7" d="M784.27,136.9l-23.13-13.36Z"/><polygon class="cls-8" points="697.93 160.03 666.32 141.79 666.32 178.28 697.93 160.03"/><polygon class="cls-4" points="729.53 141.79 697.93 123.54 697.93 160.03 729.53 141.79"/><path class="cls-7" d="M697.93,160l-31.61-18.24Z"/><path class="cls-9" d="M697.93,123.54l-31.61,18.25Z"/><polygon class="cls-6" points="697.93 123.54 666.32 141.79 697.93 160.03 697.93 123.54"/><polygon class="cls-7" points="721.06 173.39 729.53 178.28 729.53 141.79 697.93 160.03 721.06 173.39"/><path class="cls-9" d="M697.93,160l31.6-18.24Z"/><path class="cls-7" d="M697.93,160l23.13,13.36Z"/><polygon class="cls-7" points="742.89 149.5 729.53 141.79 729.53 178.28 761.14 160.03 742.89 149.5"/><polygon class="cls-6" points="761.14 160.03 792.74 141.79 784.27 136.9 761.14 123.54 761.14 160.03"/><path class="cls-6" d="M742.89,149.5,761.14,160Z"/><path class="cls-7" d="M761.14,123.54l-31.61,18.25Z"/><polygon class="cls-6" points="761.14 123.54 729.53 141.79 742.89 149.5 761.14 160.03 761.14 123.54"/><polygon class="cls-4" points="772.71 166.71 792.74 178.28 792.74 141.79 761.14 160.03 772.71 166.71"/><path class="cls-7" d="M761.14,160l31.6-18.24Z"/><path class="cls-6" d="M772.71,166.71,761.14,160Z"/><polygon class="cls-9" points="679.68 185.99 666.32 178.28 666.32 214.78 697.93 196.53 679.68 185.99"/><polygon class="cls-6" points="697.93 196.53 729.53 178.28 721.06 173.39 697.93 160.03 697.93 196.53"/><path class="cls-9" d="M679.68,186l18.25,10.54Z"/><polygon class="cls-7" points="697.93 160.03 697.93 160.03 666.32 178.28 697.93 160.03"/><polygon class="cls-6" points="697.93 160.03 666.32 178.28 679.68 185.99 697.93 196.53 697.93 160.03"/><polygon class="cls-6" points="709.5 203.21 729.53 214.78 729.53 178.28 697.93 196.53 709.5 203.21"/><path class="cls-9" d="M697.93,196.53l31.6-18.25Z"/><path class="cls-7" d="M709.5,203.21l-11.57-6.68Z"/><polygon class="cls-7" points="761.14 196.53 729.53 178.28 729.53 214.78 761.14 196.53"/><polygon class="cls-7" points="729.53 178.28 729.53 178.28 761.14 196.53 729.53 178.28"/><polygon class="cls-7" points="792.74 178.28 792.74 178.28 772.71 166.71 792.74 178.28"/><polygon class="cls-8" points="761.14 196.53 792.74 178.28 772.71 166.71 761.14 160.03 761.14 196.53"/><path class="cls-8" d="M761.14,160l-31.61,18.25Z"/><polygon class="cls-7" points="729.53 178.28 761.14 196.53 761.14 160.03 729.53 178.28"/><polygon class="cls-8" points="792.74 214.78 792.74 178.28 761.14 196.53 792.74 214.78"/><path class="cls-6" d="M761.14,196.53l31.6-18.25Z"/><path class="cls-8" d="M761.14,196.53l31.6,18.25Z"/><polygon class="cls-7" points="666.32 214.78 666.32 251.27 697.93 233.02 666.32 214.78"/><polygon class="cls-9" points="666.32 214.78 666.32 214.78 697.93 233.02 666.32 214.78"/><polygon class="cls-7" points="729.53 214.78 729.53 214.78 709.5 203.21 729.53 214.78"/><polygon class="cls-9" points="697.93 233.02 729.53 214.78 709.5 203.21 697.93 196.53 697.93 233.02"/><path class="cls-4" d="M697.93,196.53l-31.61,18.25Z"/><polygon class="cls-7" points="666.32 214.78 697.93 233.02 697.93 196.53 666.32 214.78"/><polygon class="cls-6" points="666.32 251.27 697.93 269.52 697.93 233.02 666.32 251.27"/><polygon class="cls-4" points="729.53 251.27 729.53 214.78 697.93 233.02 729.53 251.27"/><path class="cls-7" d="M697.93,233l31.6-18.24Z"/><polygon class="cls-6" points="697.93 269.52 729.53 251.27 697.93 233.02 697.93 269.52"/><polygon class="cls-9" points="729.53 214.78 729.53 251.27 761.14 233.02 729.53 214.78"/><polygon class="cls-7" points="792.74 214.78 761.14 196.53 761.14 233.02 792.74 214.78"/><path class="cls-6" d="M761.14,233l-31.61-18.24Z"/><polygon class="cls-9" points="761.14 196.53 761.14 196.53 729.53 214.78 761.14 196.53"/><polygon class="cls-8" points="729.53 214.78 761.14 233.02 761.14 196.53 729.53 214.78"/><polygon class="cls-8" points="729.53 251.27 729.53 251.27 734.42 254.09 761.14 269.52 761.14 233.02 729.53 251.27"/><polygon class="cls-6" points="792.74 251.27 792.74 214.78 761.14 233.02 792.74 251.27"/><path class="cls-4" d="M761.14,233l31.6-18.24Z"/><polygon class="cls-7" points="761.14 233.02 761.14 269.52 792.74 251.27 761.14 233.02"/><polygon class="cls-8" points="697.93 269.52 729.53 287.76 729.53 251.27 697.93 269.52"/><polygon class="cls-7" points="729.53 251.27 729.53 287.77 761.14 269.52 734.42 254.09 729.53 251.27"/><path class="cls-7" d="M729.53,251.27l4.89,2.82Z"/><polygon class="cls-9" points="729.53 14.27 760.77 14.27 761.14 14.06 729.53 14.27"/><polygon class="cls-9" points="760.77 14.27 729.53 14.27 729.53 32.3 760.77 14.27"/><path class="cls-6" d="M760.77,14.27l.37-.21Z"/><polygon class="cls-6" points="760.77 14.27 760.77 14.27 729.53 32.3 760.77 14.27"/><polygon class="cls-9" points="760.77 14.27 729.53 32.3 761.14 50.55 761.14 14.27 760.77 14.27"/><polygon class="cls-9" points="760.77 14.27 761.14 14.27 761.14 14.06 760.77 14.27"/><polygon class="cls-4" points="761.5 14.27 792.74 14.27 761.14 14.06 761.5 14.27"/><polygon class="cls-4" points="792.74 14.27 761.5 14.27 792.74 32.3 792.74 14.27"/><path class="cls-8" d="M761.5,14.27l-.36-.21Z"/><polygon class="cls-8" points="761.5 14.27 761.5 14.27 792.74 32.3 761.5 14.27"/><polygon class="cls-4" points="761.14 14.27 761.5 14.27 761.14 14.06 761.14 14.27"/><polygon class="cls-4" points="761.14 14.27 761.14 50.55 792.74 32.3 761.5 14.27 761.14 14.27"/><g class="cls-10"><path class="cls-11" d="M64.71,57V88.68h-8.3V84.92a11.89,11.89,0,0,1-4.21,3.45,12.43,12.43,0,0,1-5.4,1.15c-3.48,0-6.08-.91-7.82-2.73s-2.6-4.56-2.6-8.19V57h8.47V76.15c0,2.26.38,3.86,1.14,4.83a4.48,4.48,0,0,0,3.75,1.44,6.34,6.34,0,0,0,4.73-1.79,6.66,6.66,0,0,0,1.76-4.88V57Z"/></g><g class="cls-12"><path class="cls-11" d="M166.3,101.4V57.05h8.07v4.29a12.31,12.31,0,0,1,4.09-4.08A10.63,10.63,0,0,1,183.78,56a11.55,11.55,0,0,1,9.49,4.61q3.63,4.62,3.64,12.13c0,5.06-1.22,9.18-3.64,12.33a11.34,11.34,0,0,1-9.38,4.73,11.22,11.22,0,0,1-5.4-1.28,10.82,10.82,0,0,1-4-3.73V101.4Zm22.19-28.34c0-3.18-.61-5.61-1.81-7.29a6,6,0,0,0-5.24-2.52,5.91,5.91,0,0,0-5.14,2.51q-1.76,2.51-1.76,7.3,0,4.5,1.85,6.94a6.19,6.19,0,0,0,5.23,2.45,5.89,5.89,0,0,0,5-2.51,11.45,11.45,0,0,0,1.84-6.88"/></g><g class="cls-13"><path class="cls-11" d="M142.73,79.1A4.19,4.19,0,0,0,144.41,82a8.35,8.35,0,0,0,4.89,1.18,7.45,7.45,0,0,0,3.84-.83A2.61,2.61,0,0,0,154.49,80c0-1.43-1.69-2.52-5.07-3.23-1.38-.29-2.48-.55-3.29-.75-4.12-1.06-7-2.29-8.58-3.73a7.43,7.43,0,0,1-2.4-5.83,9.38,9.38,0,0,1,3.5-7.69q3.51-2.84,9.51-2.84,6.34,0,10,2.82A10.16,10.16,0,0,1,162,66.69h-8.24a3.94,3.94,0,0,0-1.53-3.12,6.47,6.47,0,0,0-4-1.1,7,7,0,0,0-3.59.72,2.41,2.41,0,0,0-1.18,2.19c0,1.26,2.1,2.39,6.32,3.35l2.29.53q6.33,1.48,8.64,3.57A7.57,7.57,0,0,1,163,78.74,9.61,9.61,0,0,1,159.22,87q-3.79,2.82-11.05,2.82-6.57,0-10.26-2.94a9.71,9.71,0,0,1-3.7-7.74Z"/></g><g class="cls-14"><path class="cls-11" d="M110.1,69.55h12.46a7.22,7.22,0,0,0-1.69-4.88A6,6,0,0,0,116.3,63,5.71,5.71,0,0,0,112,64.68a7.87,7.87,0,0,0-1.85,4.87m12.35,9.55h8.44a13.46,13.46,0,0,1-5.16,7.84,15.7,15.7,0,0,1-9.49,2.84,13.72,13.72,0,0,1-10.89-4.61q-4-4.62-4-12.51t4-12.26q4-4.49,10.83-4.48,7.29,0,11.26,4.41t4,12.56c0,.61,0,1.06,0,1.37a7.66,7.66,0,0,1-.08.85H110.1a9.1,9.1,0,0,0,1.82,5.62,5.91,5.91,0,0,0,4.73,1.88,6.73,6.73,0,0,0,3.58-.85,5.87,5.87,0,0,0,2.22-2.66"/></g><g class="cls-15"><path class="cls-11" d="M69.69,88.68V57H78v3.76a11.77,11.77,0,0,1,4.2-3.45,12.44,12.44,0,0,1,5.38-1.15c3.5,0,6.12.9,7.85,2.72S98,63.44,98,67.1V88.68H89.55V69.55c0-2.28-.39-3.9-1.15-4.86a4.46,4.46,0,0,0-3.74-1.47A6.32,6.32,0,0,0,79.92,65a6.74,6.74,0,0,0-1.75,4.88V88.68Z"/></g><g class="cls-16"><path class="cls-17" d="M233.78,56.42,239,47.34H228.55ZM227.45,48l-5.24,9.07h10.47L227.45,48m0,19.41,5.23-9.07H222.21l5.24,9.07M221.12,59,215.88,68h10.47L221.12,59m-1.1-.63H209.55l5.24,9.07L220,58.32M214.79,48l-5.24,9.07H220L214.79,48m1.09-.64,5.24,9.08,5.23-9.08H215.88M221.12,37l-5.24,9.08h10.47L221.12,37m-6.33,8.44L220,36.37H209.55l5.24,9.07M208.46,37l-5.24,9.08h10.47L208.46,37m0,19.42,5.23-9.08H203.22l5.24,9.08L202.13,48l-5.22,9h10.43l-5.21-9,6.33,8.41"/></g><g class="cls-18"><path class="cls-11" d="M189.7,126.92v-1.45h1.53v1.43a1.63,1.63,0,0,1-.43,1.16,1.52,1.52,0,0,1-1.1.5V128a1.07,1.07,0,0,0,.62-.34,1,1,0,0,0,.2-.66v-.07Zm2.41,0v-1.45h1.53v1.43a1.67,1.67,0,0,1-.42,1.16,1.56,1.56,0,0,1-1.11.5V128a1.1,1.1,0,0,0,.62-.34.94.94,0,0,0,.2-.64v-.09h-.82m-11.27,2.59a4.37,4.37,0,0,1,1.06-3.1,4.18,4.18,0,0,1,5.76,0,5,5,0,0,1,0,6.2,4.18,4.18,0,0,1-5.76,0,4.37,4.37,0,0,1-1.06-3.1m1.69,0a3.25,3.25,0,0,0,.59,2.07,2.24,2.24,0,0,0,3.33,0,3.87,3.87,0,0,0,0-4.14,2.26,2.26,0,0,0-3.33,0,3.25,3.25,0,0,0-.59,2.07m-9.68,4v-8.07h1.67v3h3.33v-3h1.67v8.07h-1.67V130h-3.33v3.58h-1.67m-6.51,0v-8.07H168v6.58h3.94v1.49h-5.6M163,125.47h1.66v8.07H163Zm-6.76,8.07v-8.07h5.63v1.4h-4v1.83h3.51v1.41h-3.51v3.43h-1.63m-8.85-8.07h1.92l2.91,8.07h-1.75l-.55-1.66h-3.12l-.53,1.66h-1.75l2.87-8.07m1,1.61-1.11,3.44h2.24l-1.13-3.44m-7.59,6.46v-6.63h-2.4v-1.44h6.44v1.44h-2.38v6.63h-1.66m-5.06-8.07h1.66v8.07h-1.66Zm-8.15,0h1.67v5.06a2.14,2.14,0,0,0,.37,1.37,1.86,1.86,0,0,0,2.38,0,2,2,0,0,0,.38-1.37v-5.06H134v5.24a3,3,0,0,1-.83,2.28,3.31,3.31,0,0,1-2.39.79,3.37,3.37,0,0,1-2.41-.79,3,3,0,0,1-.83-2.28v-5.24m-3.08,7.75a2.83,2.83,0,0,1-1,.42,4.47,4.47,0,0,1-1.19.14,3.7,3.7,0,0,1-2.87-1.15,5,5,0,0,1,0-6.2,4.17,4.17,0,0,1,5.75,0,4.35,4.35,0,0,1,1.07,3.1,5.23,5.23,0,0,1-.22,1.57,3.59,3.59,0,0,1-.65,1.24l.88.84-.9.94-.92-.9m-1.16-1.1-.86-.83.91-.94.88.85a2.65,2.65,0,0,0,.27-.75,4.35,4.35,0,0,0,.09-.92,3.19,3.19,0,0,0-.6-2.07,2,2,0,0,0-1.67-.73,2,2,0,0,0-1.65.73,3.87,3.87,0,0,0,0,4.14,2,2,0,0,0,1.65.74,2.18,2.18,0,0,0,.52-.06,1.93,1.93,0,0,0,.46-.16m-12.42-1h1.63a1.42,1.42,0,0,0,.55,1,2.23,2.23,0,0,0,1.29.32,1.88,1.88,0,0,0,1.09-.26.85.85,0,0,0,.37-.76c0-.49-.7-.89-2.11-1.22h0l-.17,0a5.06,5.06,0,0,1-1.61-.55,1.8,1.8,0,0,1-.65-.74,2.44,2.44,0,0,1-.22-1.09,2.16,2.16,0,0,1,.8-1.81,3.72,3.72,0,0,1,2.31-.62,3.32,3.32,0,0,1,2.21.67,2.44,2.44,0,0,1,.84,1.88h-1.6a1.18,1.18,0,0,0-.44-.89,2,2,0,0,0-1.16-.31,1.71,1.71,0,0,0-1,.26.85.85,0,0,0-.35.72c0,.43.46.75,1.37,1l.59.14c.58.15,1,.27,1.25.35a3.84,3.84,0,0,1,.64.28,1.77,1.77,0,0,1,.74.72,2.22,2.22,0,0,1,.25,1.09,2.36,2.36,0,0,1-.85,1.95,3.7,3.7,0,0,1-2.39.69,3.66,3.66,0,0,1-2.39-.7,2.6,2.6,0,0,1-.93-2m-7,2.49v-8.07h5.86v1.4h-4.22v1.72h3.86V130h-3.86v2.08h4.42v1.49h-6.06m-9.79,0v-8.07h2.46l1.6,6.14,1.59-6.14h2.46v8.07h-1.55V127L99,133.54h-1.7L95.65,127v6.51H94.09m-10.51,0v-8.07h5.86v1.4H85.22v1.72h3.86V130H85.22v2.08h4.42v1.49H83.58m-8.16,0v-8.07h3.16a3.56,3.56,0,0,1,2.77,1,4.38,4.38,0,0,1,.91,3,5.31,5.31,0,0,1-.33,2,3.21,3.21,0,0,1-1,1.36,2.92,2.92,0,0,1-1.1.55,6.91,6.91,0,0,1-1.72.17H75.42m1.63-1.46h1.33a2.09,2.09,0,0,0,1.67-.6,3,3,0,0,0,.52-2,3.33,3.33,0,0,0-.48-2,1.77,1.77,0,0,0-1.51-.63H77.05v5.19m-14-2.57a4.33,4.33,0,0,1,1.07-3.1A3.7,3.7,0,0,1,67,125.26a3.75,3.75,0,0,1,2.88,1.15,5,5,0,0,1,0,6.2A3.75,3.75,0,0,1,67,133.76a3.7,3.7,0,0,1-2.87-1.15,4.33,4.33,0,0,1-1.07-3.1m1.69,0a3.25,3.25,0,0,0,.59,2.07,2.24,2.24,0,0,0,3.33,0,3.87,3.87,0,0,0,0-4.14,2.26,2.26,0,0,0-3.33,0,3.25,3.25,0,0,0-.59,2.07m-4.73-4h1.66v8.07H60Zm-6.56,8.07v-8.07h1.66v6.58H59v1.49H53.43m-3.25-10.81-1.72,2h-.77l1.08-2h1.41m-4.85,2.72H47v5.06a2.08,2.08,0,0,0,.37,1.37,1.5,1.5,0,0,0,1.18.43,1.54,1.54,0,0,0,1.2-.43,2.06,2.06,0,0,0,.38-1.37v-5.06H51.8v5.24A3,3,0,0,1,51,133a4,4,0,0,1-4.8,0,3,3,0,0,1-.84-2.28v-5.24m-6.72,5.08h1.61v1a.8.8,0,0,0,.25.64,1.05,1.05,0,0,0,.72.22.86.86,0,0,0,.72-.27,1.71,1.71,0,0,0,.2-1v-5.62h1.66v5.7a5.13,5.13,0,0,1-.09,1.13,1.67,1.67,0,0,1-.3.63,2,2,0,0,1-.87.62,3.65,3.65,0,0,1-1.3.21,3.76,3.76,0,0,1-1.21-.18,2.18,2.18,0,0,1-.87-.56,1.61,1.61,0,0,1-.4-.66,4.21,4.21,0,0,1-.12-1.2v-.63m-.71-3.64v1.44H36.37v-1.41a1.68,1.68,0,0,1,.43-1.16,1.54,1.54,0,0,1,1.1-.5v.56a1.08,1.08,0,0,0-.62.35,1,1,0,0,0-.2.65v.07h.82m2.41,0v1.44H38.79v-1.41a1.67,1.67,0,0,1,.42-1.16,1.54,1.54,0,0,1,1.1-.5v.56a1.07,1.07,0,0,0-.61.34,1,1,0,0,0-.21.64v.09h.82m-3.94-16.75h1.68v5.07a2,2,0,0,0,.37,1.36,1.49,1.49,0,0,0,1.19.43,1.52,1.52,0,0,0,1.19-.42,2.06,2.06,0,0,0,.38-1.37v-5.07h1.66v5.25a3,3,0,0,1-.83,2.28,3.31,3.31,0,0,1-2.39.79,3.37,3.37,0,0,1-2.41-.79,3,3,0,0,1-.84-2.28v-5.25m8.1,8.1v-8.07h1.74l3.27,5.54v-5.54h1.64v8.07H49.41l-3.3-5.55v5.55H44.47m8.37-8.07H54.5v8.07H52.84Zm5.29,8.07-2.79-8.07h1.84l1.72,6,1.75-6h1.81l-2.74,8.07H58.13m5.11,0v-8.07H69.1v1.4H64.88v1.72h3.86v1.38H64.88v2.08H69.3v1.49H63.24m9-4.54h2a1.43,1.43,0,0,0,.94-.26,1,1,0,0,0,.29-.81,1,1,0,0,0-.29-.8,1.22,1.22,0,0,0-.86-.27h-2v2.14m-1.66,4.54v-8.07h3.91a2.87,2.87,0,0,1,2,.56,2.21,2.21,0,0,1,.64,1.73,2.34,2.34,0,0,1-.31,1.23,1.57,1.57,0,0,1-.9.67,1.36,1.36,0,0,1,.75.57,2.67,2.67,0,0,1,.26,1.2l0,1v0c0,.48.12.78.31.88v.25H75.4a2.08,2.08,0,0,1-.13-.42,4.67,4.67,0,0,1-.06-.6l0-.85a1.58,1.58,0,0,0-.28-1,1.3,1.3,0,0,0-.92-.26H72.23v3.14H70.57m7.64-2.5h1.64a1.4,1.4,0,0,0,.54,1,2.25,2.25,0,0,0,1.3.32,1.9,1.9,0,0,0,1.09-.26.86.86,0,0,0,.37-.76c0-.49-.7-.9-2.11-1.22H81l-.17,0a5.33,5.33,0,0,1-1.61-.55,1.73,1.73,0,0,1-.65-.74,2.47,2.47,0,0,1-.23-1.09,2.17,2.17,0,0,1,.8-1.81,3.76,3.76,0,0,1,2.31-.62,3.4,3.4,0,0,1,2.22.66,2.47,2.47,0,0,1,.84,1.89H82.9a1.16,1.16,0,0,0-.45-.89,1.83,1.83,0,0,0-1.15-.31,1.71,1.71,0,0,0-1,.25.83.83,0,0,0-.35.73c0,.43.46.75,1.37,1l.58.14a11.66,11.66,0,0,1,1.25.35,3,3,0,0,1,.65.28,1.83,1.83,0,0,1,.74.72,2.27,2.27,0,0,1,.25,1.08,2.42,2.42,0,0,1-.85,2,4.45,4.45,0,0,1-4.79,0,2.67,2.67,0,0,1-.93-2m7.91-5.57h1.66v8.07H86.12Zm5,6.61h1.33a2.06,2.06,0,0,0,1.67-.61,3,3,0,0,0,.52-2,3.31,3.31,0,0,0-.48-2,1.77,1.77,0,0,0-1.51-.63H91.14v5.19m-1.63,1.46v-8.07h3.16a3.54,3.54,0,0,1,2.77,1,4.39,4.39,0,0,1,.92,3,5.31,5.31,0,0,1-.34,2,3.19,3.19,0,0,1-1,1.36,3.12,3.12,0,0,1-1.09.55,7,7,0,0,1-1.73.17H89.51m11.08-6.46-1.12,3.44h2.24l-1.12-3.44m-1-1.61h1.92l2.91,8.07h-1.74l-.55-1.66H99l-.53,1.66H96.75l2.87-8.07m7.29,6.61h1.33a2.06,2.06,0,0,0,1.67-.61,3,3,0,0,0,.52-2,3.31,3.31,0,0,0-.48-2,1.77,1.77,0,0,0-1.51-.63h-1.53v5.19m-1.63,1.46v-8.07h3.16a3.56,3.56,0,0,1,2.77,1,4.38,4.38,0,0,1,.91,3,5.31,5.31,0,0,1-.33,2,3.27,3.27,0,0,1-1,1.36,3.08,3.08,0,0,1-1.1.55,6.91,6.91,0,0,1-1.72.17h-2.71m8.16,0v-8.07h5.86v1.4h-4.22v1.72h3.86v1.38h-3.86v2.08h4.42v1.49h-6.06m10.51,0v-8.07h5.86v1.4h-4.22v1.72h3.86v1.38h-3.86v2.08H130v1.49H124m7-2.5h1.64a1.4,1.4,0,0,0,.54,1,2.25,2.25,0,0,0,1.3.32,1.93,1.93,0,0,0,1.09-.26.86.86,0,0,0,.37-.76c0-.49-.71-.9-2.11-1.22h-.05l-.17,0a5.22,5.22,0,0,1-1.61-.55,1.75,1.75,0,0,1-.66-.74,2.61,2.61,0,0,1-.22-1.09,2.17,2.17,0,0,1,.8-1.81,3.72,3.72,0,0,1,2.31-.62,3.35,3.35,0,0,1,2.21.66,2.51,2.51,0,0,1,.85,1.89h-1.6a1.16,1.16,0,0,0-.45-.89,1.86,1.86,0,0,0-1.16-.31,1.68,1.68,0,0,0-1,.25.83.83,0,0,0-.35.73c0,.43.45.75,1.37,1l.58.14a11.66,11.66,0,0,1,1.25.35,3.26,3.26,0,0,1,.65.28,1.9,1.9,0,0,1,.74.72,2.27,2.27,0,0,1,.24,1.08,2.39,2.39,0,0,1-.85,2,4.43,4.43,0,0,1-4.78,0,2.6,2.6,0,0,1-.93-2m9.53,2.5v-6.63H138v-1.44h6.44v1.44H142.1v6.63h-1.66m7.59-6.46-1.11,3.44h2.24L148,111.78m-1-1.61H149l2.91,8.07h-1.75l-.54-1.66h-3.13l-.53,1.66H144.2l2.87-8.07m7.29,6.61h1.33a2.06,2.06,0,0,0,1.67-.61,3,3,0,0,0,.52-2,3.31,3.31,0,0,0-.48-2,1.79,1.79,0,0,0-1.51-.63h-1.53v5.19m-1.63,1.46v-8.07h3.16a3.56,3.56,0,0,1,2.77,1,4.38,4.38,0,0,1,.91,3,5.31,5.31,0,0,1-.33,2,3.36,3.36,0,0,1-1,1.36,3.08,3.08,0,0,1-1.1.55,6.91,6.91,0,0,1-1.72.17h-2.71m8.11-8.1h1.67v5.07a2,2,0,0,0,.38,1.36,1.47,1.47,0,0,0,1.18.43,1.53,1.53,0,0,0,1.2-.42,2.06,2.06,0,0,0,.37-1.37v-5.07h1.66v5.25a3,3,0,0,1-.83,2.28,3.31,3.31,0,0,1-2.39.79,3.37,3.37,0,0,1-2.41-.79,3,3,0,0,1-.83-2.28v-5.25m10.9,1.64-1.12,3.44h2.24l-1.12-3.44m-1-1.61h1.91l2.91,8.07h-1.74l-.55-1.66h-3.13l-.53,1.66H167.9l2.88-8.07m5.66,8.07v-8.07h1.66v6.58H182v1.49h-5.59m11.36-4.34h1.61a1.4,1.4,0,0,0,1-.27,1.2,1.2,0,0,0,.29-.89,1.23,1.23,0,0,0-.29-.88,1.18,1.18,0,0,0-.86-.29h-1.7v2.33m0,1.47v2.87h-1.66v-8.07h3.59a2.61,2.61,0,0,1,1.93.66,2.65,2.65,0,0,1,.65,1.93,2.68,2.68,0,0,1-.64,1.93,2.41,2.41,0,0,1-1.83.68h-2m8.11-3.59-1.12,3.44H197l-1.12-3.44m-1-1.61h1.91l2.91,8.07H198l-.55-1.66h-3.12l-.54,1.66h-1.75l2.88-8.07m5.41,0H202v5.07a2,2,0,0,0,.37,1.36,1.47,1.47,0,0,0,1.18.43,1.53,1.53,0,0,0,1.2-.42,2.06,2.06,0,0,0,.37-1.37v-5.07h1.67v5.25a3,3,0,0,1-.83,2.28,4,4,0,0,1-4.8,0,3,3,0,0,1-.84-2.28v-5.25m8.09,8.1v-8.07h1.67v6.58H214v1.49h-5.6m6.57-8.07h1.66v8.07H215Zm3,5.57h1.64a1.4,1.4,0,0,0,.54,1,2.25,2.25,0,0,0,1.3.32,1.93,1.93,0,0,0,1.09-.26A.88.88,0,0,0,223,116c0-.49-.7-.9-2.11-1.22h0l-.17,0a5.33,5.33,0,0,1-1.61-.55,1.8,1.8,0,0,1-.65-.74,2.47,2.47,0,0,1-.22-1.09,2.15,2.15,0,0,1,.8-1.81,3.72,3.72,0,0,1,2.31-.62,3.37,3.37,0,0,1,2.21.66,2.47,2.47,0,0,1,.84,1.89h-1.59a1.16,1.16,0,0,0-.45-.89,1.86,1.86,0,0,0-1.16-.31,1.68,1.68,0,0,0-1,.25.84.84,0,0,0-.36.73q0,.64,1.38,1l.58.14a11.66,11.66,0,0,1,1.25.35,3.26,3.26,0,0,1,.65.28,1.81,1.81,0,0,1,.73.72,2.16,2.16,0,0,1,.25,1.08,2.39,2.39,0,0,1-.85,2,4.43,4.43,0,0,1-4.78,0,2.6,2.6,0,0,1-.93-2m9.53,2.5v-6.63h-2.4v-1.44h6.43v1.44h-2.37v6.63h-1.66m7.59-6.46L234,115.22h2.24l-1.12-3.44m-1-1.61h1.91l2.91,8.07h-1.74l-.55-1.66H233.6l-.53,1.66h-1.75l2.87-8.07"/></g></g></svg>