<svg xmlns="http://www.w3.org/2000/svg" viewBox="0 0 1920 188"><g id="Layer_9" data-name="Layer 9"><path d="M106.13,151.42A11.86,11.86,0,1,0,118,163.27,11.87,11.87,0,0,0,106.13,151.42Zm0,16.61a4.76,4.76,0,1,1,4.76-4.76A4.76,4.76,0,0,1,106.13,168Z"/><path d="M230.06,151.42a11.86,11.86,0,1,0,11.86,11.85A11.87,11.87,0,0,0,230.06,151.42Zm0,16.61a4.76,4.76,0,1,1,4.76-4.76A4.76,4.76,0,0,1,230.06,168Z"/><path d="M254.79,110.37l-31.69-3.62L206.19,79.27a28.75,28.75,0,0,0-24.34-13.61H124.33A37,37,0,0,0,88.79,92.74l-.45,1.63A23.75,23.75,0,0,1,72,110.83,15.08,15.08,0,0,0,61,125.28v39.31a3.55,3.55,0,0,0,3.55,3.55H82.84a23.79,23.79,0,0,0,46.58,0h77.35a23.8,23.8,0,0,0,46.59,0h19.16a3.56,3.56,0,0,0,3.53-3.15l2.78-24.38A27.36,27.36,0,0,0,254.79,110.37ZM68.14,156.72H83.26a23.55,23.55,0,0,0-.81,4.32H68.14Zm38,23.24a16.69,16.69,0,1,1,16.69-16.69A16.71,16.71,0,0,1,106.13,180Zm123.93,0a16.69,16.69,0,1,1,16.7-16.69A16.71,16.71,0,0,1,230.06,180Zm0-40.48a23.74,23.74,0,0,0-19.46,10.14H147.41a3.55,3.55,0,1,0,0,7.1H207.2a23.56,23.56,0,0,0-.82,4.32H129.82a23.78,23.78,0,0,0-43.16-11.42H68.14V125.28a8,8,0,0,1,5.77-7.62A30.86,30.86,0,0,0,95.18,96.25l.45-1.63a29.85,29.85,0,0,1,28.7-21.86h57.52A21.63,21.63,0,0,1,200.15,83L218,112a3.53,3.53,0,0,0,2.62,1.66l33.4,3.82a20.23,20.23,0,0,1,16.41,12.44H259.31a3.55,3.55,0,1,0,0,7.1h12.58a19.4,19.4,0,0,1-.12,2.84l-1.12,9.81H249.53A23.75,23.75,0,0,0,230.06,139.48ZM253.75,161a23.56,23.56,0,0,0-.82-4.32h16.91l-.49,4.32Z"/><path d="M182,119.28h-7.46a3.55,3.55,0,1,0,0,7.1H182a3.55,3.55,0,1,0,0-7.1Z"/><path d="M134.35,122.83a3.55,3.55,0,0,0-3.55-3.55h-7.46a3.55,3.55,0,1,0,0,7.1h7.46A3.55,3.55,0,0,0,134.35,122.83Z"/><path d="M138.75,151.81a3.55,3.55,0,1,0-1.28,4.29,3.6,3.6,0,0,0,1.28-4.29Z"/><path d="M196.45,85.27a17.24,17.24,0,0,0-14.6-8.17H124.32a25.47,25.47,0,0,0-24.5,18.68l-.45,1.62c-1.17,4.24-3,11.53-3,11.84a3.55,3.55,0,0,0,3.44,4.4H207.55a3.56,3.56,0,0,0,3-5.41Zm-41-1.07v22.34H122.73V84.28c.52,0,1.06-.08,1.59-.08Zm-49.2,15.09.45-1.63a18.37,18.37,0,0,1,9-11.25v20.13h-11.3C104.92,104.17,105.65,101.33,106.22,99.29Zm56.3,7.25V84.2h19.33A10.08,10.08,0,0,1,190.4,89l10.8,17.55Z"/><path d="M329.19,151.42A11.86,11.86,0,1,0,341,163.27,11.87,11.87,0,0,0,329.19,151.42Zm0,16.61a4.76,4.76,0,1,1,4.75-4.76A4.76,4.76,0,0,1,329.19,168Z"/><path d="M453.12,151.42A11.86,11.86,0,1,0,465,163.27,11.86,11.86,0,0,0,453.12,151.42Zm0,16.61a4.76,4.76,0,1,1,4.75-4.76A4.76,4.76,0,0,1,453.12,168Z"/><path d="M477.84,110.37l-31.68-3.62L429.25,79.27A28.75,28.75,0,0,0,404.9,65.66H347.38a37,37,0,0,0-35.54,27.08l-.45,1.63A23.73,23.73,0,0,1,295,110.83a15.07,15.07,0,0,0-11,14.45v39.31a3.55,3.55,0,0,0,3.55,3.55H305.9a23.79,23.79,0,0,0,46.58,0h77.35a23.79,23.79,0,0,0,46.58,0h19.17a3.57,3.57,0,0,0,3.53-3.15l2.78-24.38A27.37,27.37,0,0,0,477.84,110.37ZM291.19,156.72h15.13a23.56,23.56,0,0,0-.82,4.32H291.19Zm38,23.24a16.69,16.69,0,1,1,16.69-16.69A16.71,16.71,0,0,1,329.19,180Zm123.93,0a16.69,16.69,0,1,1,16.69-16.69A16.71,16.71,0,0,1,453.12,180Zm0-40.48a23.77,23.77,0,0,0-19.47,10.14H370.46a3.55,3.55,0,1,0,0,7.1h59.79a23.55,23.55,0,0,0-.81,4.32H352.88a23.78,23.78,0,0,0-43.16-11.42H291.19V125.28a8,8,0,0,1,5.77-7.62,30.88,30.88,0,0,0,21.28-21.41l.45-1.63a29.83,29.83,0,0,1,28.69-21.86H404.9A21.62,21.62,0,0,1,423.2,83L441,112a3.51,3.51,0,0,0,2.62,1.66l33.4,3.82a20.24,20.24,0,0,1,16.41,12.44H482.37a3.55,3.55,0,1,0,0,7.1H495a20.9,20.9,0,0,1-.12,2.84l-1.12,9.81H472.59A23.77,23.77,0,0,0,453.12,139.48ZM476.81,161a23.56,23.56,0,0,0-.82-4.32H492.9l-.49,4.32Z"/><path d="M405.09,119.28h-7.46a3.55,3.55,0,0,0,0,7.1h7.46a3.55,3.55,0,1,0,0-7.1Z"/><path d="M357.4,122.83a3.55,3.55,0,0,0-3.55-3.55h-7.46a3.55,3.55,0,0,0,0,7.1h7.46A3.55,3.55,0,0,0,357.4,122.83Z"/><path d="M361.8,151.81a3.55,3.55,0,1,0-1.27,4.29,3.58,3.58,0,0,0,1.27-4.29C361.71,151.6,361.89,152,361.8,151.81Z"/><path d="M419.51,85.27a17.25,17.25,0,0,0-14.6-8.17H347.38a25.49,25.49,0,0,0-24.51,18.68l-.44,1.62c-1.17,4.24-3,11.53-3.05,11.84a3.55,3.55,0,0,0,3.45,4.4H430.61a3.57,3.57,0,0,0,3.1-1.82,3.53,3.53,0,0,0-.08-3.59Zm-41-1.07v22.34h-32.7V84.28c.53,0,1.06-.08,1.6-.08ZM329.27,99.29l.45-1.63a18.38,18.38,0,0,1,9-11.25v20.13h-11.3C328,104.17,328.71,101.33,329.27,99.29Zm56.31,7.25V84.2h19.33A10.1,10.1,0,0,1,413.46,89l10.79,17.55Z"/><path d="M597.19,151.42A11.86,11.86,0,1,0,609,163.27,11.87,11.87,0,0,0,597.19,151.42Zm0,16.61a4.76,4.76,0,1,1,4.75-4.76A4.76,4.76,0,0,1,597.19,168Z"/><path d="M721.12,151.42A11.86,11.86,0,1,0,733,163.27,11.86,11.86,0,0,0,721.12,151.42Zm0,16.61a4.76,4.76,0,1,1,4.75-4.76A4.76,4.76,0,0,1,721.12,168Z"/><path d="M745.84,110.37l-31.68-3.62L697.25,79.27A28.75,28.75,0,0,0,672.9,65.66H615.38a37,37,0,0,0-35.54,27.08l-.45,1.63A23.73,23.73,0,0,1,563,110.83a15.07,15.07,0,0,0-10.95,14.45v39.31a3.55,3.55,0,0,0,3.55,3.55H573.9a23.79,23.79,0,0,0,46.58,0h77.35a23.79,23.79,0,0,0,46.58,0h19.17a3.57,3.57,0,0,0,3.53-3.15l2.78-24.38A27.37,27.37,0,0,0,745.84,110.37ZM559.19,156.72h15.13a23.56,23.56,0,0,0-.82,4.32H559.19Zm38,23.24a16.69,16.69,0,1,1,16.69-16.69A16.71,16.71,0,0,1,597.19,180Zm123.93,0a16.69,16.69,0,1,1,16.69-16.69A16.71,16.71,0,0,1,721.12,180Zm0-40.48a23.77,23.77,0,0,0-19.47,10.14H638.46a3.55,3.55,0,0,0,0,7.1h59.79a23.55,23.55,0,0,0-.81,4.32H620.88a23.78,23.78,0,0,0-43.16-11.42H559.19V125.28a8,8,0,0,1,5.77-7.62,30.88,30.88,0,0,0,21.28-21.41l.45-1.63a29.83,29.83,0,0,1,28.69-21.86H672.9A21.62,21.62,0,0,1,691.2,83L709,112a3.51,3.51,0,0,0,2.62,1.66l33.4,3.82a20.24,20.24,0,0,1,16.41,12.44H750.37a3.55,3.55,0,1,0,0,7.1H763a20.9,20.9,0,0,1-.12,2.84l-1.12,9.81H740.59A23.77,23.77,0,0,0,721.12,139.48ZM744.81,161a23.56,23.56,0,0,0-.82-4.32H760.9l-.49,4.32Z"/><path d="M673.09,119.28h-7.46a3.55,3.55,0,1,0,0,7.1h7.46a3.55,3.55,0,0,0,0-7.1Z"/><path d="M625.4,122.83a3.55,3.55,0,0,0-3.55-3.55h-7.46a3.55,3.55,0,1,0,0,7.1h7.46A3.55,3.55,0,0,0,625.4,122.83Z"/><path d="M629.8,151.81a3.55,3.55,0,1,0-1.27,4.29,3.58,3.58,0,0,0,1.27-4.29Z"/><path d="M687.51,85.27a17.25,17.25,0,0,0-14.6-8.17H615.38a25.49,25.49,0,0,0-24.51,18.68l-.44,1.62c-1.17,4.24-3,11.53-3,11.84a3.55,3.55,0,0,0,3.45,4.4H698.61a3.57,3.57,0,0,0,3.1-1.82,3.53,3.53,0,0,0-.08-3.59Zm-41-1.07v22.34h-32.7V84.28c.53,0,1.06-.08,1.6-.08ZM597.27,99.29l.45-1.63a18.38,18.38,0,0,1,9-11.25v20.13h-11.3C596,104.17,596.71,101.33,597.27,99.29Zm56.31,7.25V84.2h19.33A10.1,10.1,0,0,1,681.46,89l10.79,17.55Z"/><path d="M253.72,96.55a43,43,0,0,1-6.15-10.76,1.53,1.53,0,0,0-1.84-1.05,1.51,1.51,0,0,0-1,1.84,47.75,47.75,0,0,0,6.92,12.09,1.5,1.5,0,0,0,2.12-2.12Z"/><path d="M262.45,93.45l.48-8.42a1.5,1.5,0,0,0-3,0l-.48,8.42A1.5,1.5,0,0,0,261,95a1.54,1.54,0,0,0,1.5-1.5Z"/><path d="M268.34,102.87l9.34-11.6a1.54,1.54,0,0,0,0-2.12,1.5,1.5,0,0,0-2.12,0l-9.35,11.6a1.56,1.56,0,0,0,0,2.12,1.51,1.51,0,0,0,2.13,0Z"/><path d="M1047.85,150.89a11.86,11.86,0,1,0,11.86,11.85A11.86,11.86,0,0,0,1047.85,150.89Zm0,16.61a4.76,4.76,0,1,1,4.75-4.76A4.76,4.76,0,0,1,1047.85,167.5Z"/><path d="M1171.78,150.89a11.86,11.86,0,1,0,11.86,11.85A11.86,11.86,0,0,0,1171.78,150.89Zm0,16.61a4.76,4.76,0,1,1,4.75-4.76A4.76,4.76,0,0,1,1171.78,167.5Z"/><path d="M1196.5,109.85l-31.68-3.62-16.91-27.49a28.77,28.77,0,0,0-24.34-13.61H1066a37,37,0,0,0-35.54,27.08l-.45,1.63a23.73,23.73,0,0,1-16.35,16.46,15.08,15.08,0,0,0-11,14.46v39.3a3.55,3.55,0,0,0,3.55,3.55h18.26a23.79,23.79,0,0,0,46.58,0h77.35a23.79,23.79,0,0,0,46.58,0h19.17a3.57,3.57,0,0,0,3.53-3.15l2.78-24.37A27.36,27.36,0,0,0,1196.5,109.85Zm-186.65,46.34H1025a23.73,23.73,0,0,0-.82,4.32h-14.31Zm38,23.25a16.7,16.7,0,1,1,16.69-16.7A16.71,16.71,0,0,1,1047.85,179.44Zm123.93,0a16.7,16.7,0,1,1,16.69-16.7A16.71,16.71,0,0,1,1171.78,179.44Zm0-40.49a23.77,23.77,0,0,0-19.47,10.14h-63.19a3.55,3.55,0,1,0,0,7.1h59.79a23.71,23.71,0,0,0-.81,4.32h-76.56a23.78,23.78,0,0,0-43.16-11.42h-18.53V124.76a8,8,0,0,1,5.77-7.63,30.88,30.88,0,0,0,21.28-21.4l.45-1.64A29.83,29.83,0,0,1,1066,72.23h57.53a21.62,21.62,0,0,1,18.29,10.23l17.82,29a3.57,3.57,0,0,0,2.62,1.67l33.4,3.81a20.24,20.24,0,0,1,16.41,12.44H1201a3.55,3.55,0,1,0,0,7.1h12.58a20.83,20.83,0,0,1-.12,2.84l-1.12,9.81h-21.12A23.77,23.77,0,0,0,1171.78,139Zm23.69,21.56a23.73,23.73,0,0,0-.82-4.32h16.91l-.49,4.32Z"/><path d="M1123.75,118.75h-7.46a3.55,3.55,0,1,0,0,7.1h7.46a3.55,3.55,0,0,0,0-7.1Z"/><path d="M1076.07,122.3a3.55,3.55,0,0,0-3.56-3.55h-7.46a3.55,3.55,0,1,0,0,7.1h7.46A3.55,3.55,0,0,0,1076.07,122.3Z"/><path d="M1080.46,151.28a3.55,3.55,0,1,0-1.27,4.29,3.58,3.58,0,0,0,1.27-4.29C1080.37,151.07,1080.55,151.5,1080.46,151.28Z"/><path d="M1138.17,84.74a17.24,17.24,0,0,0-14.6-8.17H1066a25.49,25.49,0,0,0-24.51,18.68l-.44,1.63c-1.17,4.24-3,11.52-3,11.83a3.56,3.56,0,0,0,3.45,4.4h107.78a3.55,3.55,0,0,0,3-5.41Zm-41-1.07V106h-32.7V83.75c.53,0,1.06-.08,1.6-.08Zm-49.2,15.09.44-1.63a18.34,18.34,0,0,1,9-11.24V106H1046C1046.64,103.64,1047.37,100.8,1047.94,98.76Zm56.3,7.25V83.67h19.33a10.11,10.11,0,0,1,8.55,4.79l10.8,17.55Z"/><path d="M997.46,125a268.26,268.26,0,0,1-53.5,2.85c-1.93-.09-1.92,2.91,0,3a271.87,271.87,0,0,0,54.3-3c1.9-.3,1.09-3.19-.8-2.89Z"/><path d="M986.58,139.65l-55.18,5.27c-1.91.18-1.93,3.18,0,3l55.18-5.27c1.91-.18,1.93-3.18,0-3Z"/><path d="M967,158l-45.43,2.9c-1.92.12-1.94,3.12,0,3L967,161c1.91-.12,1.93-3.12,0-3Z"/><path d="M252,60.25a60,60,0,0,0,1.33,13.81,1.5,1.5,0,1,0,2.89-.8,56.88,56.88,0,0,1-1.22-13c0-1.93-3-1.93-3,0Z"/><path d="M275,62.65l-2.38,11.83a1.54,1.54,0,0,0,1.05,1.85,1.51,1.51,0,0,0,1.84-1l2.38-11.83a1.53,1.53,0,0,0-1.05-1.84,1.5,1.5,0,0,0-1.84,1Z"/><path d="M289.77,81.17a60.07,60.07,0,0,0,11.67-11.79,1.5,1.5,0,0,0-.54-2,1.54,1.54,0,0,0-2,.54,54.54,54.54,0,0,1-10.6,10.7,1.56,1.56,0,0,0-.53,2.06,1.51,1.51,0,0,0,2,.54Z"/><path d="M238.51,72.78a45.1,45.1,0,0,0-6.42-10.17,1.51,1.51,0,0,0-2.12,0,1.53,1.53,0,0,0,0,2.12,43,43,0,0,1,5.95,9.56,1.5,1.5,0,1,0,2.59-1.51Z"/><path d="M1576,151.38a11.86,11.86,0,1,0,11.85,11.86A11.87,11.87,0,0,0,1576,151.38Zm0,16.61a4.75,4.75,0,1,1,4.75-4.75A4.76,4.76,0,0,1,1576,168Z"/><path d="M1699.9,151.38a11.86,11.86,0,1,0,11.85,11.86A11.87,11.87,0,0,0,1699.9,151.38Zm0,16.61a4.75,4.75,0,1,1,4.75-4.75A4.76,4.76,0,0,1,1699.9,168Z"/><path d="M1724.62,110.34l-31.68-3.62L1676,79.23a28.78,28.78,0,0,0-24.35-13.6h-57.52a37,37,0,0,0-35.54,27.07l-.45,1.64a23.73,23.73,0,0,1-16.36,16.45,15.09,15.09,0,0,0-10.94,14.46v39.3a3.55,3.55,0,0,0,3.55,3.55h18.25a23.8,23.8,0,0,0,46.59,0h77.35a23.79,23.79,0,0,0,46.58,0h19.16a3.54,3.54,0,0,0,3.53-3.14l2.78-24.38A27.35,27.35,0,0,0,1724.62,110.34ZM1538,156.69h15.13a23.62,23.62,0,0,0-.82,4.31H1538Zm38,23.24a16.69,16.69,0,1,1,16.69-16.69A16.71,16.71,0,0,1,1576,179.93Zm123.93,0a16.69,16.69,0,1,1,16.69-16.69A16.71,16.71,0,0,1,1699.9,179.93Zm0-40.49a23.78,23.78,0,0,0-19.47,10.15h-63.19a3.55,3.55,0,1,0,0,7.1H1677a23.62,23.62,0,0,0-.82,4.31h-76.56a23.78,23.78,0,0,0-43.15-11.41H1538V125.25a7.94,7.94,0,0,1,5.77-7.62A30.88,30.88,0,0,0,1565,96.22l.45-1.63a29.83,29.83,0,0,1,28.69-21.86h57.52A21.62,21.62,0,0,1,1670,83l17.81,29a3.54,3.54,0,0,0,2.62,1.67l33.4,3.82a20.23,20.23,0,0,1,16.42,12.44h-11.09a3.55,3.55,0,0,0,0,7.1h12.59a22.72,22.72,0,0,1-.12,2.84l-1.12,9.81h-21.12A23.78,23.78,0,0,0,1699.9,139.44ZM1723.58,161a23.61,23.61,0,0,0-.81-4.31h16.91l-.5,4.31Z"/><path d="M1651.87,119.24h-7.46a3.55,3.55,0,1,0,0,7.1h7.46a3.55,3.55,0,1,0,0-7.1Z"/><path d="M1604.18,122.79a3.55,3.55,0,0,0-3.55-3.55h-7.46a3.55,3.55,0,0,0,0,7.1h7.46A3.55,3.55,0,0,0,1604.18,122.79Z"/><path d="M1608.58,151.78a3.55,3.55,0,1,0-1.28,4.29,3.58,3.58,0,0,0,1.28-4.29Z"/><path d="M1666.28,85.23a17.24,17.24,0,0,0-14.6-8.16h-57.52a25.49,25.49,0,0,0-24.51,18.67l-.45,1.63c-1.16,4.24-3,11.52-3,11.83a3.56,3.56,0,0,0,3.45,4.41h107.77a3.56,3.56,0,0,0,3-5.42Zm-41-1.06V106.5h-32.69V84.24c.53,0,1.06-.07,1.6-.07Zm-49.2,15.08.45-1.63a18.3,18.3,0,0,1,9-11.24V106.5h-11.3C1574.76,104.14,1575.49,101.3,1576.05,99.25Zm56.3,7.25V84.17h19.33a10.08,10.08,0,0,1,8.55,4.78L1671,106.5Z"/><path d="M183.43,44.65c10.56-.16,19.78-8.73,20.95-19.17a1.51,1.51,0,0,0-1.5-1.5,12.18,12.18,0,0,0-10,6.57,11.53,11.53,0,0,0-1.36,6c.15,2,1,4.07.87,6.12-.22,2.55-3.2,1.94-5,1.69a82.25,82.25,0,0,1-8.11-1.55A67.53,67.53,0,0,1,164,37.34c-2.74-1.44-8.85-6.32-5.54-9.79H156.3a161.8,161.8,0,0,1,27.49,29.54,1.53,1.53,0,0,0,2.36.3,46.7,46.7,0,0,0,13.25-38.8,1.51,1.51,0,0,0-1.89-1.44,65.82,65.82,0,0,0-33.94,24.3l2.8.76L166.22,21,164,22.25A60.41,60.41,0,0,1,184.18,39c1,1.33,2.69-.19,2.5-1.46A121.06,121.06,0,0,0,183.32,22a1.5,1.5,0,0,0-2.2-.89A111.62,111.62,0,0,0,155.6,45.75c-.72,1,.27,2.23,1.3,2.26,10.84.33,18.79-13.15,13.39-22.5a1.51,1.51,0,0,0-2.74.36,32.34,32.34,0,0,0,11,31.47,1.52,1.52,0,0,0,2.56-1.06,26.46,26.46,0,0,1,7.16-17.39c1.32-1.41-.79-3.53-2.12-2.12a29.61,29.61,0,0,0-8,19.51l2.56-1.06a29.4,29.4,0,0,1-10.28-28.56L167.7,27c4.3,7.44-2.26,18.25-10.8,18l1.29,2.25a107,107,0,0,1,24.44-23.57l-2.2-.9a124.17,124.17,0,0,1,3.36,15.51l2.51-1.46a62.56,62.56,0,0,0-20.82-17.18,1.52,1.52,0,0,0-2.26,1.3l.15,21.25a1.51,1.51,0,0,0,2.79.76A62.49,62.49,0,0,1,198.3,20l-1.9-1.45A43.91,43.91,0,0,1,184,55.27l2.36.31a164.53,164.53,0,0,0-28-30.15,1.53,1.53,0,0,0-2.12,0c-3.42,3.59-1.2,8.33,1.85,11.33,3.78,3.74,9.26,5.55,14.21,7.18a81.47,81.47,0,0,0,8.86,2.38,44.82,44.82,0,0,0,8.68,1.29c2.36,0,4.62-1.08,5.3-3.47.62-2.18-.11-4.48-.5-6.63A9.18,9.18,0,0,1,202.88,27l-1.5-1.5c-1,8.8-9.16,16-17.95,16.17-1.93,0-1.94,3,0,3Z"/></g></svg>