<svg id="Layer_1" data-name="Layer 1" xmlns="http://www.w3.org/2000/svg" viewBox="0 0 2249 857"><defs><style>.cls-1{fill:#fff;}.cls-2{fill:#ffde59;}</style></defs><path class="cls-1" d="M30.65,20.47l75.29,109.32h.37V20.47h12.3V149.7H104.86L29.56,40.38H29.2V149.7H16.89V20.47Z"/><path class="cls-1" d="M144.68,70.79A26.66,26.66,0,0,1,152.55,61a33.49,33.49,0,0,1,11.67-5.61,57.21,57.21,0,0,1,14.85-1.81,65,65,0,0,1,12.31,1.18,29.72,29.72,0,0,1,11,4.43,24.2,24.2,0,0,1,8,9.14q3.08,5.88,3.08,15.3v49.59q0,6.89,6.69,6.88a8.67,8.67,0,0,0,3.62-.73V149c-1.33.24-2.5.42-3.53.54a34.44,34.44,0,0,1-3.89.18,17.18,17.18,0,0,1-7-1.18,9.38,9.38,0,0,1-4.07-3.34,12.5,12.5,0,0,1-1.9-5.16,44.51,44.51,0,0,1-.45-6.61h-.36a78.09,78.09,0,0,1-6.25,8.06,31,31,0,0,1-7.06,5.88,32.61,32.61,0,0,1-8.87,3.62,48.76,48.76,0,0,1-11.85,1.27,47,47,0,0,1-12.22-1.54,27.5,27.5,0,0,1-9.95-4.89,23.33,23.33,0,0,1-6.7-8.51,28.28,28.28,0,0,1-2.44-12.22q0-9.76,4.34-15.29a27.48,27.48,0,0,1,11.49-8.42A66.39,66.39,0,0,1,169.2,97.3q9-1.17,18.19-2.26a63.24,63.24,0,0,0,6.34-.91,11,11,0,0,0,4.52-1.9,8.79,8.79,0,0,0,2.81-3.71,16,16,0,0,0,1-6.15,20.75,20.75,0,0,0-1.9-9.5A14.91,14.91,0,0,0,194.9,67a21.19,21.19,0,0,0-7.78-3,52.85,52.85,0,0,0-9.5-.82q-10.86,0-17.74,5.16T152.64,84.9h-11.4A37.87,37.87,0,0,1,144.68,70.79Zm57,27.87a6.49,6.49,0,0,1-4.16,2.89,41.12,41.12,0,0,1-5.43,1.27q-7.24,1.28-14.93,2.26a83.13,83.13,0,0,0-14,3,27.48,27.48,0,0,0-10.41,5.7q-4.06,3.72-4.07,10.59a16.53,16.53,0,0,0,1.72,7.69,18.52,18.52,0,0,0,4.61,5.8,20.45,20.45,0,0,0,6.7,3.71,24.56,24.56,0,0,0,7.78,1.26,39.13,39.13,0,0,0,12.49-2A30.64,30.64,0,0,0,192.37,135a27.53,27.53,0,0,0,9.68-21.54V98.66Z"/><path class="cls-2" d="M16.55,239.12h23v76.55q0,6.61.65,13.43a30.46,30.46,0,0,0,3.68,12.24,23.41,23.41,0,0,0,9.2,8.92q6.16,3.5,17.38,3.5t17.39-3.5a23.41,23.41,0,0,0,9.2-8.92,30.62,30.62,0,0,0,3.68-12.24q.64-6.81.65-13.43V239.12h23v84.09q0,12.71-3.87,22.08A42.5,42.5,0,0,1,109.57,361a45.66,45.66,0,0,1-17,9.47,73.43,73.43,0,0,1-22.08,3.13,73.53,73.53,0,0,1-22.08-3.13,45.58,45.58,0,0,1-17-9.47,42.41,42.41,0,0,1-10.95-15.74q-3.87-9.37-3.87-22.08Z"/><path class="cls-2" d="M150,239.12h24.29l60,96.79h.37V239.12h21.9V370.5H232.2l-59.8-96.6h-.55v96.6H150Z"/><path class="cls-2" d="M283.72,239.12h23V370.5h-23Z"/><path class="cls-2" d="M320,239.12h23.92l32.94,104h.37l33.67-104h23.37L389.33,370.5H363.76Z"/><path class="cls-2" d="M447.29,239.12h94.58V259H470.29v34.41h66.24v18.76H470.29v38.46h72.87V370.5H447.29Z"/><path class="cls-2" d="M563.21,239.12H626q21.72,0,32.57,9.39t10.86,26.13q0,9.38-2.76,15.54a33.83,33.83,0,0,1-6.44,9.94,25.11,25.11,0,0,1-7.27,5.43q-3.58,1.65-5.24,2.21v.36A23.67,23.67,0,0,1,654,310a18.81,18.81,0,0,1,6.35,4.7,25.61,25.61,0,0,1,4.88,8.37,37,37,0,0,1,1.93,12.88A116.16,116.16,0,0,0,668.92,357q1.74,9.48,5.43,13.52H649.69a21.47,21.47,0,0,1-3-9.38c-.3-3.44-.46-6.75-.46-9.94a94.39,94.39,0,0,0-1.1-15.55A27.19,27.19,0,0,0,641,324.78a17.15,17.15,0,0,0-8-6.35,35.34,35.34,0,0,0-13-2H586.21V370.5h-23Zm23,59.8h37.72q11,0,16.74-5.24T646.38,278a24.44,24.44,0,0,0-1.84-10.21,14.94,14.94,0,0,0-5.06-6.17,18.63,18.63,0,0,0-7.36-2.94,48.86,48.86,0,0,0-8.56-.74H586.21Z"/><path class="cls-2" d="M707.83,326.71a29.38,29.38,0,0,0,2.58,12.88,23.23,23.23,0,0,0,7.17,8.74,30.59,30.59,0,0,0,10.59,5,51.18,51.18,0,0,0,13,1.56A41.52,41.52,0,0,0,754,353.11a25.88,25.88,0,0,0,8.65-4.51,16.33,16.33,0,0,0,4.78-6.34,19,19,0,0,0,1.47-7.27q0-7.55-3.4-11.13a19.36,19.36,0,0,0-7.46-5.06,156.9,156.9,0,0,0-16.28-4.88q-9.3-2.3-22.91-6a48.81,48.81,0,0,1-14.07-5.8,33.53,33.53,0,0,1-8.93-8,28.22,28.22,0,0,1-4.69-9.38,37.65,37.65,0,0,1-1.38-10.12,34.21,34.21,0,0,1,4.14-17.21,36.87,36.87,0,0,1,10.95-12.05,48.09,48.09,0,0,1,15.45-7.08,67.54,67.54,0,0,1,17.49-2.3,68.71,68.71,0,0,1,19.41,2.67,47.78,47.78,0,0,1,16,8,39.29,39.29,0,0,1,10.94,13.16,38.84,38.84,0,0,1,4,18.12h-23q-.91-12.69-8.65-17.94t-19.69-5.25a43.37,43.37,0,0,0-8.28.83,26.44,26.44,0,0,0-7.72,2.76,17,17,0,0,0-5.8,5.25,14.19,14.19,0,0,0-2.3,8.28q0,7,4.32,10.95a28,28,0,0,0,11.32,6l5.8,1.57q5.06,1.38,11.31,3l12.24,3.21c4,1.05,6.84,1.82,8.55,2.3a38.6,38.6,0,0,1,11.23,5.53,35.3,35.3,0,0,1,8,8,33.28,33.28,0,0,1,4.79,9.66,35.37,35.37,0,0,1,1.56,10.3q0,11-4.51,18.86a38.11,38.11,0,0,1-11.87,12.79,51.44,51.44,0,0,1-16.74,7.27,80.25,80.25,0,0,1-19.13,2.3,78.81,78.81,0,0,1-21.17-2.76,49.52,49.52,0,0,1-17.29-8.46,41.52,41.52,0,0,1-11.78-14.63q-4.41-8.92-4.6-21.07Z"/><path class="cls-2" d="M812,239.12h23V370.5H812Z"/><path class="cls-2" d="M863.13,239.12h54.46q15.09,0,26.13,5.16a48.46,48.46,0,0,1,18,14.07,60.16,60.16,0,0,1,10.4,20.89,97.89,97.89,0,0,1,0,51.15,60.2,60.2,0,0,1-10.4,20.88,48.49,48.49,0,0,1-18,14.08q-11,5.14-26.13,5.15H863.13Zm23,112.61h22.63q13.43,0,22-3.59a32.17,32.17,0,0,0,13.43-9.93,35.78,35.78,0,0,0,6.62-14.91,98.56,98.56,0,0,0,0-37,35.8,35.8,0,0,0-6.62-14.9,32.11,32.11,0,0,0-13.43-9.94q-8.57-3.59-22-3.59H886.13Z"/><path class="cls-2" d="M1031.12,239.12h24.47l50.6,131.38h-24.66l-12.32-34.78h-52.44l-12.33,34.78H980.7Zm-8.1,79.13h40.11l-19.68-56.49h-.56Z"/><path class="cls-2" d="M1118.7,239.12h54.47q15.07,0,26.12,5.16a48.58,48.58,0,0,1,18,14.07,60.15,60.15,0,0,1,10.39,20.89,97.89,97.89,0,0,1,0,51.15,60.18,60.18,0,0,1-10.39,20.88,48.6,48.6,0,0,1-18,14.08q-11,5.14-26.12,5.15H1118.7Zm23,112.61h22.63q13.44,0,22-3.59a32.17,32.17,0,0,0,13.43-9.93,35.93,35.93,0,0,0,6.63-14.91,99.11,99.11,0,0,0,0-37,35.94,35.94,0,0,0-6.63-14.9,32.11,32.11,0,0,0-13.43-9.94q-8.55-3.59-22-3.59H1141.7Z"/><path class="cls-2" d="M1251.55,239.12h94.57V259h-71.57v34.41h66.24v18.76h-66.24v38.46h72.86V370.5h-95.86Z"/><path class="cls-2" d="M1418.62,239.12h58q14,0,22.81,4A36.11,36.11,0,0,1,1513,253.29a34.47,34.47,0,0,1,6.53,13.25,56.07,56.07,0,0,1,1.75,13.25,55,55,0,0,1-1.75,13.16A34.49,34.49,0,0,1,1513,306.1q-4.79,6.07-13.62,10t-22.81,3.95h-35V370.5h-23Zm23,62.2h33.67a29.82,29.82,0,0,0,7.91-1.11,22.44,22.44,0,0,0,7.45-3.59,18.3,18.3,0,0,0,5.52-6.62,22.73,22.73,0,0,0,2.12-10.4,27,27,0,0,0-1.84-10.67,17,17,0,0,0-5-6.71,17.76,17.76,0,0,0-7.18-3.41,39.07,39.07,0,0,0-8.64-.92h-34Z"/><path class="cls-2" d="M1539.87,239.12h23v76.55q0,6.61.65,13.43a30.46,30.46,0,0,0,3.68,12.24,23.34,23.34,0,0,0,9.2,8.92q6.15,3.5,17.38,3.5t17.39-3.5a23.41,23.41,0,0,0,9.2-8.92,30.62,30.62,0,0,0,3.68-12.24q.65-6.81.65-13.43V239.12h23v84.09q0,12.71-3.87,22.08A42.53,42.53,0,0,1,1632.88,361a45.54,45.54,0,0,1-17,9.47,79.44,79.44,0,0,1-44.16,0,45.62,45.62,0,0,1-17-9.47,42.5,42.5,0,0,1-10.94-15.74q-3.87-9.37-3.87-22.08Zm60.72-39h24.84l-26.13,26.31H1584Z"/><path class="cls-2" d="M1674.19,239.12H1738q17.65,0,28.33,8.1T1777,271.69a29.26,29.26,0,0,1-4.87,17,31.3,31.3,0,0,1-13.89,11V300q12.13,2.58,18.4,11.5t6.25,22.35a37.64,37.64,0,0,1-2.76,14.45,29.44,29.44,0,0,1-8.64,11.59,43.73,43.73,0,0,1-15.09,7.73,74.51,74.51,0,0,1-21.9,2.85h-60.35Zm23,55h37.53a20.58,20.58,0,0,0,13.81-4.69q5.52-4.69,5.51-13.53,0-9.93-5-14t-14.36-4.05h-37.53Zm0,57.59h40.66q10.49,0,16.29-5.43t5.79-15.36q0-9.75-5.79-15t-16.29-5.25h-40.66Z"/><path class="cls-2" d="M1803.72,239.12h23V350.63h66.8V370.5h-89.8Z"/><path class="cls-2" d="M1909.34,239.12h23V370.5h-23Z"/><path class="cls-2" d="M2049.18,280.89a46.38,46.38,0,0,0-4-10.48,29.36,29.36,0,0,0-6.62-8.29,29.67,29.67,0,0,0-9.48-5.42,37.48,37.48,0,0,0-12.6-1.94A36.84,36.84,0,0,0,1998.3,259a35.55,35.55,0,0,0-12.42,11.31,51,51,0,0,0-7.08,16.1,74.75,74.75,0,0,0,0,36.8,50.93,50.93,0,0,0,7.08,16.1,35.48,35.48,0,0,0,12.42,11.32,36.84,36.84,0,0,0,18.13,4.23,32.63,32.63,0,0,0,13.61-2.67,30.11,30.11,0,0,0,10.12-7.36,34.59,34.59,0,0,0,6.63-10.95,52.83,52.83,0,0,0,3.13-13.43h22.44A62.32,62.32,0,0,1,2067.3,342a52.85,52.85,0,0,1-11.68,16.84,51.54,51.54,0,0,1-17.3,10.94,59.81,59.81,0,0,1-21.89,3.87A61.94,61.94,0,0,1,1990,368.2a58.19,58.19,0,0,1-19.78-14.81,66.14,66.14,0,0,1-12.42-21.9,84,84,0,0,1,0-53.17,66.24,66.24,0,0,1,12.42-21.9,59.21,59.21,0,0,1,19.78-14.9,61.08,61.08,0,0,1,26.41-5.52,69.68,69.68,0,0,1,20.79,3,53.68,53.68,0,0,1,17.2,8.84,45.68,45.68,0,0,1,12,14.07,49,49,0,0,1,5.71,18.95Z"/><path class="cls-2" d="M2128.48,239.12H2153l50.6,131.38H2178.9l-12.33-34.78h-52.44L2101.8,370.5h-23.74Zm-8.1,79.13h40.12l-19.69-56.49h-.55Z"/><path class="cls-1" d="M2235.38,370.5a32.31,32.31,0,0,1-1,8,28.14,28.14,0,0,1-3,7.37,23.51,23.51,0,0,1-5.06,6,18.17,18.17,0,0,1-7.08,3.69v-7.92a8.37,8.37,0,0,0,3.86-2.76,19.27,19.27,0,0,0,2.76-4.51,21.59,21.59,0,0,0,1.57-5.15,18.62,18.62,0,0,0,.27-4.69h-7.72V351h15.45Z"/><path class="cls-1" d="M26.12,494.3v16.11h.37a27.33,27.33,0,0,1,11.58-13.66,34,34,0,0,1,18.28-5.16,46.25,46.25,0,0,1,16.38,2.53,26.16,26.16,0,0,1,10.59,7.15,26.75,26.75,0,0,1,5.61,11.32,63.42,63.42,0,0,1,1.63,15V587.7H79.16V529.42a54.29,54.29,0,0,0-1.09-11.13,23.47,23.47,0,0,0-3.8-9,18.3,18.3,0,0,0-7.33-6,26.92,26.92,0,0,0-11.49-2.18,29,29,0,0,0-12.22,2.45,26.48,26.48,0,0,0-9,6.69,30.75,30.75,0,0,0-5.79,10.14,41.22,41.22,0,0,0-2.27,12.76V587.7H14.72V494.3Z"/><path class="cls-1" d="M114.45,508.79a26.66,26.66,0,0,1,7.87-9.78A33.45,33.45,0,0,1,134,493.4a57.08,57.08,0,0,1,14.84-1.81,65,65,0,0,1,12.31,1.18,29.72,29.72,0,0,1,11,4.43,24.11,24.11,0,0,1,8,9.14q3.07,5.88,3.08,15.3v49.59q0,6.88,6.7,6.88a8.66,8.66,0,0,0,3.61-.73V587c-1.32.24-2.5.42-3.52.54a34.75,34.75,0,0,1-3.9.18,17.1,17.1,0,0,1-7-1.18,9.41,9.41,0,0,1-4.08-3.34,12.64,12.64,0,0,1-1.9-5.16,44.51,44.51,0,0,1-.45-6.61h-.36a76.73,76.73,0,0,1-6.25,8.06,31,31,0,0,1-7.06,5.88A32.67,32.67,0,0,1,150.2,589a48.84,48.84,0,0,1-11.86,1.27,47,47,0,0,1-12.22-1.54,27.5,27.5,0,0,1-10-4.89,23.33,23.33,0,0,1-6.7-8.51A28.28,28.28,0,0,1,107,563.08q0-9.76,4.34-15.29a27.45,27.45,0,0,1,11.5-8.42A66.19,66.19,0,0,1,139,535.3q9-1.17,18.19-2.26a63.24,63.24,0,0,0,6.34-.91,10.89,10.89,0,0,0,4.52-1.9,8.71,8.71,0,0,0,2.81-3.71,16,16,0,0,0,1-6.15,20.74,20.74,0,0,0-1.91-9.5,15,15,0,0,0-5.24-5.89,21.31,21.31,0,0,0-7.79-3,52.85,52.85,0,0,0-9.5-.82q-10.86,0-17.74,5.16t-7.24,16.56H111A37.87,37.87,0,0,1,114.45,508.79Zm57,27.87a6.49,6.49,0,0,1-4.16,2.89,41.12,41.12,0,0,1-5.43,1.27q-7.25,1.27-14.93,2.26a83.13,83.13,0,0,0-14,3,27.55,27.55,0,0,0-10.41,5.7q-4.06,3.72-4.07,10.59a16.53,16.53,0,0,0,1.72,7.69,18.41,18.41,0,0,0,4.62,5.8,20.3,20.3,0,0,0,6.69,3.71,24.63,24.63,0,0,0,7.79,1.26,39.11,39.11,0,0,0,12.48-2A30.64,30.64,0,0,0,162.14,573a27.58,27.58,0,0,0,9.69-21.54V536.66Zm3.35-70.95a21.17,21.17,0,0,1-3.08,5.52,15.21,15.21,0,0,1-4.61,4,12.59,12.59,0,0,1-6.34,1.54,20.1,20.1,0,0,1-7.05-1.27,51.48,51.48,0,0,1-6.52-2.9q-3.08-1.62-5.79-2.89a12.13,12.13,0,0,0-5.07-1.27,10.12,10.12,0,0,0-6.88,2.36c-1.81,1.56-2.71,3.86-2.71,6.87H119.7a23.06,23.06,0,0,1,1.63-6.33,21.64,21.64,0,0,1,3.25-5.52,15.71,15.71,0,0,1,4.89-4,13.24,13.24,0,0,1,6.34-1.54,20.92,20.92,0,0,1,7.24,1.26c2.29.85,4.43,1.75,6.42,2.72l5.61,2.71a11.74,11.74,0,0,0,5.16,1.27q4.17,0,6.25-2.53a17.51,17.51,0,0,0,3.16-6.16h6.88A32.78,32.78,0,0,1,174.81,465.71Z"/><path class="cls-1" d="M264.41,495.57a41.3,41.3,0,0,1,13.84,10.68,46.23,46.23,0,0,1,8.51,15.66,64.32,64.32,0,0,1,0,38.19,46.18,46.18,0,0,1-8.51,15.65,40.07,40.07,0,0,1-13.84,10.59,47.82,47.82,0,0,1-37.83,0,40,40,0,0,1-13.85-10.59,46.18,46.18,0,0,1-8.51-15.65,64.53,64.53,0,0,1,0-38.19,46.23,46.23,0,0,1,8.51-15.66,41.24,41.24,0,0,1,13.85-10.68,46.94,46.94,0,0,1,37.83,0Zm-33.22,9.05a31.44,31.44,0,0,0-10.22,9,41.07,41.07,0,0,0-6.16,12.76,52.07,52.07,0,0,0,0,29.14A40.86,40.86,0,0,0,221,568.33a31.21,31.21,0,0,0,10.22,9,31.44,31.44,0,0,0,28.6,0,31.35,31.35,0,0,0,10.23-9,41.06,41.06,0,0,0,6.15-12.76,52.07,52.07,0,0,0,0-29.14A41.27,41.27,0,0,0,270,513.67a31.58,31.58,0,0,0-10.23-9,31.44,31.44,0,0,0-28.6,0Z"/><path class="cls-1" d="M374.54,503.9v83.8h-11.4V503.9H347.21v-9.6h15.93v-8.5a62.27,62.27,0,0,1,.91-11,21.33,21.33,0,0,1,3.44-8.69,16.56,16.56,0,0,1,7-5.61,27.74,27.74,0,0,1,11.32-2c1.69,0,3.26.06,4.7.18s3.08.3,4.89.54V469c-1.57-.24-3-.45-4.34-.63a29.72,29.72,0,0,0-4-.27,14.71,14.71,0,0,0-7.24,1.45,8.91,8.91,0,0,0-3.71,3.89,14.84,14.84,0,0,0-1.35,5.7c-.13,2.17-.19,4.53-.19,7.06v8.14H393v9.6Z"/><path class="cls-1" d="M406.22,508.79a26.66,26.66,0,0,1,7.87-9.78,33.45,33.45,0,0,1,11.68-5.61,57.08,57.08,0,0,1,14.84-1.81,65,65,0,0,1,12.31,1.18,29.72,29.72,0,0,1,11,4.43,24.2,24.2,0,0,1,8,9.14q3.07,5.88,3.08,15.3v49.59q0,6.88,6.7,6.88a8.66,8.66,0,0,0,3.61-.73V587c-1.32.24-2.5.42-3.52.54a34.75,34.75,0,0,1-3.9.18,17.1,17.1,0,0,1-7-1.18,9.35,9.35,0,0,1-4.08-3.34A12.64,12.64,0,0,1,465,578a44.51,44.51,0,0,1-.45-6.61h-.36a78.09,78.09,0,0,1-6.25,8.06,31,31,0,0,1-7.06,5.88A32.67,32.67,0,0,1,442,589a48.84,48.84,0,0,1-11.86,1.27,47,47,0,0,1-12.22-1.54,27.5,27.5,0,0,1-9.95-4.89,23.33,23.33,0,0,1-6.7-8.51,28.28,28.28,0,0,1-2.44-12.22q0-9.76,4.34-15.29a27.48,27.48,0,0,1,11.49-8.42,66.39,66.39,0,0,1,16.11-4.07q9-1.17,18.19-2.26a63.24,63.24,0,0,0,6.34-.91,10.89,10.89,0,0,0,4.52-1.9,8.79,8.79,0,0,0,2.81-3.71,16,16,0,0,0,1-6.15,20.75,20.75,0,0,0-1.9-9.5,15,15,0,0,0-5.24-5.89,21.31,21.31,0,0,0-7.79-3,52.85,52.85,0,0,0-9.5-.82q-10.86,0-17.74,5.16t-7.24,16.56h-11.4A37.87,37.87,0,0,1,406.22,508.79Zm57,27.87a6.49,6.49,0,0,1-4.16,2.89,41.12,41.12,0,0,1-5.43,1.27q-7.25,1.27-14.93,2.26a83.13,83.13,0,0,0-14,3,27.55,27.55,0,0,0-10.41,5.7q-4.06,3.72-4.07,10.59a16.53,16.53,0,0,0,1.72,7.69,18.41,18.41,0,0,0,4.62,5.8,20.3,20.3,0,0,0,6.69,3.71,24.61,24.61,0,0,0,7.78,1.26,39.13,39.13,0,0,0,12.49-2A30.64,30.64,0,0,0,453.91,573a27.53,27.53,0,0,0,9.68-21.54V536.66Z"/><path class="cls-1" d="M567.67,578.11v9.59h-78v-9.23l61-74.57H493.82v-9.6h71.32v8.15l-61.73,75.66Z"/><path class="cls-1" d="M590,556.84a35.19,35.19,0,0,0,5.52,11.86,31.53,31.53,0,0,0,9.6,8.68,26.72,26.72,0,0,0,13.93,3.44q12.49,0,19.55-6.51t9.78-17.38h11.4q-3.63,15.93-13.31,24.62t-27.42,8.69q-11,0-19.09-3.9a35.06,35.06,0,0,1-13.12-10.67,46.55,46.55,0,0,1-7.52-15.75A71.61,71.61,0,0,1,576.9,541a67.85,67.85,0,0,1,2.44-18.1,48.55,48.55,0,0,1,7.52-15.83A37.65,37.65,0,0,1,600,495.84q8.06-4.24,19.09-4.25,11.22,0,19.19,4.53A38.09,38.09,0,0,1,651.2,508a49.2,49.2,0,0,1,7.15,16.83,73.87,73.87,0,0,1,1.81,19.28H588.3A50.42,50.42,0,0,0,590,556.84ZM646.49,522a34,34,0,0,0-5.88-10.59,29.06,29.06,0,0,0-9.23-7.42,26.42,26.42,0,0,0-12.31-2.81A26.85,26.85,0,0,0,606.58,504a29.17,29.17,0,0,0-9.23,7.42,37.17,37.17,0,0,0-6.06,10.68,52.05,52.05,0,0,0-3,12.4h60.46A41.07,41.07,0,0,0,646.49,522Z"/><path class="cls-1" d="M686,494.3v15.75h.55a35.68,35.68,0,0,1,11.85-13.57q7.34-4.89,18.73-4.89a31.81,31.81,0,0,1,16.75,4.53,22.19,22.19,0,0,1,10,13.75,28.65,28.65,0,0,1,12.31-13.75,35.2,35.2,0,0,1,17.38-4.53q30.95,0,31,32.76V587.7H793.19V524.89q0-11.58-4.88-17.64t-17.2-6.07A24.45,24.45,0,0,0,758.8,504,21.64,21.64,0,0,0,751,511.5,31.94,31.94,0,0,0,747,522.27a65.4,65.4,0,0,0-1.18,12.58V587.7h-11.4V524.35a38.87,38.87,0,0,0-1-9,20.85,20.85,0,0,0-3.25-7.42,15.48,15.48,0,0,0-6.07-5,21.42,21.42,0,0,0-9.23-1.81,28.21,28.21,0,0,0-12.58,2.63,23.19,23.19,0,0,0-8.69,7.24,32,32,0,0,0-5,10.86A53.85,53.85,0,0,0,687,535.57V587.7H675.54V494.3Z"/><path class="cls-1" d="M884.69,495.57a41.44,41.44,0,0,1,13.85,10.68,46.38,46.38,0,0,1,8.5,15.66,64.32,64.32,0,0,1,0,38.19,46.33,46.33,0,0,1-8.5,15.65,40.2,40.2,0,0,1-13.85,10.59,47.82,47.82,0,0,1-37.83,0A40.11,40.11,0,0,1,833,575.75a46,46,0,0,1-8.5-15.65,64.32,64.32,0,0,1,0-38.19,46,46,0,0,1,8.5-15.66,41.34,41.34,0,0,1,13.85-10.68,46.94,46.94,0,0,1,37.83,0Zm-33.22,9.05a31.44,31.44,0,0,0-10.22,9,41.07,41.07,0,0,0-6.16,12.76,52.07,52.07,0,0,0,0,29.14,40.86,40.86,0,0,0,6.16,12.76,31.21,31.21,0,0,0,10.22,9,31.44,31.44,0,0,0,28.6,0,31.35,31.35,0,0,0,10.23-9,40.84,40.84,0,0,0,6.15-12.76,51.83,51.83,0,0,0,0-29.14,41.05,41.05,0,0,0-6.15-12.76,31.58,31.58,0,0,0-10.23-9,31.44,31.44,0,0,0-28.6,0Z"/><path class="cls-1" d="M980.71,512.5a18.52,18.52,0,0,0-5.34-6.43,22.43,22.43,0,0,0-7.69-3.71,35.42,35.42,0,0,0-9.23-1.18,37.76,37.76,0,0,0-7.7.82,24,24,0,0,0-7.15,2.71,15.47,15.47,0,0,0-5.25,5,13.78,13.78,0,0,0-2,7.6,10.71,10.71,0,0,0,1.9,6.43,16.85,16.85,0,0,0,4.8,4.43,30.05,30.05,0,0,0,6.34,3c2.29.78,4.4,1.42,6.33,1.9l15.2,3.44a43.84,43.84,0,0,1,9.69,2.62,31.38,31.38,0,0,1,8.5,5,24.31,24.31,0,0,1,6.07,7.6,22.86,22.86,0,0,1,2.35,10.68,23.39,23.39,0,0,1-3.44,12.94,28,28,0,0,1-8.78,8.69,37.45,37.45,0,0,1-12,4.8,62.79,62.79,0,0,1-13.21,1.45q-16.49,0-26.7-7.79t-11.68-25h11.41q.72,11.6,8.41,17.47t19.1,5.88a43.11,43.11,0,0,0,8.59-.9,27.42,27.42,0,0,0,8.24-3.08,19.85,19.85,0,0,0,6.25-5.52,13.66,13.66,0,0,0,2.44-8.24,13.15,13.15,0,0,0-1.72-7,15,15,0,0,0-4.62-4.71,29.27,29.27,0,0,0-6.6-3.17q-3.72-1.26-7.51-2.17L951,542.81a81,81,0,0,1-10.31-3.35,32.88,32.88,0,0,1-8.24-4.7,19.79,19.79,0,0,1-5.52-6.88,22.7,22.7,0,0,1-2-10,22.43,22.43,0,0,1,3.17-12.12,24.76,24.76,0,0,1,8.23-8.15A38.44,38.44,0,0,1,947.68,493a54.43,54.43,0,0,1,12.4-1.45,46,46,0,0,1,13.12,1.81A30.33,30.33,0,0,1,983.88,499a27.62,27.62,0,0,1,7.33,9.41,33.85,33.85,0,0,1,3.07,13.22h-11.4A21.41,21.41,0,0,0,980.71,512.5Z"/><path class="cls-1" d="M1075.73,458.47V512h.36a27.26,27.26,0,0,1,5.16-8.87,32.93,32.93,0,0,1,7.69-6.42,34,34,0,0,1,9.42-3.89,41.29,41.29,0,0,1,10.13-1.27,40.65,40.65,0,0,1,18.55,4,38.2,38.2,0,0,1,13.13,10.77,45.91,45.91,0,0,1,7.78,15.75,72,72,0,0,1,0,37.83,45.91,45.91,0,0,1-7.78,15.75A37.16,37.16,0,0,1,1127,586.34a41.3,41.3,0,0,1-18.55,3.9,39.6,39.6,0,0,1-20.36-5.25,30.07,30.07,0,0,1-12.94-15h-.36V587.7h-10.5V458.47Zm61.63,68.14a40,40,0,0,0-5.43-12.76,30,30,0,0,0-9.5-9.14,26.32,26.32,0,0,0-13.94-3.53q-9,0-15.29,3.53a30.4,30.4,0,0,0-10.14,9.14,37.77,37.77,0,0,0-5.61,12.76,61.06,61.06,0,0,0,0,28.78,37.69,37.69,0,0,0,5.61,12.76,30.29,30.29,0,0,0,10.14,9.14q6.24,3.54,15.29,3.53a26.23,26.23,0,0,0,13.94-3.53,29.84,29.84,0,0,0,9.5-9.14,39.9,39.9,0,0,0,5.43-12.76,61.06,61.06,0,0,0,0-28.78Z"/><path class="cls-1" d="M1170.57,508.79a26.68,26.68,0,0,1,7.88-9.78,33.49,33.49,0,0,1,11.67-5.61,57.08,57.08,0,0,1,14.84-1.81,64.89,64.89,0,0,1,12.31,1.18,29.65,29.65,0,0,1,11,4.43,24.22,24.22,0,0,1,8,9.14q3.08,5.88,3.07,15.3v49.59q0,6.88,6.7,6.88a8.71,8.71,0,0,0,3.62-.73V587c-1.33.24-2.5.42-3.53.54a34.44,34.44,0,0,1-3.89.18,17.15,17.15,0,0,1-7-1.18,9.32,9.32,0,0,1-4.07-3.34,12.5,12.5,0,0,1-1.9-5.16,44.51,44.51,0,0,1-.45-6.61h-.37a76.7,76.7,0,0,1-6.24,8.06,31.21,31.21,0,0,1-7.06,5.88,32.74,32.74,0,0,1-8.87,3.62,48.76,48.76,0,0,1-11.85,1.27,47,47,0,0,1-12.22-1.54,27.62,27.62,0,0,1-10-4.89,23.41,23.41,0,0,1-6.69-8.51,28.28,28.28,0,0,1-2.45-12.22q0-9.76,4.35-15.29a27.35,27.35,0,0,1,11.49-8.42,66.39,66.39,0,0,1,16.11-4.07q9-1.17,18.19-2.26a63,63,0,0,0,6.33-.91,10.93,10.93,0,0,0,4.53-1.9,8.79,8.79,0,0,0,2.81-3.71,16,16,0,0,0,1-6.15,20.75,20.75,0,0,0-1.9-9.5,15.06,15.06,0,0,0-5.25-5.89,21.26,21.26,0,0,0-7.78-3,52.93,52.93,0,0,0-9.5-.82q-10.86,0-17.74,5.16t-7.24,16.56h-11.4A37.87,37.87,0,0,1,1170.57,508.79Zm57,27.87a6.49,6.49,0,0,1-4.16,2.89,41.87,41.87,0,0,1-5.43,1.27q-7.24,1.27-14.94,2.26a83,83,0,0,0-14,3,27.4,27.4,0,0,0-10.41,5.7q-4.08,3.72-4.07,10.59a16.53,16.53,0,0,0,1.72,7.69,18.52,18.52,0,0,0,4.61,5.8,20.35,20.35,0,0,0,6.7,3.71,24.56,24.56,0,0,0,7.78,1.26,39.17,39.17,0,0,0,12.49-2,30.73,30.73,0,0,0,10.41-5.79A27.53,27.53,0,0,0,1228,551.5V536.66Z"/><path class="cls-1" d="M1273.74,458.47V587.7h-11.4V458.47Z"/><path class="cls-1" d="M1307.05,458.47V512h.36a26.91,26.91,0,0,1,5.16-8.87,32.73,32.73,0,0,1,7.69-6.42,33.93,33.93,0,0,1,9.41-3.89,41.43,41.43,0,0,1,10.14-1.27,40.68,40.68,0,0,1,18.55,4,38.17,38.17,0,0,1,13.12,10.77,45.93,45.93,0,0,1,7.79,15.75,72,72,0,0,1,0,37.83,45.93,45.93,0,0,1-7.79,15.75,37.13,37.13,0,0,1-13.12,10.67,41.33,41.33,0,0,1-18.55,3.9,39.6,39.6,0,0,1-20.36-5.25,30.08,30.08,0,0,1-13-15h-.36V587.7h-10.5V458.47Zm61.63,68.14a40,40,0,0,0-5.43-12.76,30.05,30.05,0,0,0-9.5-9.14,26.34,26.34,0,0,0-13.94-3.53q-9.06,0-15.3,3.53a30.27,30.27,0,0,0-10.13,9.14,37.38,37.38,0,0,0-5.61,12.76,61.06,61.06,0,0,0,0,28.78,37.3,37.3,0,0,0,5.61,12.76,30.16,30.16,0,0,0,10.13,9.14q6.26,3.54,15.3,3.53a26.25,26.25,0,0,0,13.94-3.53,30,30,0,0,0,9.5-9.14,39.9,39.9,0,0,0,5.43-12.76,61.06,61.06,0,0,0,0-28.78Z"/><path class="cls-1" d="M1464.7,587.7V570.87h-.37a32.36,32.36,0,0,1-13.12,14.39,37.4,37.4,0,0,1-19.09,5,41.55,41.55,0,0,1-15.12-2.45,25.12,25.12,0,0,1-10.13-7,28,28,0,0,1-5.7-11,55.38,55.38,0,0,1-1.81-14.84V494.3h11.4v60.82q.36,12.68,5.88,19.19t19.1,6.51a24.11,24.11,0,0,0,12.67-3.16,26.83,26.83,0,0,0,8.68-8.42,37.58,37.58,0,0,0,5.07-12,58.87,58.87,0,0,0,1.63-13.84V494.3h11.4v93.4Zm-38.19-106.43,19-25.52h14.12l-23.89,25.52Z"/><path class="cls-1" d="M1507.23,494.3v21.91h.36a35.8,35.8,0,0,1,13.49-17.56q9.14-6.15,21.81-5.61v11.4a34.43,34.43,0,0,0-14.12,2.08,31.23,31.23,0,0,0-18.1,17.74,36,36,0,0,0-2.54,13.67V587.7h-11.4V494.3Z"/><path class="cls-1" d="M1622.16,587.7V570h-.36a26.82,26.82,0,0,1-5.34,8.33,34.53,34.53,0,0,1-8,6.42,42,42,0,0,1-9.69,4.08,37.82,37.82,0,0,1-10.22,1.45,41.3,41.3,0,0,1-18.55-3.9,37.16,37.16,0,0,1-13.13-10.67,45.91,45.91,0,0,1-7.78-15.75,72,72,0,0,1,0-37.83,45.91,45.91,0,0,1,7.78-15.75A38.2,38.2,0,0,1,1570,495.57a43.95,43.95,0,0,1,28.77-2.71,34.2,34.2,0,0,1,9.33,3.89,33.14,33.14,0,0,1,7.69,6.42,27.26,27.26,0,0,1,5.16,8.87h.36V458.47h11.4V587.7Zm-62.53-32.31a39.46,39.46,0,0,0,5.43,12.76,29.84,29.84,0,0,0,9.5,9.14,26.23,26.23,0,0,0,13.94,3.53q9,0,15.29-3.53a30.2,30.2,0,0,0,10.14-9.14,37.69,37.69,0,0,0,5.61-12.76,61.06,61.06,0,0,0,0-28.78,37.77,37.77,0,0,0-5.61-12.76,30.3,30.3,0,0,0-10.14-9.14q-6.24-3.52-15.29-3.53a26.32,26.32,0,0,0-13.94,3.53,30,30,0,0,0-9.5,9.14,39.55,39.55,0,0,0-5.43,12.76,61.06,61.06,0,0,0,0,28.78Z"/><path class="cls-1" d="M1666,458.47v18.28h-11.4V458.47Zm0,35.83v93.4h-11.4V494.3Z"/><path class="cls-1" d="M1690.22,508.79a26.66,26.66,0,0,1,7.87-9.78,33.45,33.45,0,0,1,11.68-5.61,57.08,57.08,0,0,1,14.84-1.81,65,65,0,0,1,12.31,1.18,29.72,29.72,0,0,1,11,4.43,24.2,24.2,0,0,1,8,9.14q3.07,5.88,3.08,15.3v49.59q0,6.88,6.7,6.88a8.66,8.66,0,0,0,3.61-.73V587c-1.32.24-2.5.42-3.52.54a34.75,34.75,0,0,1-3.9.18,17.1,17.1,0,0,1-7-1.18,9.35,9.35,0,0,1-4.08-3.34A12.64,12.64,0,0,1,1749,578a44.51,44.51,0,0,1-.45-6.61h-.36a78.09,78.09,0,0,1-6.25,8.06,31,31,0,0,1-7.06,5.88A32.67,32.67,0,0,1,1726,589a48.84,48.84,0,0,1-11.86,1.27,47,47,0,0,1-12.22-1.54,27.5,27.5,0,0,1-10-4.89,23.33,23.33,0,0,1-6.7-8.51,28.28,28.28,0,0,1-2.44-12.22q0-9.76,4.34-15.29a27.48,27.48,0,0,1,11.49-8.42,66.39,66.39,0,0,1,16.11-4.07q9-1.17,18.19-2.26a63.24,63.24,0,0,0,6.34-.91,10.89,10.89,0,0,0,4.52-1.9,8.79,8.79,0,0,0,2.81-3.71,16,16,0,0,0,1-6.15,20.75,20.75,0,0,0-1.9-9.5,15,15,0,0,0-5.24-5.89,21.31,21.31,0,0,0-7.79-3,52.85,52.85,0,0,0-9.5-.82q-10.86,0-17.74,5.16t-7.24,16.56h-11.4A37.87,37.87,0,0,1,1690.22,508.79Zm57,27.87a6.49,6.49,0,0,1-4.16,2.89,41.12,41.12,0,0,1-5.43,1.27q-7.25,1.27-14.93,2.26a83.13,83.13,0,0,0-14,3,27.55,27.55,0,0,0-10.41,5.7q-4.07,3.72-4.07,10.59a16.53,16.53,0,0,0,1.72,7.69,18.41,18.41,0,0,0,4.62,5.8,20.3,20.3,0,0,0,6.69,3.71,24.61,24.61,0,0,0,7.78,1.26,39.13,39.13,0,0,0,12.49-2,30.64,30.64,0,0,0,10.41-5.79,27.53,27.53,0,0,0,9.68-21.54V536.66Z"/><path class="cls-1" d="M1803.7,587.7a31.79,31.79,0,0,1-1,7.87,27.36,27.36,0,0,1-3,7.24,23.21,23.21,0,0,1-5,5.89,18.07,18.07,0,0,1-7,3.62v-7.79a8.27,8.27,0,0,0,3.8-2.71,19.54,19.54,0,0,0,2.71-4.44,21,21,0,0,0,1.54-5.06,18.06,18.06,0,0,0,.27-4.62h-7.6V568.52h15.2Z"/><path class="cls-1" d="M32.46,721.1v83.8H21.05V721.1H5.13v-9.6H21.05V703A62.27,62.27,0,0,1,22,692a21.47,21.47,0,0,1,3.44-8.69,16.59,16.59,0,0,1,7-5.61,27.65,27.65,0,0,1,11.31-2q2.53,0,4.71.18c1.44.12,3.07.3,4.88.54v9.77c-1.57-.24-3-.45-4.34-.63a29.68,29.68,0,0,0-4-.27,14.71,14.71,0,0,0-7.24,1.45A8.8,8.8,0,0,0,34,690.6a14.84,14.84,0,0,0-1.36,5.7c-.12,2.17-.18,4.53-.18,7.06v8.14H50.92v9.6Z"/><path class="cls-1" d="M64.13,726A26.7,26.7,0,0,1,72,716.21a33.45,33.45,0,0,1,11.68-5.61,56.66,56.66,0,0,1,14.84-1.81A65,65,0,0,1,110.83,710a29.72,29.72,0,0,1,11,4.43,24.11,24.11,0,0,1,8,9.14q3.07,5.88,3.08,15.29v49.6q0,6.89,6.7,6.88a8.74,8.74,0,0,0,3.62-.73v9.6c-1.33.24-2.51.42-3.53.54a34.68,34.68,0,0,1-3.89.18,17.15,17.15,0,0,1-7-1.18,9.27,9.27,0,0,1-4.07-3.35,12.4,12.4,0,0,1-1.9-5.15,43.13,43.13,0,0,1-.46-6.61h-.36a76.7,76.7,0,0,1-6.24,8.06,31.43,31.43,0,0,1-7.06,5.88,32.74,32.74,0,0,1-8.87,3.62A48.83,48.83,0,0,1,88,807.43a46.94,46.94,0,0,1-12.21-1.53,27.46,27.46,0,0,1-10-4.89,23.33,23.33,0,0,1-6.7-8.51,28.28,28.28,0,0,1-2.44-12.22q0-9.76,4.34-15.29a27.36,27.36,0,0,1,11.5-8.42,65.7,65.7,0,0,1,16.11-4.07q9-1.17,18.19-2.26a63.44,63.44,0,0,0,6.33-.91,11,11,0,0,0,4.53-1.9,8.78,8.78,0,0,0,2.8-3.71,16,16,0,0,0,1-6.15,20.88,20.88,0,0,0-1.9-9.5,15.06,15.06,0,0,0-5.25-5.89,21.33,21.33,0,0,0-7.78-3,52.07,52.07,0,0,0-9.51-.82q-10.86,0-17.74,5.16T72.09,740.1H60.69A38,38,0,0,1,64.13,726Zm57,27.88a6.54,6.54,0,0,1-4.17,2.89,41.12,41.12,0,0,1-5.43,1.27q-7.23,1.28-14.93,2.26a82.37,82.37,0,0,0-14,3,27.43,27.43,0,0,0-10.4,5.7q-4.08,3.72-4.08,10.59a16.53,16.53,0,0,0,1.72,7.69A18.54,18.54,0,0,0,74.45,793a20.25,20.25,0,0,0,6.69,3.72A24.63,24.63,0,0,0,88.93,798a39.22,39.22,0,0,0,12.49-2,30.59,30.59,0,0,0,10.4-5.79,27.58,27.58,0,0,0,9.69-21.54V753.86Z"/><path class="cls-1" d="M225.58,795.31v9.59h-78v-9.23l61-74.57H151.73v-9.6h71.32v8.15l-61.72,75.66Z"/><path class="cls-1" d="M247.94,774a34.81,34.81,0,0,0,5.52,11.86,31.5,31.5,0,0,0,9.59,8.68A26.76,26.76,0,0,0,277,798q12.48,0,19.54-6.51t9.78-17.38h11.4q-3.61,15.93-13.3,24.62T277,807.43q-11.06,0-19.1-3.89a35,35,0,0,1-13.12-10.68,46.39,46.39,0,0,1-7.51-15.74,71.61,71.61,0,0,1-2.45-18.92,67.86,67.86,0,0,1,2.45-18.1,48.68,48.68,0,0,1,7.51-15.84A37.73,37.73,0,0,1,257.89,713q8.06-4.24,19.1-4.25,11.22,0,19.18,4.52a38.22,38.22,0,0,1,12.94,11.86A49,49,0,0,1,316.26,742a73.87,73.87,0,0,1,1.81,19.28H246.22A50.42,50.42,0,0,0,247.94,774Zm56.47-34.84a34.38,34.38,0,0,0-5.88-10.59,29.2,29.2,0,0,0-9.24-7.42,26.41,26.41,0,0,0-12.3-2.81,26.82,26.82,0,0,0-12.49,2.81,29.06,29.06,0,0,0-9.23,7.42,37,37,0,0,0-6.07,10.68,52,52,0,0,0-3,12.4h60.45A41.37,41.37,0,0,0,304.41,739.2Z"/><path class="cls-1" d="M344,711.5v15.75h.54a35.68,35.68,0,0,1,11.85-13.57q7.33-4.89,18.74-4.89a31.88,31.88,0,0,1,16.74,4.52,22.25,22.25,0,0,1,10.05,13.76,28.65,28.65,0,0,1,12.3-13.76,35.32,35.32,0,0,1,17.38-4.52q30.94,0,30.95,32.76V804.9h-11.4V742.09q0-11.58-4.89-17.64T429,718.38a24.45,24.45,0,0,0-12.31,2.81,21.58,21.58,0,0,0-7.79,7.51,32.15,32.15,0,0,0-4.07,10.77,66.21,66.21,0,0,0-1.17,12.58V804.9H392.28V741.55a39.43,39.43,0,0,0-1-9,20.86,20.86,0,0,0-3.26-7.42,15.52,15.52,0,0,0-6.06-5,21.5,21.5,0,0,0-9.24-1.81A28.16,28.16,0,0,0,360.16,721a23,23,0,0,0-8.69,7.24,31.89,31.89,0,0,0-5,10.86,53.85,53.85,0,0,0-1.63,13.66V804.9h-11.4V711.5Z"/><path class="cls-1" d="M542.6,712.77a41.34,41.34,0,0,1,13.85,10.68A46.4,46.4,0,0,1,565,739.11a64.53,64.53,0,0,1,0,38.19A46.35,46.35,0,0,1,556.45,793a40.11,40.11,0,0,1-13.85,10.59,47.93,47.93,0,0,1-37.83,0A40.07,40.07,0,0,1,490.93,793a46,46,0,0,1-8.51-15.65,64.32,64.32,0,0,1,0-38.19,46.06,46.06,0,0,1,8.51-15.66,41.3,41.3,0,0,1,13.84-10.68,46.94,46.94,0,0,1,37.83,0Zm-33.21,9.05a31.47,31.47,0,0,0-10.23,9A41.05,41.05,0,0,0,493,743.63a52.07,52.07,0,0,0,0,29.14,40.94,40.94,0,0,0,6.15,12.76,31.25,31.25,0,0,0,10.23,9.05,31.44,31.44,0,0,0,28.6,0,31.21,31.21,0,0,0,10.22-9.05,41,41,0,0,0,6.16-12.76,52.07,52.07,0,0,0,0-29.14,41.07,41.07,0,0,0-6.16-12.76,31.44,31.44,0,0,0-10.22-9,31.44,31.44,0,0,0-28.6,0Z"/><path class="cls-1" d="M638.62,729.7a18.52,18.52,0,0,0-5.34-6.43,22.08,22.08,0,0,0-7.69-3.71,35.36,35.36,0,0,0-9.23-1.18,37,37,0,0,0-7.69.82,23.49,23.49,0,0,0-7.15,2.71,15.29,15.29,0,0,0-5.25,5,13.69,13.69,0,0,0-2,7.6,10.64,10.64,0,0,0,1.9,6.43,16.68,16.68,0,0,0,4.79,4.43,30.8,30.8,0,0,0,6.34,3c2.29.78,4.4,1.42,6.33,1.9l15.21,3.44a43.75,43.75,0,0,1,9.68,2.62,31.44,31.44,0,0,1,8.51,5,24.42,24.42,0,0,1,6.06,7.6,22.86,22.86,0,0,1,2.36,10.68A23.41,23.41,0,0,1,652,792.5a28.22,28.22,0,0,1-8.78,8.69,37.51,37.51,0,0,1-12,4.8A62.69,62.69,0,0,1,618,807.43q-16.47,0-26.7-7.78t-11.67-25H591q.72,11.6,8.42,17.47T618.53,798a43.21,43.21,0,0,0,8.6-.9,27.73,27.73,0,0,0,8.23-3.08,19.74,19.74,0,0,0,6.25-5.52,13.59,13.59,0,0,0,2.44-8.24,13.06,13.06,0,0,0-1.72-7,15,15,0,0,0-4.61-4.71,29.35,29.35,0,0,0-6.61-3.17c-2.47-.84-5-1.56-7.51-2.17L608.94,760a81.74,81.74,0,0,1-10.32-3.35,32.64,32.64,0,0,1-8.23-4.7,19.65,19.65,0,0,1-5.52-6.88,22.69,22.69,0,0,1-2-10.05A22.43,22.43,0,0,1,586,722.91a24.79,24.79,0,0,1,8.24-8.15,38.38,38.38,0,0,1,11.31-4.52,54.43,54.43,0,0,1,12.4-1.45,45.57,45.57,0,0,1,13.12,1.81,30.33,30.33,0,0,1,10.68,5.61,27.49,27.49,0,0,1,7.33,9.41,34,34,0,0,1,3.08,13.21H640.79A21.4,21.4,0,0,0,638.62,729.7Z"/><path class="cls-2" d="M812.38,716.75a46,46,0,0,0-4-10.31,28.59,28.59,0,0,0-6.52-8.15,29,29,0,0,0-9.32-5.34,36.85,36.85,0,0,0-12.4-1.9,36.29,36.29,0,0,0-17.83,4.16,35,35,0,0,0-12.21,11.14,49.9,49.9,0,0,0-7,15.83,73.3,73.3,0,0,0,0,36.2,49.86,49.86,0,0,0,7,15.84,34.84,34.84,0,0,0,12.21,11.13,36.18,36.18,0,0,0,17.83,4.17,32.2,32.2,0,0,0,13.4-2.63,29.82,29.82,0,0,0,10-7.24A34,34,0,0,0,810,768.88a51.82,51.82,0,0,0,3.07-13.21h22.09a61.61,61.61,0,0,1-5,21.18,52.06,52.06,0,0,1-11.5,16.56,50.84,50.84,0,0,1-17,10.77,59.07,59.07,0,0,1-21.54,3.8,60.93,60.93,0,0,1-26-5.34,57.13,57.13,0,0,1-19.46-14.57,65.27,65.27,0,0,1-12.22-21.54,82.6,82.6,0,0,1,0-52.31,65.17,65.17,0,0,1,12.22-21.54A58.15,58.15,0,0,1,754.19,678a60.07,60.07,0,0,1,26-5.43,68.22,68.22,0,0,1,20.46,3,52.93,52.93,0,0,1,16.92,8.68,45,45,0,0,1,11.85,13.85A48.08,48.08,0,0,1,835,716.75Z"/><path class="cls-2" d="M855.82,675.67h22.62V804.9H855.82Z"/><path class="cls-2" d="M906.14,675.67h93v19.54H928.76v33.85h65.16v18.46H928.76v37.83h71.68V804.9h-94.3ZM940,663.18H923.33l19.37-25.89h20.09l19.55,25.89H965.5l-12.85-16.29Z"/><path class="cls-2" d="M1019.26,675.67h23.89l59,95.2h.36v-95.2h21.54V804.9h-23.89l-58.83-95h-.54v95h-21.54Z"/><path class="cls-2" d="M1238.09,716.75a46,46,0,0,0-4-10.31,28.56,28.56,0,0,0-6.51-8.15,29.21,29.21,0,0,0-9.32-5.34,36.89,36.89,0,0,0-12.4-1.9,36.26,36.26,0,0,0-17.83,4.16,35,35,0,0,0-12.22,11.14,50.12,50.12,0,0,0-7,15.83,73.61,73.61,0,0,0,0,36.2,50.08,50.08,0,0,0,7,15.84A34.87,34.87,0,0,0,1188,785.35a36.15,36.15,0,0,0,17.83,4.17,32.12,32.12,0,0,0,13.39-2.63,29.86,29.86,0,0,0,10-7.24,34.13,34.13,0,0,0,6.51-10.77,51.41,51.41,0,0,0,3.08-13.21h22.08a61.15,61.15,0,0,1-5,21.18,51.88,51.88,0,0,1-11.49,16.56,51,51,0,0,1-17,10.77,59.07,59.07,0,0,1-21.54,3.8,61,61,0,0,1-26-5.34,57.19,57.19,0,0,1-19.45-14.57,65.09,65.09,0,0,1-12.22-21.54,82.6,82.6,0,0,1,0-52.31,65,65,0,0,1,12.22-21.54A58.21,58.21,0,0,1,1179.89,678a60.11,60.11,0,0,1,26-5.43,68.15,68.15,0,0,1,20.45,3,52.83,52.83,0,0,1,16.92,8.68,45.14,45.14,0,0,1,11.86,13.85,48.25,48.25,0,0,1,5.61,18.64Z"/><path class="cls-2" d="M1281.52,675.67h22.63V804.9h-22.63Z"/><path class="cls-2" d="M1366.41,675.67h24.08l49.77,129.23H1416l-12.13-34.21h-51.59l-12.12,34.21h-23.35Zm-8,77.83h39.46l-19.37-55.57H1378Z"/></svg>