<svg id="Layer_1" data-name="Layer 1" xmlns="http://www.w3.org/2000/svg" viewBox="0 0 1513 375"><defs><style>.cls-1{fill:#b7b7b7;}.cls-2{fill:#fff;}.cls-3{fill:#ffde59;}</style></defs><path class="cls-1" d="M31.92,9.29l23.43,60H46.53L40,51.21H14.61L7.89,69.27H-.26l23.36-60Zm5.54,35.2-10-28H27.3l-10.17,28Z"/><path class="cls-1" d="M125.16,64.86q-6.14,5.76-17.48,5.75-11.58,0-18.1-5.5T83.07,47.6V9.29h8V47.6q0,8.06,4.29,12.22T107.68,64q7.65,0,11.64-4.16t4-12.22V9.29h8V47.6Q131.29,59.11,125.16,64.86Z"/><path class="cls-1" d="M151.87,9.29l31.58,48.64h.17V9.29h7.56v60h-8.74L151.11,21.14h-.17V69.27h-7.56v-60Z"/><path class="cls-1" d="M211.84,9.29v60h-8v-60Z"/><path class="cls-1" d="M239.22,69.27l-21.08-60h8.57l17.13,52H244l17.3-52h8.32l-21.34,60Z"/><path class="cls-1" d="M316.84,9.29V16H283.41V35.08h31.16V41.8H283.41V62.55h33.68v6.72H275.43v-60Z"/><path class="cls-1" d="M354.39,9.29q8.57,0,13.39,4.2T372.61,25a18.25,18.25,0,0,1-2.47,9.58,12.81,12.81,0,0,1-7.94,5.63v.16a10.82,10.82,0,0,1,4.24,1.68,9.28,9.28,0,0,1,2.6,2.82,12.63,12.63,0,0,1,1.43,3.65,39.1,39.1,0,0,1,.72,4.2c.11,1.46.19,2.94.25,4.45a36.22,36.22,0,0,0,.42,4.46,26.75,26.75,0,0,0,1,4.15,10.25,10.25,0,0,0,1.89,3.49h-8.9a5,5,0,0,1-1.13-2.52,24.29,24.29,0,0,1-.38-3.57c-.06-1.32-.12-2.73-.17-4.24a31.07,31.07,0,0,0-.5-4.45c-.23-1.46-.51-2.85-.84-4.16a9.79,9.79,0,0,0-1.6-3.45,7.89,7.89,0,0,0-2.86-2.35,10.53,10.53,0,0,0-4.7-.88H334.14V69.27h-8v-60Zm1.68,27.22a11.58,11.58,0,0,0,4.41-1.64,9,9,0,0,0,3-3.27,11,11,0,0,0,1.13-5.34,10.75,10.75,0,0,0-2.52-7.39C360.43,17,357.72,16,354,16H334.14V36.93h16.63A32.25,32.25,0,0,0,356.07,36.51Z"/><path class="cls-1" d="M413.14,17.48a16.93,16.93,0,0,0-10.2-2.89,24.12,24.12,0,0,0-5,.5,13.34,13.34,0,0,0-4.32,1.68,8.8,8.8,0,0,0-3,3.15,9.8,9.8,0,0,0-1.13,4.91,6.23,6.23,0,0,0,1.64,4.5,12,12,0,0,0,4.36,2.81A36.87,36.87,0,0,0,401.68,34q3.44.7,7,1.55t7,2a23,23,0,0,1,6.17,3.06,14.59,14.59,0,0,1,4.37,4.87,15.12,15.12,0,0,1,1.64,7.4A15.05,15.05,0,0,1,425.74,61a17.63,17.63,0,0,1-5.5,5.54,24,24,0,0,1-7.52,3.11,36.66,36.66,0,0,1-8.27,1,35.1,35.1,0,0,1-9.53-1.26,23.51,23.51,0,0,1-7.9-3.82A18.16,18.16,0,0,1,381.64,59a21.17,21.17,0,0,1-2-9.45h7.56A13.55,13.55,0,0,0,388.7,56a13.35,13.35,0,0,0,3.86,4.49,16.28,16.28,0,0,0,5.59,2.61,25.63,25.63,0,0,0,6.55.84,29.49,29.49,0,0,0,5.42-.51A15.78,15.78,0,0,0,415,61.75a9.24,9.24,0,0,0,4.88-8.69,7.54,7.54,0,0,0-1.64-5,12,12,0,0,0-4.37-3.15,32.63,32.63,0,0,0-6.17-2l-7-1.55q-3.57-.8-7-1.85a25.28,25.28,0,0,1-6.18-2.77,13.25,13.25,0,0,1-4.36-4.45,13,13,0,0,1-1.64-6.85,15.8,15.8,0,0,1,1.85-7.85,16.1,16.1,0,0,1,4.91-5.46,22,22,0,0,1,7-3.19,30.81,30.81,0,0,1,8-1A32,32,0,0,1,411.84,9a19.43,19.43,0,0,1,6.93,3.44,16.64,16.64,0,0,1,4.71,5.92,21.49,21.49,0,0,1,1.89,8.53h-7.56Q417.14,20.38,413.14,17.48Z"/><path class="cls-1" d="M445.27,9.29v60h-8v-60Z"/><path class="cls-1" d="M478.7,9.29q13.86,0,21.34,7.06t7.48,21.5a48.55,48.55,0,0,1-1.68,13.4,25,25,0,0,1-5.21,9.83,22.56,22.56,0,0,1-9,6.09,36,36,0,0,1-12.94,2.1H458.12v-60Zm.68,53.26q1.33,0,3.36-.21a19,19,0,0,0,4.28-1A19.36,19.36,0,0,0,491.51,59a15.08,15.08,0,0,0,4-4.11,22.84,22.84,0,0,0,2.9-6.51A34.13,34.13,0,0,0,499.54,39a40.14,40.14,0,0,0-1.05-9.62A18.42,18.42,0,0,0,495,22.1a15.08,15.08,0,0,0-6.17-4.53A24.52,24.52,0,0,0,479.54,16H466.1V62.55Z"/><path class="cls-1" d="M541.79,9.29l23.43,60H556.4l-6.55-18.06H524.48l-6.72,18.06h-8.14L533,9.29Zm5.54,35.2-10-28h-.17L527,44.49Z"/><path class="cls-1" d="M591.1,9.29q13.86,0,21.33,7.06t7.48,21.5a48.55,48.55,0,0,1-1.68,13.4A25,25,0,0,1,613,61.08a22.56,22.56,0,0,1-9,6.09,36,36,0,0,1-12.93,2.1H570.52v-60Zm.67,53.26q1.34,0,3.36-.21a19,19,0,0,0,4.28-1,19.62,19.62,0,0,0,4.5-2.31,15.37,15.37,0,0,0,4-4.11,23.12,23.12,0,0,0,2.89-6.51A34.13,34.13,0,0,0,611.93,39a40.14,40.14,0,0,0-1-9.62,18.42,18.42,0,0,0-3.45-7.23,15.08,15.08,0,0,0-6.17-4.53A24.5,24.5,0,0,0,591.94,16H578.5V62.55Z"/><path class="cls-1" d="M670.48,9.29V16H637V35.08h31.17V41.8H637V62.55h33.69v6.72H629.06v-60Z"/><path class="cls-1" d="M226.71,110.09q9.07,0,13.73,4.67t4.66,13.06q0,8.4-4.66,13.1t-13.73,4.62H208.4v24.53h-8v-60ZM224,138.82q6.81.09,9.95-2.77c2.1-1.9,3.15-4.65,3.15-8.23s-1.05-6.32-3.15-8.19-5.41-2.82-9.95-2.82H208.4v22Z"/><path class="cls-1" d="M296,165.66q-6.13,5.76-17.47,5.75-11.6,0-18.11-5.5t-6.51-17.51V110.09h8V148.4q0,8.06,4.29,12.22t12.35,4.16q7.63,0,11.63-4.16t4-12.22V110.09h8V148.4Q302.14,159.9,296,165.66ZM280.89,92.2l-8.07,13.61h5.38L290,92.2Z"/><path class="cls-1" d="M336.08,110.09c1.28,0,2.67,0,4.15,0s3,.11,4.41.25a33.64,33.64,0,0,1,4.08.63,10.18,10.18,0,0,1,3.23,1.26,15.56,15.56,0,0,1,5,4.87,13.55,13.55,0,0,1,2.06,7.64,14.65,14.65,0,0,1-2.31,8.28,13.63,13.63,0,0,1-6.6,5.16v.17a13.86,13.86,0,0,1,8.49,5,15.09,15.09,0,0,1,2.94,9.41,17.76,17.76,0,0,1-1.18,6.38,15.92,15.92,0,0,1-3.48,5.51,17.63,17.63,0,0,1-5.72,3.86,19.6,19.6,0,0,1-7.85,1.47h-29v-60Zm2.18,25.79q6.81,0,9.79-2.39c2-1.6,3-4,3-7.18a10.6,10.6,0,0,0-1-5,7.13,7.13,0,0,0-2.77-2.86,10.88,10.88,0,0,0-4.08-1.3,38.2,38.2,0,0,0-4.91-.3h-16v19.07Zm4,27.47q5.29,0,8.28-2.86a10.42,10.42,0,0,0,3-7.89,9.86,9.86,0,0,0-1.09-4.87,8.56,8.56,0,0,0-2.9-3.07,12.15,12.15,0,0,0-4.16-1.6,25.87,25.87,0,0,0-4.87-.46H322.3v20.75Z"/><path class="cls-1" d="M379.25,110.09v53.26H411v6.72H371.27v-60Z"/><path class="cls-1" d="M425.7,110.09v60h-8v-60Z"/><path class="cls-1" d="M474.8,118.58a18.52,18.52,0,0,0-10.88-3.19,19.56,19.56,0,0,0-9.2,2,18.35,18.35,0,0,0-6.3,5.42,23.38,23.38,0,0,0-3.65,7.77,34.92,34.92,0,0,0-1.18,9.07,39,39,0,0,0,1.18,9.7,23,23,0,0,0,3.65,8,18.05,18.05,0,0,0,6.35,5.42,19.63,19.63,0,0,0,9.24,2,17.92,17.92,0,0,0,7-1.3,15.92,15.92,0,0,0,5.29-3.62,16.51,16.51,0,0,0,3.49-5.5,22.93,22.93,0,0,0,1.51-6.89h8q-1.17,11.34-7.81,17.64t-18.15,6.3A28.9,28.9,0,0,1,451.15,169a24,24,0,0,1-8.65-6.59,28.3,28.3,0,0,1-5.16-9.92,42.15,42.15,0,0,1-1.73-12.26,40.11,40.11,0,0,1,1.85-12.31,29.59,29.59,0,0,1,5.42-10,25.36,25.36,0,0,1,8.9-6.77A28.75,28.75,0,0,1,464,108.67a30.83,30.83,0,0,1,8.9,1.26,24.1,24.1,0,0,1,7.48,3.69,21,21,0,0,1,5.46,6.09,22.48,22.48,0,0,1,2.85,8.44h-8A14.83,14.83,0,0,0,474.8,118.58Z"/><path class="cls-1" d="M523.73,110.09l23.44,60h-8.82L531.79,152H506.42l-6.71,18.06h-8.15l23.35-60Zm5.54,35.2-10-28h-.17l-10.17,28Z"/><path class="cls-1" d="M605.25,118.28A17,17,0,0,0,595,115.39a24,24,0,0,0-4.95.5,13.31,13.31,0,0,0-4.33,1.68,8.7,8.7,0,0,0-3,3.15,9.69,9.69,0,0,0-1.14,4.91,6.28,6.28,0,0,0,1.64,4.5,12.13,12.13,0,0,0,4.37,2.81,37,37,0,0,0,6.17,1.81q3.45.7,7,1.55t7,2a22.87,22.87,0,0,1,6.18,3.06,14.56,14.56,0,0,1,4.36,4.87,17.1,17.1,0,0,1-.5,15.59,17.74,17.74,0,0,1-5.5,5.54,24.07,24.07,0,0,1-7.52,3.11,36.66,36.66,0,0,1-8.27,1,35.23,35.23,0,0,1-9.54-1.26,23.46,23.46,0,0,1-7.89-3.82,18.16,18.16,0,0,1-5.38-6.55,21,21,0,0,1-2-9.45h7.56a13.55,13.55,0,0,0,1.47,6.51,13.24,13.24,0,0,0,3.86,4.49,16.28,16.28,0,0,0,5.59,2.61,25.58,25.58,0,0,0,6.55.84,29.49,29.49,0,0,0,5.42-.51,15.87,15.87,0,0,0,4.91-1.72,9.21,9.21,0,0,0,4.87-8.69,7.49,7.49,0,0,0-1.64-5,11.94,11.94,0,0,0-4.36-3.15,32.51,32.51,0,0,0-6.18-2l-7-1.55q-3.57-.79-7-1.85a25.38,25.38,0,0,1-6.17-2.77,13.28,13.28,0,0,1-4.37-4.45,13.13,13.13,0,0,1-1.64-6.85,15.9,15.9,0,0,1,1.85-7.85,16.13,16.13,0,0,1,4.92-5.46,21.9,21.9,0,0,1,7-3.19,30.75,30.75,0,0,1,8-1,32,32,0,0,1,8.57,1.09,19.43,19.43,0,0,1,6.93,3.44,16.61,16.61,0,0,1,4.7,5.92,21.11,21.11,0,0,1,1.89,8.53h-7.56Q609.24,121.19,605.25,118.28Z"/><path class="cls-1" d="M670.48,110.09v6.72H637v19.07h31.17v6.72H637v20.75h33.69v6.72H629.06v-60Z"/><path class="cls-1" d="M143.76,219.38a18.52,18.52,0,0,0-10.88-3.19,19.56,19.56,0,0,0-9.2,2,18.35,18.35,0,0,0-6.3,5.42,23.38,23.38,0,0,0-3.65,7.77,34.92,34.92,0,0,0-1.18,9.07,39,39,0,0,0,1.18,9.7,23,23,0,0,0,3.65,8,18.05,18.05,0,0,0,6.35,5.42,19.63,19.63,0,0,0,9.24,2,17.74,17.74,0,0,0,7-1.3,15.77,15.77,0,0,0,5.29-3.62,16.51,16.51,0,0,0,3.49-5.5,22.93,22.93,0,0,0,1.51-6.89h8q-1.17,11.34-7.81,17.64t-18.15,6.3a28.9,28.9,0,0,1-12.18-2.39,24,24,0,0,1-8.65-6.59,28.3,28.3,0,0,1-5.16-9.92,42.15,42.15,0,0,1-1.73-12.26,40.11,40.11,0,0,1,1.85-12.31,29.59,29.59,0,0,1,5.42-10,25.36,25.36,0,0,1,8.9-6.77A28.75,28.75,0,0,1,133,209.47a30.83,30.83,0,0,1,8.9,1.26,24.1,24.1,0,0,1,7.48,3.69,21,21,0,0,1,5.46,6.09,22.48,22.48,0,0,1,2.85,8.44h-8A14.83,14.83,0,0,0,143.76,219.38Z"/><path class="cls-1" d="M166,229.08a29.63,29.63,0,0,1,5.42-10,26.39,26.39,0,0,1,9-7,31.42,31.42,0,0,1,25,0,26.58,26.58,0,0,1,9,7,29.78,29.78,0,0,1,5.41,10,39.37,39.37,0,0,1,0,23.6,29.78,29.78,0,0,1-5.41,10,26.11,26.11,0,0,1-9,6.93,31.87,31.87,0,0,1-25,0,25.92,25.92,0,0,1-9-6.93,29.63,29.63,0,0,1-5.42-10,39.37,39.37,0,0,1,0-23.6Zm7.35,20.75a24.31,24.31,0,0,0,3.7,7.94,18.93,18.93,0,0,0,6.46,5.67,21.76,21.76,0,0,0,18.82,0,19,19,0,0,0,6.47-5.67,24.29,24.29,0,0,0,3.69-7.94,34.49,34.49,0,0,0,0-17.89,24.19,24.19,0,0,0-3.69-7.94,19,19,0,0,0-6.47-5.67,21.76,21.76,0,0,0-18.82,0,18.93,18.93,0,0,0-6.46,5.67,24.21,24.21,0,0,0-3.7,7.94,34.49,34.49,0,0,0,0,17.89Z"/><path class="cls-1" d="M239.23,210.89l31.58,48.64H271V210.89h7.56v60H269.8l-31.33-48.13h-.17v48.13h-7.56v-60Z"/><path class="cls-1" d="M320.91,219.08a16.93,16.93,0,0,0-10.2-2.89,24.19,24.19,0,0,0-5,.5,13.34,13.34,0,0,0-4.32,1.68,8.89,8.89,0,0,0-3,3.15,9.8,9.8,0,0,0-1.13,4.91,6.23,6.23,0,0,0,1.64,4.5,12,12,0,0,0,4.36,2.81,36.87,36.87,0,0,0,6.18,1.81q3.44.7,7,1.55t7,2a23,23,0,0,1,6.17,3.06A14.59,14.59,0,0,1,334,247a17.06,17.06,0,0,1-.51,15.59,17.63,17.63,0,0,1-5.5,5.54,24,24,0,0,1-7.52,3.11,36.66,36.66,0,0,1-8.27,1,35.1,35.1,0,0,1-9.53-1.26,23.51,23.51,0,0,1-7.9-3.82,18.16,18.16,0,0,1-5.38-6.55,21.17,21.17,0,0,1-2-9.45H295a13.55,13.55,0,0,0,1.47,6.51,13.35,13.35,0,0,0,3.86,4.49,16.28,16.28,0,0,0,5.59,2.61,25.63,25.63,0,0,0,6.55.84,29.49,29.49,0,0,0,5.42-.51,15.78,15.78,0,0,0,4.91-1.72,9.24,9.24,0,0,0,4.88-8.69,7.54,7.54,0,0,0-1.64-5,12,12,0,0,0-4.37-3.15,32.63,32.63,0,0,0-6.17-2l-7-1.55q-3.57-.8-7-1.85a25.28,25.28,0,0,1-6.18-2.77,13.25,13.25,0,0,1-4.36-4.45,13,13,0,0,1-1.64-6.85,15.8,15.8,0,0,1,1.85-7.85,16.1,16.1,0,0,1,4.91-5.46,22,22,0,0,1,7-3.19,30.81,30.81,0,0,1,8-1.05,32,32,0,0,1,8.57,1.09,19.59,19.59,0,0,1,6.93,3.44,16.64,16.64,0,0,1,4.71,5.92,21.49,21.49,0,0,1,1.89,8.53h-7.56Q324.9,222,320.91,219.08Z"/><path class="cls-1" d="M338.34,217.61v-6.72h48v6.72h-20v53.26h-8V217.61Z"/><path class="cls-1" d="M420.58,210.89q8.57,0,13.4,4.2t4.83,11.51a18.23,18.23,0,0,1-2.48,9.58,12.78,12.78,0,0,1-7.94,5.63V242a10.76,10.76,0,0,1,4.24,1.68,9.44,9.44,0,0,1,2.61,2.82,12.62,12.62,0,0,1,1.42,3.65,39.1,39.1,0,0,1,.72,4.2c.11,1.46.19,2.94.25,4.45a40.59,40.59,0,0,0,.42,4.46,26.75,26.75,0,0,0,1,4.15,10.25,10.25,0,0,0,1.89,3.49H432a5,5,0,0,1-1.13-2.52,25.73,25.73,0,0,1-.38-3.57c-.06-1.32-.11-2.73-.17-4.24a28.45,28.45,0,0,0-.5-4.45c-.23-1.46-.51-2.85-.84-4.16a9.79,9.79,0,0,0-1.6-3.45,7.94,7.94,0,0,0-2.85-2.35,10.61,10.61,0,0,0-4.71-.88H400.33v25.62h-8v-60Zm1.68,27.22a11.58,11.58,0,0,0,4.41-1.64,8.89,8.89,0,0,0,3-3.27,11,11,0,0,0,1.14-5.34,10.75,10.75,0,0,0-2.52-7.39c-1.68-1.9-4.4-2.86-8.15-2.86H400.33v20.92H417A32.21,32.21,0,0,0,422.26,238.11Z"/><path class="cls-1" d="M447.75,229.08a29.8,29.8,0,0,1,5.42-10,26.48,26.48,0,0,1,9-7,31.42,31.42,0,0,1,25,0,26.58,26.58,0,0,1,9,7,29.8,29.8,0,0,1,5.42,10,39.58,39.58,0,0,1,0,23.6,29.8,29.8,0,0,1-5.42,10,26.11,26.11,0,0,1-9,6.93,31.87,31.87,0,0,1-25,0,26,26,0,0,1-9-6.93,29.8,29.8,0,0,1-5.42-10,39.58,39.58,0,0,1,0-23.6Zm7.35,20.75a24.51,24.51,0,0,0,3.7,7.94,18.87,18.87,0,0,0,6.47,5.67,21.74,21.74,0,0,0,18.81,0,19,19,0,0,0,6.47-5.67,24.51,24.51,0,0,0,3.7-7.94,34.78,34.78,0,0,0,0-17.89,24.42,24.42,0,0,0-3.7-7.94,19,19,0,0,0-6.47-5.67,21.74,21.74,0,0,0-18.81,0A18.87,18.87,0,0,0,458.8,224a24.42,24.42,0,0,0-3.7,7.94,34.78,34.78,0,0,0,0,17.89Zm22.43-57.67-8.06,13.61h5.37l11.85-13.61Z"/><path class="cls-1" d="M520.87,210.89v60h-8v-60Z"/><path class="cls-1" d="M597.9,210.89v6.72H564.47v19.07h31.16v6.72H564.47v20.75h33.68v6.72H556.49v-60Z"/><path class="cls-1" d="M618.31,210.89l18.9,50.4,19-50.4h10.92v60h-7.56V221h-.17l-18.73,49.9h-6.81L615.12,221H615v49.9h-7.56v-60Z"/><path class="cls-1" d="M157.2,320.18A18.52,18.52,0,0,0,146.32,317a19.49,19.49,0,0,0-9.19,2,18.16,18.16,0,0,0-6.3,5.42,23.39,23.39,0,0,0-3.66,7.77,34.92,34.92,0,0,0-1.17,9.07,39,39,0,0,0,1.17,9.7,23,23,0,0,0,3.66,8,17.93,17.93,0,0,0,6.34,5.42,19.63,19.63,0,0,0,9.24,2,17.92,17.92,0,0,0,7-1.3,15.92,15.92,0,0,0,5.29-3.62,16.51,16.51,0,0,0,3.49-5.5,22.93,22.93,0,0,0,1.51-6.89h8q-1.17,11.34-7.81,17.64T145.74,373a28.84,28.84,0,0,1-12.18-2.39A24,24,0,0,1,124.9,364a28.3,28.3,0,0,1-5.16-9.92A42.15,42.15,0,0,1,118,341.85a40.11,40.11,0,0,1,1.84-12.31,29.59,29.59,0,0,1,5.42-10,25.31,25.31,0,0,1,8.91-6.77,28.68,28.68,0,0,1,12.22-2.47,30.83,30.83,0,0,1,8.9,1.26,24.1,24.1,0,0,1,7.48,3.69,21,21,0,0,1,5.46,6.09,22.48,22.48,0,0,1,2.85,8.44h-8A14.83,14.83,0,0,0,157.2,320.18Z"/><path class="cls-1" d="M179.46,329.88a29.63,29.63,0,0,1,5.42-10,26.48,26.48,0,0,1,9-7,31.42,31.42,0,0,1,25,0,26.58,26.58,0,0,1,9,7,29.78,29.78,0,0,1,5.41,10,39.37,39.37,0,0,1,0,23.6,29.78,29.78,0,0,1-5.41,10,26.11,26.11,0,0,1-9,6.93,31.87,31.87,0,0,1-25,0,26,26,0,0,1-9-6.93,29.63,29.63,0,0,1-5.42-10,39.37,39.37,0,0,1,0-23.6Zm7.35,20.75a24.31,24.31,0,0,0,3.7,7.94,18.93,18.93,0,0,0,6.46,5.67,21.76,21.76,0,0,0,18.82,0,19,19,0,0,0,6.47-5.67,24.29,24.29,0,0,0,3.69-7.94,34.49,34.49,0,0,0,0-17.89,24.19,24.19,0,0,0-3.69-7.94,19,19,0,0,0-6.47-5.67,21.76,21.76,0,0,0-18.82,0,18.93,18.93,0,0,0-6.46,5.67,24.21,24.21,0,0,0-3.7,7.94,34.49,34.49,0,0,0,0,17.89Z"/><path class="cls-1" d="M255.35,311.69l18.9,50.4,19-50.4h10.92v60H296.6v-49.9h-.17l-18.73,49.9h-6.81l-18.73-49.9H252v49.9h-7.56v-60Z"/><path class="cls-1" d="M358.59,367.26Q352.46,373,341.12,373q-11.6,0-18.11-5.5T316.5,350V311.69h8V350q0,8.06,4.29,12.22t12.35,4.16q7.63,0,11.63-4.16t4-12.22V311.69h8V350Q364.72,361.51,358.59,367.26Z"/><path class="cls-1" d="M385.3,311.69l31.58,48.64h.17V311.69h7.56v60h-8.73l-31.34-48.13h-.16v48.13h-7.57v-60Z"/><path class="cls-1" d="M445.27,311.69v60h-8v-60Z"/><path class="cls-1" d="M478.7,311.69q13.86,0,21.34,7.06t7.48,21.5a48.55,48.55,0,0,1-1.68,13.4,25.1,25.1,0,0,1-5.21,9.83,22.56,22.56,0,0,1-9,6.09,36,36,0,0,1-12.94,2.1H458.12v-60Zm.68,53.26q1.33,0,3.36-.21a19,19,0,0,0,4.28-1,19.36,19.36,0,0,0,4.49-2.31,15.08,15.08,0,0,0,4-4.11,22.84,22.84,0,0,0,2.9-6.51,34.13,34.13,0,0,0,1.14-9.45,40.14,40.14,0,0,0-1.05-9.62A18.42,18.42,0,0,0,495,324.5a15.08,15.08,0,0,0-6.17-4.53,24.52,24.52,0,0,0-9.33-1.56H466.1V365Z"/><path class="cls-1" d="M541.79,311.69l23.43,60H556.4l-6.55-18.06H524.48l-6.72,18.06h-8.14l23.35-60Zm5.54,35.2-10-28h-.17l-10.17,28Z"/><path class="cls-1" d="M591.1,311.69q13.86,0,21.33,7.06t7.48,21.5a48.55,48.55,0,0,1-1.68,13.4,25.1,25.1,0,0,1-5.21,9.83,22.56,22.56,0,0,1-9,6.09,36,36,0,0,1-12.93,2.1H570.52v-60Zm.67,53.26q1.34,0,3.36-.21a19,19,0,0,0,4.28-1,19.62,19.62,0,0,0,4.5-2.31,15.37,15.37,0,0,0,4-4.11,23.12,23.12,0,0,0,2.89-6.51,34.13,34.13,0,0,0,1.14-9.45,40.14,40.14,0,0,0-1-9.62,18.42,18.42,0,0,0-3.45-7.23,15.08,15.08,0,0,0-6.17-4.53,24.5,24.5,0,0,0-9.32-1.56H578.5V365Z"/><path class="cls-1" d="M670.48,311.69v6.72H637v19.07h31.17v6.72H637V365h33.69v6.72H629.06v-60Z"/><path class="cls-2" d="M714.64,7.92H834.28V30.28h-47V155.72H761.42V30.28H714.64Z"/><path class="cls-2" d="M910.87,4.4a68.68,68.68,0,0,1,29.7,6.21,66.53,66.53,0,0,1,22.26,16.77A74.57,74.57,0,0,1,976.8,52a90.76,90.76,0,0,1,4.86,29.81,91.37,91.37,0,0,1-4.86,30,74.57,74.57,0,0,1-14,24.63,65.2,65.2,0,0,1-22.26,16.66,75.24,75.24,0,0,1-59.4,0,65.11,65.11,0,0,1-22.26-16.66,74.57,74.57,0,0,1-14-24.63,91.37,91.37,0,0,1-4.86-30A90.76,90.76,0,0,1,844.94,52a74.57,74.57,0,0,1,14-24.63,66.43,66.43,0,0,1,22.26-16.77A68.68,68.68,0,0,1,910.87,4.4Zm0,21.12q-11.8,0-20.39,4.76a40,40,0,0,0-14,12.73,57.25,57.25,0,0,0-8,18.11,84,84,0,0,0,0,41.4,57.3,57.3,0,0,0,8,18.12,40,40,0,0,0,14,12.73q8.6,4.75,20.39,4.76t20.39-4.76a40.13,40.13,0,0,0,14-12.73,57.53,57.53,0,0,0,8-18.12,84,84,0,0,0,0-41.4,57.47,57.47,0,0,0-8-18.11,40.13,40.13,0,0,0-14-12.73Q922.67,25.53,910.87,25.52Z"/><path class="cls-2" d="M1001.74,7.92H1063q17,0,29.4,5.8a54.46,54.46,0,0,1,20.28,15.84,67.64,67.64,0,0,1,11.7,23.49,104.78,104.78,0,0,1,3.83,28.77,104.8,104.8,0,0,1-3.83,28.78,67.64,67.64,0,0,1-11.7,23.49,54.57,54.57,0,0,1-20.28,15.84q-12.42,5.79-29.4,5.79h-61.27Zm25.88,126.69h25.46q15.11,0,24.73-4a36.23,36.23,0,0,0,15.12-11.18,40.56,40.56,0,0,0,7.45-16.76,104.12,104.12,0,0,0,2-20.81,104,104,0,0,0-2-20.8,40.55,40.55,0,0,0-7.45-16.77,36.31,36.31,0,0,0-15.12-11.18q-9.61-4-24.73-4h-25.46Z"/><path class="cls-2" d="M1210.6,4.4a68.76,68.76,0,0,1,29.71,6.21,66.59,66.59,0,0,1,22.25,16.77,74.57,74.57,0,0,1,14,24.63,90.77,90.77,0,0,1,4.87,29.81,91.37,91.37,0,0,1-4.87,30,74.57,74.57,0,0,1-14,24.63,65.26,65.26,0,0,1-22.25,16.66,75.26,75.26,0,0,1-59.41,0,65.2,65.2,0,0,1-22.26-16.66,74.57,74.57,0,0,1-14-24.63,91.37,91.37,0,0,1-4.86-30A90.76,90.76,0,0,1,1144.67,52a74.57,74.57,0,0,1,14-24.63,66.53,66.53,0,0,1,22.26-16.77A68.68,68.68,0,0,1,1210.6,4.4Zm0,21.12q-11.79,0-20.39,4.76a40,40,0,0,0-14,12.73,57.25,57.25,0,0,0-8,18.11,84,84,0,0,0,0,41.4,57.3,57.3,0,0,0,8,18.12,40,40,0,0,0,14,12.73q8.6,4.75,20.39,4.76t20.39-4.76a40,40,0,0,0,14-12.73,57.3,57.3,0,0,0,8-18.12,84,84,0,0,0,0-41.4A57.25,57.25,0,0,0,1245,43a40,40,0,0,0-14-12.73Q1222.4,25.53,1210.6,25.52Z"/><path class="cls-2" d="M1318.45,106.46a33,33,0,0,0,2.9,14.49,26.13,26.13,0,0,0,8.07,9.83,34.37,34.37,0,0,0,11.9,5.59,57.65,57.65,0,0,0,14.59,1.76,46.87,46.87,0,0,0,14.49-2,29.18,29.18,0,0,0,9.73-5.07,18.35,18.35,0,0,0,5.39-7.14,21.45,21.45,0,0,0,1.65-8.18q0-8.49-3.83-12.52a22,22,0,0,0-8.38-5.7,177.49,177.49,0,0,0-18.32-5.48q-10.46-2.58-25.77-6.73A55.13,55.13,0,0,1,1315,78.82a37.86,37.86,0,0,1-10-9,31.85,31.85,0,0,1-5.28-10.56,42.57,42.57,0,0,1-1.55-11.39q0-11.17,4.66-19.35A41.37,41.37,0,0,1,1315.14,15a54.4,54.4,0,0,1,17.38-8,76.45,76.45,0,0,1,19.67-2.59,77.36,77.36,0,0,1,21.84,3,53.93,53.93,0,0,1,18,9,44.32,44.32,0,0,1,12.31,14.8,43.71,43.71,0,0,1,4.56,20.39H1383q-1-14.28-9.73-20.18t-22.15-5.9a48.49,48.49,0,0,0-9.31.93,29.5,29.5,0,0,0-8.7,3.11,19.06,19.06,0,0,0-6.52,5.89,16,16,0,0,0-2.58,9.32q0,7.88,4.86,12.32a31.37,31.37,0,0,0,12.73,6.72l6.52,1.76q5.7,1.56,12.73,3.42t13.77,3.62q6.72,1.77,9.62,2.59a43.28,43.28,0,0,1,12.63,6.21,39.61,39.61,0,0,1,9,9,37.43,37.43,0,0,1,5.39,10.87,39.86,39.86,0,0,1,1.76,11.59q0,12.42-5.08,21.22a43,43,0,0,1-13.35,14.39,58.09,58.09,0,0,1-18.83,8.17,89.91,89.91,0,0,1-21.53,2.59,88.66,88.66,0,0,1-23.81-3.1,55.59,55.59,0,0,1-19.45-9.53,46.4,46.4,0,0,1-13.25-16.45q-5-10-5.18-23.7Z"/><path class="cls-3" d="M808.41,324.11A105.47,105.47,0,0,1,806.75,343,40.86,40.86,0,0,1,800,359.3q-5.07,7.24-14.69,11.59t-25.57,4.35q-11.79,0-20.08-3.62A37.18,37.18,0,0,1,726,361.68a39.4,39.4,0,0,1-7.86-15,68.11,68.11,0,0,1-2.49-18.83V320h25.88v7.66q0,12.63,4.24,19.56t16,6.94a24.39,24.39,0,0,0,10.25-1.87,15.11,15.11,0,0,0,6.42-5.48,22.49,22.49,0,0,0,3.2-9,81.09,81.09,0,0,0,.83-12.21V223.92h25.88Z"/><path class="cls-3" d="M834.69,223.92h25.88V310q0,7.44.72,15.11a34.58,34.58,0,0,0,4.14,13.76,26.43,26.43,0,0,0,10.35,10q6.94,3.93,19.56,3.93T914.91,349a26.43,26.43,0,0,0,10.35-10,34.75,34.75,0,0,0,4.14-13.76q.72-7.66.72-15.11V223.92H956v94.6q0,14.28-4.35,24.84a47.86,47.86,0,0,1-12.32,17.7,51.23,51.23,0,0,1-19.15,10.66,89.41,89.41,0,0,1-49.68,0,51.27,51.27,0,0,1-19.14-10.66A47.74,47.74,0,0,1,839,343.36q-4.35-10.56-4.35-24.84Z"/><path class="cls-3" d="M981.25,223.92h27.32l67.48,108.89h.42V223.92h24.63v147.8h-27.32L1006.5,263.05h-.62V371.72H981.25Z"/><path class="cls-3" d="M1114.14,223.92h119.64v22.36h-47V371.72h-25.87V246.28h-46.78Z"/><path class="cls-3" d="M1310.37,220.4a68.68,68.68,0,0,1,29.7,6.21,66.53,66.53,0,0,1,22.26,16.77,74.57,74.57,0,0,1,14,24.63,94.5,94.5,0,0,1,0,59.83,74.57,74.57,0,0,1-14,24.63,65.2,65.2,0,0,1-22.26,16.66,75.24,75.24,0,0,1-59.4,0,65.11,65.11,0,0,1-22.26-16.66,74.57,74.57,0,0,1-14-24.63,94.5,94.5,0,0,1,0-59.83,74.57,74.57,0,0,1,14-24.63,66.43,66.43,0,0,1,22.26-16.77A68.68,68.68,0,0,1,1310.37,220.4Zm0,21.12q-11.8,0-20.39,4.76A40,40,0,0,0,1276,259a57.25,57.25,0,0,0-8,18.11,84,84,0,0,0,0,41.4,57.3,57.3,0,0,0,8,18.12,40,40,0,0,0,14,12.73q8.6,4.75,20.39,4.76t20.39-4.76a40.13,40.13,0,0,0,14-12.73,57.53,57.53,0,0,0,8-18.12,84,84,0,0,0,0-41.4,57.47,57.47,0,0,0-8-18.11,40.13,40.13,0,0,0-14-12.73Q1322.17,241.53,1310.37,241.52Z"/><path class="cls-3" d="M1418.22,322.46a33.14,33.14,0,0,0,2.89,14.49,26.25,26.25,0,0,0,8.08,9.83,34.37,34.37,0,0,0,11.9,5.59,57.65,57.65,0,0,0,14.59,1.76,46.87,46.87,0,0,0,14.49-2,29.28,29.28,0,0,0,9.73-5.07,18.23,18.23,0,0,0,5.38-7.14,21.28,21.28,0,0,0,1.66-8.18q0-8.49-3.83-12.52a22,22,0,0,0-8.38-5.7,178.25,178.25,0,0,0-18.32-5.48q-10.46-2.58-25.77-6.73a55.13,55.13,0,0,1-15.84-6.52,37.86,37.86,0,0,1-10-9,31.85,31.85,0,0,1-5.28-10.56,42.57,42.57,0,0,1-1.55-11.39q0-11.17,4.66-19.35A41.45,41.45,0,0,1,1414.9,231a54.45,54.45,0,0,1,17.39-8A76.45,76.45,0,0,1,1452,220.4a77.46,77.46,0,0,1,21.84,3,53.78,53.78,0,0,1,18,9,44.23,44.23,0,0,1,12.32,14.8,43.71,43.71,0,0,1,4.56,20.39H1482.8q-1-14.28-9.73-20.18t-22.15-5.9a48.49,48.49,0,0,0-9.31.93,29.5,29.5,0,0,0-8.7,3.11,19.06,19.06,0,0,0-6.52,5.89,16,16,0,0,0-2.58,9.32q0,7.88,4.86,12.32a31.3,31.3,0,0,0,12.73,6.72l6.52,1.76q5.68,1.56,12.73,3.42t13.77,3.62q6.72,1.77,9.62,2.59a43.28,43.28,0,0,1,12.63,6.21,39.61,39.61,0,0,1,9,9,37.43,37.43,0,0,1,5.39,10.87,39.86,39.86,0,0,1,1.76,11.59q0,12.42-5.08,21.22a43,43,0,0,1-13.35,14.39,58.09,58.09,0,0,1-18.83,8.17,89.91,89.91,0,0,1-21.53,2.59,88.61,88.61,0,0,1-23.81-3.1,55.72,55.72,0,0,1-19.46-9.53,46.48,46.48,0,0,1-13.24-16.45q-5-10-5.18-23.7Z"/></svg>