<svg xmlns="http://www.w3.org/2000/svg" viewBox="0 0 1870 188"><defs><style>.cls-1,.cls-2{fill:none;stroke:#000;}.cls-1{stroke-miterlimit:10;stroke-width:4px;}.cls-2{stroke-linecap:square;stroke-width:3.5px;}</style></defs><g id="Layer_9" data-name="Layer 9"><path d="M925,177a78.5,78.5,0,1,1,78.5-78.5A78.58,78.58,0,0,1,925,177Zm3.42-7,1.15-.18c12.19-1.94,23.12-11.42,30.77-26.68l.73-1.45H928.42Zm-38.76-26.86c7.65,15.26,18.58,24.74,30.77,26.68l1.15.18V141.67H888.93Zm78.49-.86a75.4,75.4,0,0,1-11.42,18.3L958,162.1a71.42,71.42,0,0,0,22.95-18.81l1.3-1.62H968.41Zm-99,1a71.42,71.42,0,0,0,22.95,18.81l1.22-1.54a74.8,74.8,0,0,1-11.42-18.3l-.26-.59H867.8Zm107.75-40.41a109.9,109.9,0,0,1-5.37,30.64l-.44,1.31h15.67l.29-.5A70.64,70.64,0,0,0,996.44,103l.07-1.06H976.89Zm-48.43,32h35.49l.24-.66A103.43,103.43,0,0,0,970,103l0-1H928.42ZM880,103a102.93,102.93,0,0,0,5.87,31.21l.24.66h35.49V101.92H879.94Zm-26.42,0A70.64,70.64,0,0,0,863,134.33l.29.5H879l-.44-1.31a109.9,109.9,0,0,1-5.37-30.64l0-1H853.49Zm117.92-39.5a109.9,109.9,0,0,1,5.37,30.64l0,1h19.62L996.44,94A70.64,70.64,0,0,0,987,62.67l-.29-.5H971Zm-43.06,31.6h41.64l0-1a102.93,102.93,0,0,0-5.87-31.21l-.24-.66H928.42ZM885.85,62.83A102.93,102.93,0,0,0,880,94l0,1h41.64V62.17H886.09ZM863,62.67A70.75,70.75,0,0,0,853.56,94l-.07,1.06h19.62l0-1a110,110,0,0,1,5.37-30.64l.43-1.31H863.28Zm93.74-26.23a75.59,75.59,0,0,1,11.42,18.3l.26.59H982.2l-1.3-1.62A71.38,71.38,0,0,0,958,34.9ZM928.42,55.33h32.65l-.73-1.45c-7.66-15.27-18.59-24.74-30.77-26.68L928.42,27Zm-8-28.13c-12.19,1.94-23.12,11.41-30.77,26.68l-.73,1.45h32.65V27Zm-28.38,7.7A71.42,71.42,0,0,0,869.1,53.71l-1.3,1.62h13.78l.27-.59a74.8,74.8,0,0,1,11.42-18.3Z"/><path d="M1235.87,53.74A2,2,0,0,0,1234,53a2.46,2.46,0,0,0-.46.08L1115,85.34a2,2,0,0,0-.1,3.92l43.38,14.22-3.88,31a2,2,0,0,0,2,2.3,2,2,0,0,0,1.24-.42l15.88-12.16,13.92,19.89a2,2,0,0,0,1.68.87h.14a2.06,2.06,0,0,0,1.68-1.11L1236.09,56A2,2,0,0,0,1235.87,53.74Zm-14.21,6.83-61.41,39.24L1122.67,87.5Zm-62.58,69.61,2.82-22.6,9.32,13.31Zm29.81,8.82-25.46-36.37,65.64-41.93Z"/><path d="M684.2,144.29a212.93,212.93,0,0,1-24.85-21.57C644.13,107.14,636,92.83,635.84,81.36c-.11-8,3.42-14.82,10.51-20.22a25.8,25.8,0,0,1,15.88-5.57c7.2,0,15.1,3.12,22.83,9l.61.47.6-.47c7.74-5.91,15.63-9,22.84-9A25.77,25.77,0,0,1,725,61.14c7.09,5.4,10.63,12.21,10.52,20.22-.16,11.47-8.29,25.78-23.52,41.36a211.81,211.81,0,0,1-24.85,21.57l-1.46,1.05Zm-22-83.71a20.84,20.84,0,0,0-12.84,4.55c-5.83,4.45-8.63,9.73-8.54,16.16.14,10.41,8.1,23.84,23,38.84a215.07,215.07,0,0,0,21.2,18.54l.61.46.6-.46a214.91,214.91,0,0,0,21.21-18.54c14.91-15,22.86-28.43,23-38.84.09-6.43-2.7-11.71-8.54-16.16a20.81,20.81,0,0,0-12.83-4.55c-8.52,0-16.57,5.25-21.83,9.64l-1.61,1.35-1.61-1.35C678.8,65.83,670.74,60.58,662.23,60.58Z"/><path d="M400.78,80.38a88.35,88.35,0,0,1,120.06,0l-4.17,4.17a82.47,82.47,0,0,0-111.72,0Z"/><path d="M417.92,97.51a64.2,64.2,0,0,1,85.78,0l-4.17,4.17a58.29,58.29,0,0,0-77.44,0Z"/><path d="M435.08,114.67a40,40,0,0,1,51.46,0l-4.18,4.18a34.14,34.14,0,0,0-43.1,0Z"/><path d="M452.55,132.15a15.58,15.58,0,0,1,16.52,0l-8.26,8.25Z"/><path class="cls-1" d="M1436.35,122.77c-3.43-6.47-15.32-13.49-15.84-13.8a9.48,9.48,0,0,0-4.62-1.33,5.76,5.76,0,0,0-5.14,2.86,53.5,53.5,0,0,1-4.42,4.89c-4,2.75-7.22,2.44-10.73-1.07L1376,94.73c-3.48-3.49-3.8-6.7-1.07-10.73a56.08,56.08,0,0,1,4.89-4.43,5.66,5.66,0,0,0,2.64-3.4,8.46,8.46,0,0,0-1.11-6.37c-.3-.5-7.32-12.4-13.79-15.82a8.42,8.42,0,0,0-9.89,1.48l-4.33,4.33c-6.85,6.85-9.33,14.61-7.37,23.06,1.63,7.05,6.38,14.55,14.13,22.29l25.08,25.09C1395,140,1404.33,145,1413,145h0c6.35,0,12.27-2.7,17.58-8l4.33-4.33A8.37,8.37,0,0,0,1436.35,122.77Z"/><path d="M1553,144.5a6.12,6.12,0,0,1-6.11-6.11v-4.5a1.61,1.61,0,0,1,1.61-1.61h2.89V61.86a8.37,8.37,0,0,1,8.36-8.36h103.53a8.37,8.37,0,0,1,8.37,8.36v70.42h2.89a1.61,1.61,0,0,1,1.61,1.61v4.5a6.12,6.12,0,0,1-6.11,6.11Zm-2.89-6.11a2.89,2.89,0,0,0,2.89,2.89h117a2.9,2.9,0,0,0,2.89-2.89V135.5h-48.59l0,.64a1.61,1.61,0,0,1-1.61,1.61h-22.51a1.62,1.62,0,0,1-1.61-1.61l.05-.64h-48.59Zm9.64-81.67a5.14,5.14,0,0,0-5.14,5.14v70.42h113.82V61.86a5.15,5.15,0,0,0-5.15-5.14Z"/><path d="M1562,126.49a1.61,1.61,0,0,1-1.61-1.61V64.11A1.62,1.62,0,0,1,1562,62.5h99a1.62,1.62,0,0,1,1.61,1.61v60.77a1.61,1.61,0,0,1-1.61,1.61Zm1.61-3.22h95.81V65.72h-95.81Z"/><rect class="cls-2" x="233.59" y="53.66" width="51.2" height="88" rx="2.6"/><rect class="cls-2" x="251.99" y="55.66" width="14.4" height="0.6"/><path d="M120.4,144.64a1.7,1.7,0,0,1-1.59-1.1l-3.39-9.08-1,.18V143a1.69,1.69,0,1,1-3.38,0v-8.31l-1-.18-3.39,9.08a1.69,1.69,0,1,1-3.17-1.18l7.52-20.16V94.31L88.5,111.48v7.71c0,5.52-8.83,11.38-25.2,11.38s-25.17-5.86-25.17-11.38v-7.71L12.85,92.25a1.67,1.67,0,0,1-.67-1.37,1.71,1.71,0,0,1,.7-1.35L62.33,54a1.66,1.66,0,0,1,1-.32,1.71,1.71,0,0,1,1,.3l49.48,35.59a1.7,1.7,0,0,1,.7,1.35V122.2L122,142.36a1.71,1.71,0,0,1-1,2.18A1.74,1.74,0,0,1,120.4,144.64ZM63.34,105.51c-10.21,0-19.37,4.13-21.79,9.83l0,.09v3.76c0,3.78,8.94,8,21.78,8,12.49,0,21.82-4.23,21.82-8v-3.76l0-.09C82.68,109.64,73.53,105.51,63.34,105.51Zm0-14.93c-11.83,0-21.82,5.87-21.82,12.83v6.2l.82-.72c4.89-4.23,12.74-6.76,21-6.76s16.07,2.53,21,6.75l.83.72v-6.19C85.12,96.45,75.15,90.58,63.34,90.58Zm0-3.38a33.72,33.72,0,0,1,17.49,4.5c4.94,3.07,7.67,7.22,7.67,11.71v3.83l21.42-16.3L63.32,57.41,16.71,90.94l21.42,16.3v-3.83c0-4.49,2.74-8.64,7.7-11.71A33.82,33.82,0,0,1,63.34,87.2Z"/><path d="M1797.48,142.14a9.8,9.8,0,0,1-9.88-9.7V66.71a12.67,12.67,0,0,1,12.76-12.57h60a1.86,1.86,0,0,1,1.84,1.83c0,22.41-.06,64.67-.12,68.28l0,.09,0,.37a3.2,3.2,0,0,1-1.27,2.18h0a7.07,7.07,0,0,0-2.83,5.85,7.74,7.74,0,0,0,3.58,6.33,1.59,1.59,0,0,1,.41,1.86,1.93,1.93,0,0,1-1.78,1.21Zm0-15.72a6.12,6.12,0,0,0-6.21,6,6.06,6.06,0,0,0,6.21,6h59l-2.19-3.15a5.63,5.63,0,0,1,.08-5.87l1.81-3Zm2.89-68.61a9,9,0,0,0-9.08,8.9v57.75l2.72-1a9.53,9.53,0,0,1,3.49-.66h61V57.81Z"/></g></svg>