<svg xmlns="http://www.w3.org/2000/svg" viewBox="0 0 1136 345"><defs><style>.cls-1,.cls-2{fill:none;stroke:#ffde59;stroke-miterlimit:10;}.cls-1{stroke-width:4px;}.cls-2{stroke-width:5px;}.cls-3{fill:#fff;}.cls-4{fill:#ffde59;}.cls-5{fill:#73d34e;}.cls-6{fill:#31adff;}</style></defs><g id="Layer_4" data-name="Layer 4"><path class="cls-1" d="M405,29c-4.46,51.14-7.63,105.22-9,162q-1.54,64.37,0,124l366-2c4.87-47.48,8.44-98.26,10-152,1.23-42.21,1.12-82.6,0-121Z"/><path class="cls-1" d="M21,11,382,28c.6,54.52-.54,112-4,172q-2.73,47.26-7,92-74.62.66-153-1-108-2.37-209-9c0-43.3.94-88.35,3-135Q15.12,76.34,21,11Z"/><path class="cls-2" d="M811,53a833.89,833.89,0,0,1,2,94,837.22,837.22,0,0,1-21,159c48.4,7.08,100,13.12,154.5,17.5,56.8,4.57,110.77,6.86,161.5,7.5a909,909,0,0,0,13-270c-50.34,1.7-103.6,2-159.5.5C908.81,60.05,858.57,57.07,811,53Z"/><path class="cls-3" d="M343.61,260.78,335.36,264a4.86,4.86,0,1,1-3.57-9l2.26-.89a2.44,2.44,0,0,0,1.37-3.16l-.48-1.21a3.09,3.09,0,0,0-3.28-1.83l-5,.9a14.75,14.75,0,0,0-4.43,1.75l-9.8,6.32a3.11,3.11,0,0,0-1.15,3.58l.63,1.58L313.1,265l.89,2.26a16.2,16.2,0,0,0,31.24-5.06C345.27,261.51,345.08,260.21,343.61,260.78Z"/><path class="cls-3" d="M322.62,245a1.94,1.94,0,0,0,1.23-1.9c0-.21-5.55-17.89-5.94-18.88a3.24,3.24,0,1,0-6,2.38c.39,1,8.4,17.69,8.54,17.85A2,2,0,0,0,322.62,245Z"/><path class="cls-3" d="M309.61,252.06c-.12-.13-10-6.64-10.86-7.06a2.8,2.8,0,1,0-2.6,5c.81.42,11.8,4.88,12,4.91a1.68,1.68,0,0,0,1.48-2.82Z"/><path class="cls-3" d="M350.58,235.24a4,4,0,0,0-5.32,2.1c-.53,1.21-4.51,14.55-4.53,14.81a2.43,2.43,0,0,0,4.21,1.83c.18-.19,7.22-12.2,7.74-13.42A4,4,0,0,0,350.58,235.24Z"/><path class="cls-3" d="M313.56,249.49a1.94,1.94,0,0,0,2.79-2.38c-.07-.2-10-13.88-10.71-14.69a3.24,3.24,0,0,0-4.93,4.21C301.4,237.44,313.38,249.39,313.56,249.49Z"/><path class="cls-3" d="M330.55,243.49a2,2,0,0,0,1.78-1.4c.06-.2.66-17.1.61-18.16a3.24,3.24,0,1,0-6.47.28c0,1.06,2.11,17.85,2.18,18A2,2,0,0,0,330.55,243.49Z"/><path class="cls-4" d="M330.34,117.86l8.57-2.29a4.86,4.86,0,1,0-2.51-9.39l-2.34.63a2.45,2.45,0,0,1-3-1.72l-.34-1.27a3.1,3.1,0,0,1,1.56-3.42l4.53-2.22a14.46,14.46,0,0,1,4.6-1.23l11.64-.74a3.09,3.09,0,0,1,3.05,2.19l.44,1.64.81,3,.63,2.35a16.2,16.2,0,0,1-28.14,14.5C329.44,119.42,328.82,118.26,330.34,117.86Z"/><path class="cls-4" d="M337.83,92.68a2,2,0,0,1-2.12-.8c-.12-.17-6.17-17.68-6.45-18.71a3.24,3.24,0,0,1,6.26-1.67c.28,1,3.76,19.22,3.74,19.43A1.94,1.94,0,0,1,337.83,92.68Z"/><path class="cls-4" d="M352.49,90.63c0-.18,4.14-11.3,4.54-12.13A2.81,2.81,0,1,1,362.08,81c-.4.82-6.59,10.94-6.72,11.07a1.69,1.69,0,0,1-2.87-1.39Z"/><path class="cls-4" d="M309.55,101.46a4,4,0,0,1,5.53-1.48c1.15.66,12.27,9,12.44,9.22a2.41,2.41,0,0,1,.27,2.81,2.44,2.44,0,0,1-2.57,1.17c-.25-.05-13.05-5.53-14.2-6.19A4.05,4.05,0,0,1,309.55,101.46Z"/><path class="cls-4" d="M347.8,90.91a1.94,1.94,0,0,1-3.67-.25c-.06-.21-.18-17.12-.11-18.18a3.24,3.24,0,0,1,6.46.46C350.41,74,347.88,90.72,347.8,90.91Z"/><path class="cls-4" d="M330.56,96.18a1.94,1.94,0,0,1-2.26-.06C328.14,96,317.61,82.76,317,81.88a3.24,3.24,0,1,1,5.37-3.62c.59.87,8.91,15.61,9,15.81A2,2,0,0,1,330.56,96.18Z"/></g><g id="Layer_5" data-name="Layer 5"><path class="cls-3" d="M42.86,97.61c1-23.12,1.79-46.25,2.89-69.37a5.53,5.53,0,0,1,1-3.5A6.12,6.12,0,0,1,49.65,23a12.32,12.32,0,0,1,6-.28,15,15,0,0,1,10.13,7.46c4.17,7.46,2.49,17-3,23.3-5.66,6.55-14.78,10.26-23.35,8.22-1.88-.45-2.68,2.44-.8,2.89,8.56,2,17.62-.86,24-6.71C69.6,51.67,72.87,42,70.2,33a18.82,18.82,0,0,0-8.9-11.36,16.16,16.16,0,0,0-13.52-1.11A7.31,7.31,0,0,0,43,26.08a74.7,74.7,0,0,0-.5,9.35l-.79,18.9-1.8,43.28c-.08,1.93,2.92,1.93,3,0Z"/><path class="cls-3" d="M81.39,94.45q-.33-17.24.07-34.49c.07-2.78,0-5.64.26-8.4.11-1.08.44-1.63,1.59-1.63a5.79,5.79,0,0,1,2.64.71,9.28,9.28,0,0,1,4.4,9.46c-.84,4.87-4.79,8.5-9,10.66a1.5,1.5,0,0,0-.54,2Q88.36,84.29,97,95c1.21,1.5,3.32-.63,2.12-2.12Q90.73,82.48,83.4,71.3l-.54,2c4.5-2.31,8.5-6.09,10-11a12.55,12.55,0,0,0-3.33-12.75,9.58,9.58,0,0,0-6.06-2.64c-2.94-.14-4.55,1.86-4.78,4.62-.26,3.19-.21,6.44-.28,9.64q-.12,5.22-.17,10.42-.1,11.41.12,22.83c0,1.93,3,1.93,3,0Z"/><path class="cls-3" d="M100.25,52.48a135.4,135.4,0,0,0-.61,28.88q.3,3.48.78,6.93a11.79,11.79,0,0,0,1.73,5.24c1.95,2.76,5.49,3.34,8.53,2.16,8.13-3.17,6.88-13.41,6.64-20.42l-.48-14.39c-.12-3.44-.29-7-1.8-10.13s-5-5.44-8.65-4.39a7.76,7.76,0,0,0-5.62,8.58c.32,1.9,3.21,1.09,2.89-.8-.42-2.54,2.11-5,4.54-5.06,2.61-.09,4.14,2.47,4.78,4.64.9,3,.83,6.23.93,9.35l.39,11.71c.13,3.65.54,7.45,0,11.08-.41,2.85-1.6,5.66-4.36,6.9-2.39,1.06-4.93.51-5.93-2.06a20.26,20.26,0,0,1-.94-4.94q-.37-3.17-.61-6.35a136.2,136.2,0,0,1,.77-26.93c.24-1.91-2.76-1.89-3,0Z"/><path class="cls-3" d="M129.27,45c-3.31-1.64-7.09-.41-9.5,2.24-3,3.36-3.06,8-2.39,12.25.8,4.95,2,9.85,3.09,14.75l3.26,15.27c.4,1.89,3.3,1.09,2.89-.79q-2.76-13-5.54-25.94c-.79-3.71-2-8.12-.29-11.75,1.12-2.42,4.26-4.78,7-3.44,1.73.86,3.25-1.73,1.52-2.59Z"/><path class="cls-3" d="M125.7,59.08l-.1.13-.1.12-.34.41c-.23.26-.48.52-.73.76s-.54.52-.82.76l-.41.33c-.14.12.21-.15,0,0l-.24.17a14.63,14.63,0,0,1-1.86,1.13,6.36,6.36,0,0,1-1,.45c.32-.11.05,0,0,0l-.28.1-.55.2a1.5,1.5,0,1,0,.79,2.89,16.79,16.79,0,0,0,8.22-6,1.51,1.51,0,0,0-.54-2.06,1.55,1.55,0,0,0-2,.54Z"/><path class="cls-3" d="M144,43.72c-2.46-2.92-7.2-1.88-9.39.82-3,3.73-2.11,9.34-1.88,13.76q.42,8.4,1,16.78.32,4.32.69,8.63c.18,2.16.13,4.71,1.91,6.25s5.11,1.77,7.5,1.89a31.16,31.16,0,0,0,8.82-.88c1.87-.45,1.08-3.34-.8-2.89-3.91.94-8.68,1.38-12.58.11-2-.65-1.73-3-1.88-4.73-.19-2.21-.36-4.43-.53-6.65q-.53-6.9-.92-13.82-.19-3.45-.36-6.92a37.06,37.06,0,0,1,0-6c.21-1.78.83-3.68,2.47-4.6,1.27-.72,2.84-.85,3.83.34,1.24,1.48,3.35-.66,2.12-2.13Z"/><path class="cls-3" d="M145.33,66.49a12.75,12.75,0,0,0-9.51.71,1.5,1.5,0,0,0-.54,2,1.53,1.53,0,0,0,2.05.54s.56-.26.29-.14l.4-.16q.48-.17,1-.3a8.13,8.13,0,0,1,1-.21l.28,0q-.24,0,0,0l.5,0a12.13,12.13,0,0,1,2,.06h0l.28,0,.49.1c.35.08.7.18,1,.29a1.5,1.5,0,0,0,1.84-1,1.53,1.53,0,0,0-1-1.85Z"/><path class="cls-3" d="M162.13,42.81a43.87,43.87,0,0,0-9.53,2.75c-2.47,1-5,2.44-6.33,4.85-2.87,5.11,1.14,10.35,5.43,13S161.57,66.34,166,69c4.92,3,5.47,9,3.37,14a16.65,16.65,0,0,1-13,10c-1.9.22-1.92,3.22,0,3a19.49,19.49,0,0,0,13.25-7.56c3.24-4.21,5-10.06,3.34-15.28s-6.63-7.7-11.61-9.23c-2.52-.78-5.16-1.34-7.48-2.64s-4.57-3.17-5.35-5.7c-1-3.07,1.32-5.29,3.84-6.59a37.13,37.13,0,0,1,10.57-3.24c1.89-.32,1.09-3.22-.8-2.89Z"/><path class="cls-3" d="M182.25,41.85A79.37,79.37,0,0,0,173.53,45,23,23,0,0,0,167,48.8a7.9,7.9,0,0,0-2.83,6,8,8,0,0,0,3.13,5.69,31.86,31.86,0,0,0,6.24,3.63,41.46,41.46,0,0,1,7.23,4.36c4.15,3.27,7.62,8.31,6.94,13.84-.62,5-5.79,9.26-10.8,7.21-1.79-.73-2.57,2.17-.8,2.89,4.45,1.82,9.53-.36,12.31-4,3.28-4.32,2.79-10.24.47-14.88-2.48-5-7.16-8.44-12-11-3.09-1.66-11-4.09-9.63-9,.71-2.53,3.56-4.08,5.77-5.11a69.75,69.75,0,0,1,10-3.72c1.84-.54,1.06-3.44-.8-2.89Z"/><path class="cls-3" d="M183.18,52.91l8,28c1,3.52,2.16,7.63,5.72,9.4,3.26,1.62,7,.61,8.46-2.85a13.28,13.28,0,0,0,.87-4.91c.06-2.41,0-4.82-.07-7.23-.16-4.75-.56-9.5-1.18-14.22-1-7.42-2.69-16.79-11-19.38-7.36-2.3-14.83,5.68-12,12.91.7,1.78,3.6,1,2.89-.8-1.92-4.88,2.7-10.73,7.94-9.32,7,1.89,8.31,10.54,9.11,16.59q.81,6.1,1.1,12.25a63.1,63.1,0,0,1,0,10.91,5,5,0,0,1-1.47,3.37,3.31,3.31,0,0,1-3.71-.17c-2.87-1.77-3.49-6.05-4.34-9l-7.58-26.3a1.5,1.5,0,0,0-2.89.8Z"/><path class="cls-3" d="M216.8,90.84a112.54,112.54,0,0,1-8.7-37.77c-.08-1.43-.16-2.88-.12-4.31a5.13,5.13,0,0,1,.92-3.33c1.7-1.86,5.21-.3,7,.71,4.17,2.37,7.52,7.31,6.6,12.27s-6.3,9.24-11.45,7.8l-.4,3c4.9-.45,8.2,4.39,9.56,8.52,1.69,5.12,2.13,10.74,5.46,15.19,1.14,1.53,3.75,0,2.59-1.52-3.62-4.83-3.58-11.12-5.94-16.5-2-4.6-6.21-9.19-11.67-8.69a1.5,1.5,0,0,0-.4,2.94c5.64,1.58,11.68-1.83,14.14-7,2.62-5.48.7-11.84-3.5-16-3.7-3.62-13-7.78-15.4-.61-1,3-.44,6.71-.22,9.82q.42,5.74,1.4,11.42a113.81,113.81,0,0,0,7.27,24.84,1.55,1.55,0,0,0,1.85,1,1.5,1.5,0,0,0,1-1.84Z"/><path class="cls-3" d="M239.61,46.53c-3.52-2.33-8.32-.13-10.19,3.33-2.55,4.75-.9,10.78-.19,15.79.77,5.38,1.29,10.86,2.38,16.18.73,3.63,2,7.71,5,10.16a8.33,8.33,0,0,0,12.32-1.74c1.1-1.59-1.5-3.09-2.59-1.51a5.3,5.3,0,0,1-8.14.65c-2.12-2.08-3-5.21-3.63-8-.9-4.2-1.31-8.55-1.92-12.8l-1-7.14a33.47,33.47,0,0,1-.53-6.31,7,7,0,0,1,2.47-5.53,3.86,3.86,0,0,1,4.52-.45c1.61,1.06,3.12-1.53,1.51-2.59Z"/><path class="cls-3" d="M240.23,65.5l-9.42,1.22a1.54,1.54,0,0,0-1.5,1.5c0,.73.67,1.61,1.5,1.5l9.42-1.22a1.54,1.54,0,0,0,1.5-1.5c0-.73-.67-1.61-1.5-1.5Z"/><path class="cls-3" d="M263.31,47.89a25,25,0,0,0-14.75,6.67c-1.93,1.83-4.08,4.22-4.58,6.92a7,7,0,0,0,2.87,6.68c2.38,1.89,5.4,2.31,8.31,2.81a24,24,0,0,1,7.24,2.36c3.94,2.08,7.61,5.91,6.13,10.71-2,6.67-10.17,8.11-16.06,9.13-1.9.33-1.09,3.22.8,2.89,5.59-1,11.68-2.18,15.58-6.7,3.29-3.82,4.1-9.2,1.13-13.47-2.74-3.92-7.39-6.26-11.93-7.38-2.85-.71-6.06-.67-8.64-2.2a5.47,5.47,0,0,1-2.32-2.55c-.57-1.45.09-2.8.91-4a21.44,21.44,0,0,1,15.31-8.86c1.91-.19,1.93-3.19,0-3Z"/><path class="cls-3" d="M278.64,89.21a18,18,0,0,1-.12,2.07c0,.18,0,.19,0,0,0,.1,0,.2,0,.29s-.05.3-.08.44c-.06.37-.15.73-.24,1.09a16.73,16.73,0,0,1-.63,2l-.11.26-.21.47q-.24.51-.51,1a1.5,1.5,0,0,0,2.59,1.52,19,19,0,0,0,2.36-9.14,1.5,1.5,0,1,0-3,0Z"/><path class="cls-3" d="M45.72,160.51l-.1-24.26c0-4.11,0-8.23,0-12.34,0-2.9.22-6,2.75-7.8,4.23-3.12,10.15-1.56,13.56,2,4.55,4.67,6.12,11.77,7.23,18a77.58,77.58,0,0,1,.2,26l2.51-.66-2.58-2.89c-1.29-1.44-3.41.69-2.12,2.13l2.58,2.88a1.5,1.5,0,0,0,2.5-.66,82.49,82.49,0,0,0,.19-25.29c-1-7.08-2.75-14.85-7.4-20.52-3.77-4.6-10-7-15.79-4.76a9.77,9.77,0,0,0-5.77,5.46,16.18,16.18,0,0,0-.86,6c0,2.2,0,4.41,0,6.62l.12,30.2a1.5,1.5,0,0,0,3,0Z"/><path class="cls-3" d="M47.32,142.09h22a1.5,1.5,0,0,0,0-3h-22a1.5,1.5,0,0,0,0,3Z"/><path class="cls-3" d="M69.63,110.1l3.21,27.29,1.59,13.52.81,6.89c.2,1.67.07,3.95,1.3,5.27,1.43,1.55,3.95,1.12,5.84,1.09l7.92-.1a1.5,1.5,0,0,0,0-3l-6.19.08-3,0c-.6,0-2,.29-2.43-.2s-.31-1.85-.38-2.45L78,155.34l-.72-6.15L74.3,124.36,72.63,110.1c-.23-1.9-3.23-1.92-3,0Z"/><path class="cls-3" d="M134.08,161.54l-3.59-47.63L127.93,115a120.53,120.53,0,0,1,31,37.22,1.52,1.52,0,0,0,2.8-.76,291.11,291.11,0,0,1-.28-40.28c.12-1.93-2.88-1.92-3,0a291.11,291.11,0,0,0,.28,40.28l2.79-.76a122.62,122.62,0,0,0-31.46-37.82c-.91-.73-2.67-.37-2.56,1.06l3.59,47.63c.15,1.91,3.15,1.93,3,0Z"/><path class="cls-3" d="M173.47,106.17a48.21,48.21,0,0,0-9.29,24.69,45.13,45.13,0,0,0,.79,13.37c.84,3.94,2.5,8,5.7,10.59a10.79,10.79,0,0,0,10,2c4.07-1.36,5.54-5.05,5.81-9.05.34-5.16.41-10.35.61-15.52.2-5,.81-10.27-.55-15.15-1.15-4.15-4.25-8.44-8.74-9.25-4-.72-8.34,1.3-9.59,5.3-.57,1.85,2.32,2.64,2.9.8.84-2.73,4.26-3.82,6.8-3,3.34,1.1,5.25,4.59,6,7.82.94,4.21.41,8.71.24,13q-.26,6.83-.53,13.64c-.12,3.13-.07,7.17-3.56,8.48a7.8,7.8,0,0,1-7.9-1.78c-2.58-2.45-3.73-6-4.38-9.4a43,43,0,0,1-.58-11.21,45.44,45.44,0,0,1,8.93-23.79c1.15-1.55-1.45-3-2.59-1.52Z"/><path class="cls-3" d="M209.54,104.61c-6.73.89-14.52,2-19.31,7.36-3.5,3.92-4.63,10.71-1.54,15.21,1.89,2.75,4.83,3.81,8.09,3.9,2.15.06,4.3-.06,6.46.11a42.87,42.87,0,0,1,6.66,1c2.75.63,8,1.61,7.92,5.36s-4.11,6.46-6.83,8.32a62.08,62.08,0,0,1-24.66,9.94c-1.89.33-1.09,3.22.8,2.9a64.75,64.75,0,0,0,22-8.06c3.27-1.94,6.77-4.12,9.19-7.1,2.14-2.65,3.58-6.33,1.56-9.49s-5.85-4-9.13-4.77a54.67,54.67,0,0,0-12.82-1.23c-3,0-5.92-.55-7.26-3.57a10.18,10.18,0,0,1,0-7.33c2.57-7.37,12.34-8.69,19-9.57a1.55,1.55,0,0,0,1.5-1.5,1.5,1.5,0,0,0-1.5-1.5Z"/><path class="cls-3" d="M285.34,109.77q-11.18-.24-22.37.12c-3,.09-6.37.18-7.13,3.74a28.48,28.48,0,0,0-.28,4.88c-.05,2-.08,4-.11,5.94q-.12,11.12.35,22.24c.13,3.06-.07,6.5.84,9.46s3.23,4.51,6.18,5.08a58.91,58.91,0,0,0,23.91-.65c1.88-.43,1.09-3.32-.8-2.89a58.25,58.25,0,0,1-19.12,1.1c-2.42-.26-6-.33-7.1-2.94a10.14,10.14,0,0,1-.62-3.36c-.11-1.69-.18-3.37-.26-5.06q-.43-9.88-.4-19.77c0-3.3.06-6.59.15-9.89,0-1.15-.22-3,.35-4s3.17-.82,4.29-.86q11.05-.34,22.12-.11c1.93,0,1.93-3,0-3Z"/><path class="cls-3" d="M279,133.9a107.93,107.93,0,0,0-22.43.94,1.5,1.5,0,0,0-1,1.84,1.52,1.52,0,0,0,1.84,1A104.35,104.35,0,0,1,279,136.9c1.93.13,1.92-2.87,0-3Z"/><path class="cls-3" d="M28,223.49a95.38,95.38,0,0,0-1-29.06c-.45-2.38-1-4.73-1.62-7.07-.31-1.13-.64-2.25-1-3.37a8.91,8.91,0,0,1-.67-3.29c.17-1.94,2.34-2.11,3.88-2.1,2.41,0,4.84.2,7.24.32l17.73.84c1.93.09,1.92-2.91,0-3L35.87,176c-2.68-.13-5.38-.35-8.07-.37A8.1,8.1,0,0,0,22.51,177c-1.81,1.48-2,3.79-1.51,5.93.54,2.45,1.44,4.82,2,7.26a90.61,90.61,0,0,1,2.44,15.53A95,95,0,0,1,25,223.49c-.23,1.91,2.77,1.89,3,0Z"/><path class="cls-3" d="M37.88,196.79a22.43,22.43,0,0,0-12.29,2.26,1.51,1.51,0,0,0-.54,2,1.53,1.53,0,0,0,2.05.54,19.55,19.55,0,0,1,10.78-1.85,1.5,1.5,0,0,0,0-3Z"/><path class="cls-3" d="M43.46,181.49a180.05,180.05,0,0,0,2.27,23.06c1,6.1,1.88,12.9,5.18,18.28a13.07,13.07,0,0,0,5.7,5.27c2.54,1.12,5.88,1.34,7.68-1.17a7.87,7.87,0,0,0,1.2-4.17c.13-1.89.12-3.8.16-5.7q.12-6,0-11.92-.14-13.41-1.19-26.79c-.15-1.91-3.15-1.93-3,0a399.92,399.92,0,0,1,1,42.68c0,1.26.11,3-.65,4.1s-2.39.86-3.52.47a9.72,9.72,0,0,1-4.88-4.29c-2.91-4.74-3.7-10.74-4.63-16.12a171.17,171.17,0,0,1-2.41-23.7c-.06-1.92-3.06-1.93-3,0Z"/><path class="cls-3" d="M75.84,226.86a73.5,73.5,0,0,1-6.41-46.49l-2.74.36L88.36,223.9a1.51,1.51,0,0,0,2.8-.75l-2-39.55c-.1-1.92-3.1-1.93-3,0l2,39.55,2.79-.76L69.28,179.21a1.52,1.52,0,0,0-2.74.36,76.85,76.85,0,0,0,6.71,48.8c.86,1.73,3.45.21,2.59-1.51Z"/><path class="cls-3" d="M111.27,176.91c-8.42.78-19,2.61-22,11.9-1.56,4.92-.72,10.77.78,15.61a24.9,24.9,0,0,0,8.13,12.45,18.39,18.39,0,0,0,15.52,3.68c1.87-.46,1.08-3.35-.8-2.89-9,2.19-16.75-4.92-19.57-12.86-1.48-4.17-2.41-9.13-1.58-13.53a11.73,11.73,0,0,1,7-8.62c3.86-1.82,8.29-2.35,12.49-2.74,1.9-.18,1.92-3.18,0-3Z"/><path class="cls-3" d="M118.85,177.26q-1.66,22-1.81,44.06a1.5,1.5,0,0,0,3,0q.15-22,1.81-44.06c.14-1.93-2.86-1.92-3,0Z"/><path class="cls-3" d="M124.79,178.32c-.65,10.44-1.35,20.88-1.93,31.32-.2,3.62-.16,7.45,1.37,10.8a9.17,9.17,0,0,0,8.48,5.49,12.47,12.47,0,0,0,9.78-5.39c2.53-3.52,3.37-8,3.76-12.2a61.91,61.91,0,0,0-.47-14.71c-.68-4.57-1.69-9.5-4-13.56s-6.63-7.13-11.37-6a7,7,0,0,0-4.84,9.47c.8,1.75,3.39.23,2.59-1.51a3.6,3.6,0,0,1,.78-3.68,4.49,4.49,0,0,1,4.11-1.46c3.65.5,6,3.81,7.22,7a55.16,55.16,0,0,1,3,24.47c-.56,6.22-3.27,14.94-11.05,14.58-7.15-.33-6.55-9.91-6.25-14.85l1.84-29.75c.12-1.92-2.88-1.92-3,0Z"/><path class="cls-3" d="M154.18,219.26l-2-39.53-2.79.76,19.46,36.83c.67,1.26,3,.74,2.8-.76q-1.87-18.57-3.74-37.15c-.19-1.9-3.2-1.92-3,0q1.86,18.59,3.74,37.15l2.79-.76L152,179a1.51,1.51,0,0,0-2.8.75l2,39.53c.09,1.92,3.09,1.93,3,0Z"/><path class="cls-3" d="M179.17,219.34q-1.15-8.86-1.49-17.8-.17-4.39-.13-8.81a30.19,30.19,0,0,1,.47-6.85c.35-1.47,1-3.43,2.56-4,1.76-.67,3.17.86,4,2.23a27.4,27.4,0,0,1,2.27,6.5q1.19,4.24,2.35,8.51,2.66,9.69,5.18,19.43c.48,1.86,3.38,1.07,2.89-.8q-2.53-9.73-5.18-19.43-1.29-4.73-2.61-9.45a23,23,0,0,0-2.66-6.83,6.56,6.56,0,0,0-5.34-3.3,5.89,5.89,0,0,0-5,3,14,14,0,0,0-1.76,6.1,85.36,85.36,0,0,0-.13,9,193.8,193.8,0,0,0,1.61,22.45c.24,1.88,3.24,1.91,3,0Z"/><path class="cls-3" d="M179.44,205h9.43a1.5,1.5,0,0,0,0-3h-9.43a1.5,1.5,0,0,0,0,3Z"/><path class="cls-3" d="M196.21,172l-7.29,8.43a1.51,1.51,0,0,0,2.13,2.13l7.28-8.44a1.53,1.53,0,0,0,0-2.12,1.51,1.51,0,0,0-2.12,0Z"/><path class="cls-3" d="M205.4,219.2q-1-10.3-1.7-20.64-.34-5.16-.61-10.33c-.09-1.72-.18-3.44-.25-5.17,0-.82-.08-1.64-.11-2.46,0-.4-.2-1.36.14-1.67s1.48-.15,1.94-.15l2.36,0,5,0a28,28,0,0,1,8.8,1c4.67,1.6,8.12,7.67,2.95,11a40.17,40.17,0,0,1-9.44,4,64.09,64.09,0,0,1-10.86,2.43,1.51,1.51,0,0,0-.4,3,63.48,63.48,0,0,1,25,15.42,1.5,1.5,0,0,0,2.13-2.12A66.91,66.91,0,0,0,204,197.25l-.4,2.95c7.19-.95,14.8-2.82,21.18-6.42,2.6-1.47,4.64-3.75,4.79-6.86a9.9,9.9,0,0,0-3.5-7.55,15.55,15.55,0,0,0-8.82-3.31c-3.72-.4-7.51-.24-11.24-.27-1.4,0-3.05-.24-4.34.4-1.5.75-1.94,2.25-1.94,3.83,0,4,.36,8.12.59,12.15q.78,13.53,2.1,27c.18,1.9,3.18,1.92,3,0Z"/><path class="cls-3" d="M233.23,177.32l4.85,42.91c.21,1.9,3.21,1.92,3,0l-4.85-42.91c-.21-1.9-3.21-1.92-3,0Z"/><path class="cls-3" d="M253.46,179.33c-3.1-1.57-6,.45-7.76,3-2.06,2.92-3,6.93-3.49,10.4a37.7,37.7,0,0,0,0,11.47c.54,3.49,1.5,7.35,3.6,10.25,2,2.72,5.23,4.62,8.65,3.81,3.59-.86,5-4.57,6-7.72a44.92,44.92,0,0,0,.87-23.1,42.52,42.52,0,0,0-1.88-6.13,13.32,13.32,0,0,0-3-4.95c-2.47-2.32-6.73-2.61-8.73.48-1,1.63,1.55,3.13,2.59,1.52,1.46-2.26,4.34.18,5.2,1.64a28.43,28.43,0,0,1,2.85,8,41.9,41.9,0,0,1,.09,18.31c-.57,2.55-1.2,5.9-3,7.92s-4.88,1.11-6.55-.68c-1.94-2.07-2.76-5.11-3.37-7.81a33.5,33.5,0,0,1-.78-8.93,33.86,33.86,0,0,1,1.95-9.86c.61-1.68,2.67-6.31,5.19-5,1.72.87,3.24-1.72,1.52-2.59Z"/><path class="cls-3" d="M281.52,177c-5.87-1-12.56-.24-17.66,3.06a8.58,8.58,0,0,0-4.26,6.13,8.32,8.32,0,0,0,2.8,6.61,33.72,33.72,0,0,0,6.78,4.75q4.56,2.76,9.08,5.58,2.06,1.28,4.11,2.58c1.22.78,2.57,1.52,1.94,3.17-.88,2.28-3.24,4.32-5.21,5.66a19.32,19.32,0,0,1-16.28,2.67c-1.85-.55-2.64,2.35-.8,2.9a22.13,22.13,0,0,0,15-1,21.76,21.76,0,0,0,6.36-4.17c1.81-1.71,4-4.15,4.11-6.77.11-3.15-3-4.62-5.27-6.06q-4.51-2.84-9.06-5.61a63.3,63.3,0,0,1-7.57-4.81c-1.78-1.46-3.72-3.62-2.83-6.1,1-2.8,4.64-4.18,7.23-5a23.43,23.43,0,0,1,10.72-.71c1.88.31,2.7-2.58.79-2.89Z"/><path class="cls-4" d="M110.09,229.69c.48,9.09.87,18.18,1.47,27.26.49,7.34,1.65,15.73,7.51,20.87,4.84,4.25,12.3,6,17.63,1.61,2.68-2.2,4.19-5.55,5.07-8.83a52.39,52.39,0,0,0,1.51-12.66c.16-10-1.47-20,0-29.89.28-1.89-2.61-2.71-2.89-.8-1.22,8.09-.52,16.21-.22,24.35a86.77,86.77,0,0,1-.24,12.17A27.47,27.47,0,0,1,137.29,274a9,9,0,0,1-6.87,5,12.25,12.25,0,0,1-8.16-2.45c-5.85-4.11-7.12-11.9-7.62-18.53-.71-9.42-1-18.88-1.55-28.32-.11-1.92-3.11-1.93-3,0Z"/><path class="cls-4" d="M151,281.14,146,233.46l-2.56,1.07c10.84,13.61,17.66,29.82,24.33,45.74a1.5,1.5,0,0,0,2.94-.4,272.27,272.27,0,0,0-.79-50.1c-.21-1.9-3.21-1.92-3,0a272.27,272.27,0,0,1,.79,50.1l3-.4c-6.89-16.43-13.91-33-25.1-47.07a1.51,1.51,0,0,0-2.56,1.06L148,281.14c.2,1.9,3.2,1.92,3,0Z"/><path class="cls-4" d="M176.63,230.77q.81,26.1,3.73,52.08c.12,1,1.23,2,2.26,1.29a5.59,5.59,0,0,0,2.49-3.74c.31-1.89-2.58-2.7-2.9-.8a2.69,2.69,0,0,1-1.1,1.95l2.25,1.3q-2.93-26-3.73-52.08c-.06-1.93-3.06-1.94-3,0Z"/><path class="cls-4" d="M192.82,282.12q-1.08-15-1.84-30.08-.37-7.59-.68-15.18c0-1.16-.09-2.33-.13-3.49,0-.69-.43-2.65.27-3.13s1.79,0,2.38.07c1,.16,2,.33,2.94.53,7.1,1.41,15,4.24,17.81,11.58s.37,15.7-3.06,22.3c-3.7,7.13-9.93,14.52-18.53,15.09-1.91.12-1.93,3.13,0,3,8.6-.57,15.22-6.76,19.55-13.79s7.52-16.29,5.72-24.74c-1.87-8.75-9.41-13.52-17.57-15.63-2.06-.53-4.15-.92-6.24-1.26-1.94-.31-4.28-.59-5.59,1.23s-.67,5-.59,7.24q.17,4.23.36,8.46.84,18.92,2.2,37.8c.14,1.91,3.14,1.93,3,0Z"/><path class="cls-4" d="M222.11,243.35a123.72,123.72,0,0,0-.13,16.11c.26,4.37.5,9,1.91,13.16,1.16,3.42,3.21,6.63,6.7,8,3.9,1.51,8-.17,10.94-2.87,7-6.51,6.82-17.42,6.69-26.21-.07-4.33-.36-9-3.18-12.49-2.39-3-6.08-4.31-9.8-4.55a23.6,23.6,0,0,0-12.8,2.73,6.19,6.19,0,0,0-3.33,4.92,4.48,4.48,0,0,0,3,4.61c1.83.63,2.61-2.27.79-2.89-1.08-.37-.88-2-.38-2.78.9-1.34,2.68-1.92,4.14-2.39a22.21,22.21,0,0,1,9.43-1.13,9.62,9.62,0,0,1,7.38,4.44c1.87,3.22,1.75,7.22,1.78,10.81.08,7.31.24,16.42-5.14,22.12-2.21,2.35-5.6,4.2-8.81,2.73-2.62-1.19-4-4-4.75-6.65-1.19-4-1.39-8.36-1.6-12.53a121.24,121.24,0,0,1,.18-15.13c.14-1.93-2.86-1.92-3,0Z"/><path class="cls-4" d="M270.2,230.2c-6.27.89-13.29,2.88-15.66,9.48-1.73,4.79.87,9.23,5,11.56,3.94,2.21,8.54,3,12.34,5.49a8.42,8.42,0,0,1,3.9,5.43,10.89,10.89,0,0,1-1.42,7.35c-3.64,6.4-11.79,7.78-18.5,8.07-1.92.08-1.93,3.08,0,3,6.34-.28,13.12-1.41,18-5.76,4-3.57,6.31-9.85,4.31-15-1.8-4.67-6.43-6.79-10.81-8.46-3.44-1.32-8.49-2.56-10-6.36-1.25-3.05.45-6.36,2.85-8.31,3-2.4,7.05-3,10.73-3.55,1.9-.27,1.09-3.16-.8-2.9Z"/><path class="cls-3" d="M93.32,114.71c0,7.57.39,15.14,1.12,22.67.36,3.61.72,7.25,1.34,10.82a21,21,0,0,0,3.42,9,11.76,11.76,0,0,0,7,4.77,6.92,6.92,0,0,0,7.47-2.88c1.54-2.48,1.51-5.7,1.62-8.52.14-3.66.11-7.33-.1-11a117.87,117.87,0,0,0-4-24.4,1.5,1.5,0,0,0-2.89.8,114,114,0,0,1,3.59,19.31q.48,5,.51,10a68.18,68.18,0,0,1-.31,9c-.31,2.45-1.3,4.81-4.13,4.79-2.58,0-4.89-1.75-6.33-3.77a19,19,0,0,1-2.89-8c-.58-3.32-.91-6.68-1.24-10-.73-7.53-1.1-15.1-1.12-22.67a1.5,1.5,0,0,0-3,0Z"/></g><g id="Layer_6" data-name="Layer 6"><path class="cls-3" d="M435.12,95.47q-1.17-10.78-1.38-21.64-.09-5.42,0-10.84c.05-1.72.11-3.44.2-5.17.06-1.24.06-2.91.94-3.92s2.47-.88,3.68-.91c1.84-.05,3.68-.08,5.52,0A19.25,19.25,0,0,1,453,55.28a10,10,0,0,1,4.88,5.95,3.45,3.45,0,0,1-.69,3.44c-1.09,1-2.85,1.41-4.21,1.88a73.53,73.53,0,0,1-23,3.88,1.5,1.5,0,0,0,0,3,76.05,76.05,0,0,0,23.55-3.92c3.07-1,6.75-2.13,7.37-5.81.53-3.15-1.06-6.35-3.23-8.55-5.15-5.24-12.9-5.37-19.77-5.14a7.38,7.38,0,0,0-4.76,1.42,6.35,6.35,0,0,0-2,3.92c-.63,3.85-.46,7.94-.5,11.83a245.3,245.3,0,0,0,1.41,28.29c.2,1.89,3.21,1.92,3,0Z"/><path class="cls-3" d="M477.56,62.71a28.81,28.81,0,0,0-4,24.41c2.1,7,8.7,14.31,16.73,11.86,9.18-2.81,11.07-13.45,10.83-21.76-.22-7.55-1.56-18.57-9.77-21.7-3.43-1.3-7.88-.81-10.32,2.14a10.53,10.53,0,0,0-2,6.21c-.14,2.24.08,4.66-.94,6.74-.85,1.72,1.73,3.24,2.59,1.51,1.6-3.25.84-6.69,1.59-10.1.66-3,3.15-4.43,6.13-4.15,7.45.71,9.07,10.39,9.59,16.31.61,7,.52,16.69-6.28,20.9-6.45,4-12.71-1.73-14.87-7.73a25.76,25.76,0,0,1,3.36-23.13c1.11-1.58-1.49-3.09-2.59-1.51Z"/><path class="cls-3" d="M512.14,99.67l-.84-17.86c-.25-5.35-.84-10.8-.64-16.16.13-3.42,1.2-8.34,5.51-8.38s6.87,4.15,5.9,8.11c-1.34,5.45-7,7.62-12.16,7.29a1.51,1.51,0,0,0-1.29,2.26L529,102.83c1.13,1.55,3.73,0,2.59-1.51l-20.37-27.9-1.3,2.25c5.45.35,11.45-1.8,14.06-6.9,2.35-4.6,1.52-10.55-3.19-13.26A8.21,8.21,0,0,0,509,59.15c-2.31,5.06-1.22,11.35-1,16.7l1.12,23.82c.09,1.93,3.09,1.94,3,0Z"/><path class="cls-3" d="M570.2,60.91a126.28,126.28,0,0,0,.26,20.21c.48,5.22.94,11.71,5.18,15.43,3.47,3,9.39,3.74,12.36-.37,1.54-2.13,1.79-4.84,2-7.38.33-3.21.65-6.42.83-9.65.38-7,.08-14-2.09-20.72-.59-1.83-3.49-1-2.89.79A49.33,49.33,0,0,1,588,75.47c0,2.77-.23,5.53-.47,8.29a70,70,0,0,1-.86,7.79c-.42,2-1.38,4-3.63,4.46a6.71,6.71,0,0,1-5.18-1.49c-3.79-3.07-4-9.2-4.44-13.64a126.81,126.81,0,0,1-.23-20c.13-1.93-2.87-1.92-3,0Z"/><path class="cls-3" d="M598.32,97.58l1.56-15.76.73-7.39c0-.2.1-2.7.51-2.72s.78,1.65.86,1.91c3.08,9.87,6,19.78,9.07,29.67a1.51,1.51,0,0,0,3-.4l1.64-19,.81-9.36c.11-1.27.23-4.89,2.19-4.63l-1.45-1.1a250.71,250.71,0,0,1,9.25,33.43c.38,1.89,3.27,1.09,2.89-.8A251.54,251.54,0,0,0,620.08,68a1.58,1.58,0,0,0-1.44-1.1c-2.52-.33-4.06,2-4.68,4.13a22.42,22.42,0,0,0-.58,4.24L612.89,81,611,102.89l3-.4-8.28-27.08c-.56-1.83-.92-4.06-2.23-5.54a3,3,0,0,0-4.34-.38c-1.33,1.25-1.33,3.26-1.49,4.94l-.69,6.9-1.6,16.25c-.19,1.92,2.81,1.91,3,0Z"/><path class="cls-3" d="M637.73,103a63.57,63.57,0,0,1,4.32-32.8h-2.9q3.35,7.92,6.34,16c1,2.65,1.94,5.31,2.87,8,.45,1.29.89,2.6,1.33,3.9.23.69.46,1.38.68,2.07.13.38.26.77.38,1.15a2.91,2.91,0,0,1,.12.39c.17.77.86,1,2.09.7l-1.05,1.05.17-.05c1.84-.55,1.06-3.44-.8-2.89a1.8,1.8,0,0,0-.67,3.1,1.94,1.94,0,0,0,3.24-1.1c.36-1.57-.71-3.54-1.19-5q-1-2.88-2-5.73-4-11.33-8.64-22.39a1.52,1.52,0,0,0-2.9,0,65.44,65.44,0,0,0-4.42,33.6,1.54,1.54,0,0,0,1.5,1.5,1.52,1.52,0,0,0,1.5-1.5Z"/><path class="cls-3" d="M634.94,91.9h10.49a1.5,1.5,0,0,0,0-3H634.94a1.5,1.5,0,0,0,0,3Z"/><path class="cls-4" d="M417.33,119.27c3.1,6.54,1.54,14.11,1.66,21.07.05,3-.13,7.38,3.63,8a31.29,31.29,0,0,0,5.39,0l6.22-.07a1.5,1.5,0,0,0,0-3l-5.5.06a45,45,0,0,1-5.32,0c-1.56-.17-1.31-2.38-1.37-3.59-.09-1.67-.07-3.34,0-5,.2-6.47.76-13.06-2.1-19.08-.83-1.75-3.42-.23-2.59,1.51Z"/><path class="cls-4" d="M420.6,131.6h13.63a1.5,1.5,0,0,0,0-3H420.6a1.5,1.5,0,0,0,0,3Z"/><path class="cls-4" d="M416.41,116.16a19.43,19.43,0,0,0,19.26,0,1.5,1.5,0,0,0-1.51-2.59,16.37,16.37,0,0,1-16.24,0,1.5,1.5,0,0,0-1.51,2.59Z"/><path class="cls-4" d="M451.37,148.94l-1.06-16.75A48.07,48.07,0,0,1,450,125c.17-1.88,1-3.48,3.14-2.83,3.68,1.13,6.4,5,7.41,8.51a12.34,12.34,0,0,1-2.07,11.14,13.61,13.61,0,0,1-11.93,5.08l.76,2.79,2.36-1.52c1.61-1,.11-3.64-1.52-2.59l-2.36,1.52a1.52,1.52,0,0,0,.76,2.8,16.35,16.35,0,0,0,13.24-5,15.31,15.31,0,0,0,4-13.48,16.23,16.23,0,0,0-7.88-11.24c-2.21-1.22-5.1-1.78-7.09.16-1.61,1.57-1.9,4-1.86,6.17.08,3.63.45,7.27.68,10.89l.73,11.58c.12,1.92,3.12,1.93,3,0Z"/><path class="cls-4" d="M468.52,125.94c.34,7.59,1,16.12,5.78,22.38,2.08,2.74,6.15,6.69,9.89,4.89s4.31-7.52,4.73-11.13a45.19,45.19,0,0,0-1.42-17.47,1.5,1.5,0,0,0-2.89.8,42.54,42.54,0,0,1,1.58,13.18,39.73,39.73,0,0,1-.77,6.53c-.32,1.61-.65,3.46-1.74,4.75-2.11,2.5-6-1.89-7.19-3.59a23.91,23.91,0,0,1-3.68-8.89,65.72,65.72,0,0,1-1.29-11.45c-.09-1.92-3.09-1.93-3,0Z"/><path class="cls-4" d="M516.22,121.7c-7.41-3-14.31,4.86-16.56,11.1-2,5.46-1.76,14,5.2,15.68,4.63,1.1,8.73-1.93,13.2-2.44,1.9-.21,1.92-3.21,0-3-3.41.39-6.45,2.05-9.82,2.58-2.62.42-5.14-.59-6.14-3.15-2-5,.78-11.28,4.24-14.9,2.39-2.5,5.64-4.38,9.09-3a1.52,1.52,0,0,0,1.84-1,1.54,1.54,0,0,0-1-1.85Z"/><path class="cls-4" d="M535.29,152.77c-2.09-6.52-2.22-15.21,2.71-20.55l-1.82.23c3.54,2.4,5.29,6.46,6.62,10.37.69,2,1.29,4.12,2,6.17.34,1,.7,2,1.11,3,.2.49.4,1,.62,1.46.12.27.25.53.38.8l.14.26q.3.78.21-.57l1.29-.74h0l1.06.44c-.16-.14-.5-.91-.77-1.27-1.14-1.53-3.75,0-2.59,1.52.7.94,1,2.22,2.35,2.31a1.48,1.48,0,0,0,1.3-.74c.71-1.12-.13-2.25-.6-3.26a32.52,32.52,0,0,1-1.31-3.31c-.81-2.34-1.48-4.72-2.28-7.06-1.59-4.66-3.75-9.17-7.94-12a1.51,1.51,0,0,0-1.82.24c-5.67,6.14-5.92,15.87-3.48,23.47.58,1.83,3.48,1.05,2.89-.8Z"/><path class="cls-4" d="M533,145.16a14.13,14.13,0,0,0,12.1-.07,1.5,1.5,0,0,0,.53-2.05,1.53,1.53,0,0,0-2-.54,10.94,10.94,0,0,1-9.06.07,1.55,1.55,0,0,0-2.06.54,1.52,1.52,0,0,0,.54,2Z"/><path class="cls-4" d="M571.54,137.36a4.77,4.77,0,0,0,1.2-4.68,1.52,1.52,0,0,0-2.2-.9c-4.9,2.26-9,6.7-9.34,12.28-.32,5.3,3.09,10.32,8.54,10.9a8.37,8.37,0,0,0,7.25-2.73c1.24-1.46-.87-3.6-2.12-2.12a5.68,5.68,0,0,1-5.92,1.67,6.51,6.51,0,0,1-4.51-4.91c-1.43-5.6,2.85-10.3,7.61-12.5l-2.2-.89a1.7,1.7,0,0,1-.44,1.76c-1.35,1.38.77,3.5,2.13,2.12Z"/><path class="cls-4" d="M568.43,155.36c2.86,1.57,2.37,6,2.77,8.88a8.66,8.66,0,0,0,2.23,5.09,6,6,0,0,0,4.25,1.59A4.28,4.28,0,0,0,581.8,168c.58-1.85-2.32-2.64-2.89-.8-.06.17-.06.19,0,.05a2,2,0,0,1-.14.25c.15-.23-.15.15-.22.2.23-.18-.1.05-.15.07s-.17.08,0,0l-.28.08a2.93,2.93,0,0,1-1.74-.16c-.43-.16.18.11-.22-.1a3.51,3.51,0,0,1-.52-.33c.16.12-.23-.24-.26-.28a4.16,4.16,0,0,1-.24-.35,7.45,7.45,0,0,1-1-2.87c-.31-2-.22-4.06-.73-6a7.64,7.64,0,0,0-3.47-5c-1.69-.93-3.21,1.66-1.51,2.59Z"/><path class="cls-4" d="M591,150.65a28.56,28.56,0,0,1,5.78-21.76l-2.36-.3a57.4,57.4,0,0,1,9.62,24.93,1.51,1.51,0,0,0,1.85,1,1.53,1.53,0,0,0,1-1.84A59.32,59.32,0,0,0,597,127.07a1.51,1.51,0,0,0-2.35-.3,31.81,31.81,0,0,0-6.55,24.67c.29,1.91,3.18,1.1,2.89-.79Z"/><path class="cls-4" d="M586.27,144.18H604.1a1.5,1.5,0,0,0,0-3H586.27a1.5,1.5,0,0,0,0,3Z"/><path class="cls-4" d="M624.62,137.06c-5.18,1.1-4.69,8.19-4.07,12.12.71,4.54,3.32,10.14,8.82,9.54a8.8,8.8,0,0,0,6.39-4.37c1.68-2.81,1.68-6.24,1.18-9.38-.75-4.75-2.94-12.05-9.12-11.36a6.61,6.61,0,0,0-5.88,5.25,6.81,6.81,0,0,0,3.79,7.22c1.75.76,3.28-1.82,1.52-2.59a3.86,3.86,0,0,1-2.39-4,3.6,3.6,0,0,1,3.24-3c4-.46,5.21,5.34,5.78,8.21.76,3.89.47,9.74-4.33,10.87-3.67.87-5.32-3.3-5.9-6.13a20.28,20.28,0,0,1-.44-5.76c.12-1.5.5-3.45,2.21-3.82,1.88-.39,1.08-3.29-.8-2.89Z"/><path class="cls-4" d="M581.13,120.26c3-3.34,8.16-2.06,11.81-.73,4.87,1.77,10.18,3.92,15.17,1.34,1.71-.89.2-3.48-1.52-2.6-4.89,2.54-10.48-1.12-15.21-2.38-4.19-1.11-9.26-1.27-12.37,2.25-1.28,1.44.83,3.57,2.12,2.12Z"/><path class="cls-4" d="M413.65,195.11l.27-24.6-1.1,1.45c3.35-1,7.58-2.45,10.94-.73,2.24,1.16,4.33,4.13,2.55,6.53-1.3,1.77-4,2.16-6,2.62-2.6.61-5.12,1.27-7.25,3-1.52,1.19.62,3.3,2.12,2.12,4.37-3.46,13.26-1.44,14.65-8.46.69-3.48-1.71-6.93-4.74-8.44-4.14-2.06-8.94-.75-13.1.51a1.53,1.53,0,0,0-1.1,1.44l-.27,24.6c0,1.93,3,1.93,3,0Z"/><path class="cls-4" d="M437.22,173.78a28.55,28.55,0,0,0,4.11,20.43,28,28,0,0,0,3.33,4.19c1.27,1.31,2.8,2.69,4.76,2.48s3-1.72,3.83-3.22a27.08,27.08,0,0,0,2.25-5.49,27.89,27.89,0,0,0,.43-13.28c-.4-1.89-3.29-1.09-2.9.79a24.48,24.48,0,0,1-.61,12.31,15.47,15.47,0,0,1-2.46,5.28c-1.4,1.66-3.3-1.05-4.21-2.12a25.32,25.32,0,0,1-5.63-20.57c.33-1.89-2.56-2.7-2.9-.8Z"/><path class="cls-4" d="M448,173.22l5.26-5.23a1.5,1.5,0,0,0-2.12-2.12l-5.26,5.23a1.51,1.51,0,0,0,0,2.12,1.53,1.53,0,0,0,2.12,0Z"/><path class="cls-4" d="M472.69,196.9a68.28,68.28,0,0,1-1.45-15.29c0-2-.14-4.46.71-6.33s2.84-2.08,4.62-2c3.32.21,7.94,1.81,6.32,6s-6.65,4.49-10.39,4.8c-1.56.13-2.18,2.64-.4,2.95a15.2,15.2,0,0,1,11.18,8.46c.36.77,1.32,2.59.51,3.2a6.82,6.82,0,0,1-1.83.62l-2.26.7-4.51,1.42a6.31,6.31,0,0,1-2.13.46c-.27,0-.81-.37-.85-.32,1.23-1.48-.88-3.61-2.12-2.12a3.17,3.17,0,0,0,.19,4.34c1.48,1.52,3.66,1.15,5.48.6,2.26-.68,4.51-1.41,6.77-2.12,1.82-.57,4-1,4.5-3.15.45-1.8-.53-3.89-1.32-5.47a18,18,0,0,0-12.81-9.52l-.4,3c4-.33,8.71-.78,11.52-4,2.39-2.76,3.22-7.15.39-9.93-2.56-2.51-7.62-3.44-11-2.55-4.67,1.23-5,6-5.13,10.07a72.33,72.33,0,0,0,1.54,17c.39,1.89,3.29,1.09,2.89-.8Z"/><path class="cls-4" d="M494.87,176.18a103.34,103.34,0,0,0-.09,14.51,60.22,60.22,0,0,0,.71,6.85,6.08,6.08,0,0,0,3.06,4.53,13.59,13.59,0,0,0,5.47,1,32.2,32.2,0,0,0,5.29-.07c3.5-.39,6.65-1.6,8.82-4.47,1.16-1.54-1.44-3-2.59-1.52-1.69,2.23-4.63,2.91-7.28,3.08a38.18,38.18,0,0,1-4.41,0c-1.38-.09-3.27,0-4.4-1s-1.19-3.11-1.34-4.56c-.21-2.09-.37-4.18-.46-6.28a103.76,103.76,0,0,1,.22-12.09c.14-1.93-2.86-1.92-3,0Z"/><path class="cls-4" d="M528.65,203.19a185.85,185.85,0,0,1-4-21.69,1.54,1.54,0,0,0-1.5-1.5,1.52,1.52,0,0,0-1.5,1.5A190.18,190.18,0,0,0,525.76,204c.46,1.88,3.35,1.08,2.89-.79Z"/><path class="cls-4" d="M557,176.82c-7.53-.87-14.69,5.07-15.62,12.5a16.11,16.11,0,0,0,11.78,17.26,18.25,18.25,0,0,0,13.09-1.5c1.72-.89.2-3.48-1.51-2.59-5.74,3-13.39,2-17.56-3.15-3.88-4.82-4-12,.61-16.37a11.42,11.42,0,0,1,9.21-3.15c1.92.22,1.9-2.79,0-3Z"/><path class="cls-4" d="M581.61,206.65a70.18,70.18,0,0,1,.07-14.49,48.16,48.16,0,0,1,1.06-6.43c.27-1.06.91-3.29,2.4-3.09,1.67.24,2.92,3,3.66,4.27a53.3,53.3,0,0,1,2.84,5.46A52.52,52.52,0,0,1,595.42,205c.32,1.9,3.21,1.1,2.89-.79-1.29-7.63-4.17-15.59-8.86-21.82a6.21,6.21,0,0,0-3.85-2.73,4.35,4.35,0,0,0-4.05,1.63c-2.24,2.72-2.42,7-2.81,10.35a70.67,70.67,0,0,0-.13,15c.18,1.9,3.18,1.92,3,0Z"/><path class="cls-4" d="M579.48,196.85a33.16,33.16,0,0,0,14.2,1.33,1.56,1.56,0,0,0,1.5-1.5c0-.73-.69-1.61-1.5-1.5a31,31,0,0,1-13.4-1.22c-1.84-.59-2.63,2.3-.8,2.89Z"/><path class="cls-3" d="M642.5,205.36a95.63,95.63,0,0,1-1-25.34l-1.9,1.44c6.1,1,11.38,6.28,11.84,12.57a14.26,14.26,0,0,1-10,14.37c-1.85.55-1.06,3.44.8,2.9,7.32-2.15,12.8-9.57,12.24-17.27a17.3,17.3,0,0,0-14-15.46,1.53,1.53,0,0,0-1.89,1.45,99.14,99.14,0,0,0,1.11,26.14c.34,1.9,3.23,1.09,2.9-.8Z"/><path class="cls-3" d="M660.72,187.69a98.32,98.32,0,0,0,.79,27.67,1.54,1.54,0,0,0,1.85,1,110.77,110.77,0,0,0,15-3.82c1.83-.61,1-3.5-.8-2.9a109.31,109.31,0,0,1-15,3.82l1.85,1.05a95.26,95.26,0,0,1-.69-26.87c.23-1.92-2.78-1.9-3,0Z"/><path class="cls-3" d="M662.7,199.2a12.37,12.37,0,0,0,14.91.66,1.56,1.56,0,0,0,.54-2.06,1.51,1.51,0,0,0-2-.53,9.36,9.36,0,0,1-11.28-.2,1.56,1.56,0,0,0-2.12,0,1.51,1.51,0,0,0,0,2.13Z"/><path class="cls-3" d="M662.51,186.69,678.2,189a1.56,1.56,0,0,0,1.85-1,1.52,1.52,0,0,0-1-1.85l-15.7-2.31a1.54,1.54,0,0,0-1.84,1,1.5,1.5,0,0,0,1,1.84Z"/><path class="cls-5" d="M431.32,227.49A42.14,42.14,0,0,0,424.63,259c1.72,9.43,8.12,22.41,19.73,20.29,5.05-.92,9.2-4.79,11.92-8.95a36.89,36.89,0,0,0,5.4-16.69c1-10.93-1.58-24.63-12.53-29.75-5.22-2.44-11.34-2.39-16,1.15-4.38,3.3-7,8.83-5.63,14.28.46,1.88,3.36,1.08,2.89-.79-1-4.13,1-8.36,4.28-10.92a12.28,12.28,0,0,1,12-1.55c10.09,3.73,12.53,15.63,12.19,25.21a36.21,36.21,0,0,1-3.8,15.21c-2,3.95-5.27,7.86-9.57,9.4-9.94,3.53-15.79-8.12-17.58-15.95a39.19,39.19,0,0,1,6-30.92c1.11-1.58-1.49-3.08-2.59-1.51Z"/><path class="cls-5" d="M440.1,257.85,455.76,281c1.08,1.59,3.68.09,2.59-1.51l-15.66-23.11c-1.08-1.59-3.68-.09-2.59,1.51Z"/><path class="cls-5" d="M472.91,228.62a178.46,178.46,0,0,0,1.65,28.76q1,7.11,2.55,14.11c.75,3.37,1.68,7.16,4.5,9.44,3,2.41,7.15,2.07,10.2,0,3.34-2.31,4.93-6.18,5.85-10,2.2-9.14,2.55-18.7,2.34-28-.12-5.3-.41-10.59-.77-15.87a3.5,3.5,0,0,0-1-2.78,1.88,1.88,0,0,0-2.5.13c-1.33,1.47.17,3.89,2.06,2.92,1.72-.89.2-3.48-1.51-2.59l-.13.06,1.16-.15-.1,0,.9.69-.15,1.13-1.06.44-.66-.29.06,1,.09,1.44c.06,1,.11,1.92.17,2.88.12,2.08.23,4.17.32,6.25.16,3.85.25,7.7.19,11.55-.12,7.41-.58,15.2-2.75,22.33-.95,3.11-2.67,6.3-5.94,7.4-2.91,1-5.3-.45-6.63-3.06-1.44-2.84-1.9-6.28-2.52-9.36q-1.15-5.76-1.91-11.59a176.31,176.31,0,0,1-1.37-26.68c0-1.93-3-1.93-3,0Z"/><path class="cls-5" d="M514.14,281.12a118.2,118.2,0,0,1,4.21-50.29l-2.74.36A105.68,105.68,0,0,1,528.05,280a1.5,1.5,0,0,0,3,0,109.06,109.06,0,0,0-12.85-50.37,1.52,1.52,0,0,0-2.74.36,120.18,120.18,0,0,0-4.32,51.09,1.57,1.57,0,0,0,1.5,1.5c.73,0,1.61-.7,1.5-1.5Z"/><path class="cls-5" d="M510.78,264.71l13,.15c1.68,0,4.06.25,4.85-1.66a2.27,2.27,0,0,0-3-3,1.52,1.52,0,0,0-.54,2.06,1.54,1.54,0,0,0,2.05.54l.15-.08-.76.21a.71.71,0,0,1-.67-.45c-.08-.37,0-.61.28-.73,0,0-.48.09-.45.09-.67.06-1.37,0-2,0l-4.16-.05-8.64-.1a1.5,1.5,0,0,0,0,3Z"/><path class="cls-5" d="M540.71,230.76l.06,49.14a1.53,1.53,0,0,0,1.5,1.5q9.65.24,19.29.15l4.7-.07c1.2,0,2.57.09,3.63-.61,2.05-1.36.87-4.95-1.68-4.23a1.5,1.5,0,0,0,.8,2.89c-.89,0-1.18-.39-.88-1.13a2.28,2.28,0,0,1-.64.06c-.49,0-1,0-1.48,0l-3.46.05c-2.23,0-4.45,0-6.68,0q-6.79,0-13.6-.17l1.5,1.5-.06-49.14a1.5,1.5,0,0,0-3,0Z"/><path class="cls-5" d="M578.61,281.12a187.18,187.18,0,0,0-2.1-50.63c-.34-1.9-3.23-1.09-2.89.8a184.11,184.11,0,0,1,2,49.83c-.19,1.92,2.82,1.91,3,0Z"/><path class="cls-5" d="M590.87,285.28a276.77,276.77,0,0,0-3.06-49.56L586,237.57c4.87.81,9.65,1.76,13.68,4.8A22.51,22.51,0,0,1,607,252.2,21,21,0,0,1,601.86,275a21.65,21.65,0,0,1-12.52,6.08c-1.9.21-1.92,3.21,0,3a25.45,25.45,0,0,0,21-16.89c3.13-9.09-.17-19.54-7.22-25.87a23.81,23.81,0,0,0-6.51-4.2,43,43,0,0,0-9.82-2.48,1.53,1.53,0,0,0-1.84,1.85,272.43,272.43,0,0,1,3,48.76c0,1.94,3,1.93,3,0Z"/><path class="cls-5" d="M622.06,285.25q1.22-13.54,3.39-27c1-6.44,1.95-14.6,7.59-18.82l-2.2-.9q4.44,11.44,8.1,23.16,1.78,5.75,3.38,11.54.82,3,1.6,6c.24.93.51,1.86.71,2.8.07.37.14.44.06.74a1,1,0,0,1-.18.39c-.41.39.06.47,1.42.23-1-1.62-3.63-.12-2.59,1.51s2.86,1.26,3.76-.23c1.06-1.74.41-3.48-.05-5.3q-1.77-7-3.82-13.92-4.18-14.07-9.5-27.75c-.31-.8-1.35-1.54-2.2-.9-6.19,4.63-7.62,12.46-8.81,19.64q-2.37,14.3-3.66,28.74c-.17,1.93,2.83,1.92,3,0Z"/><path class="cls-5" d="M625,269.31l14.7-.52c1.92-.07,1.93-3.07,0-3l-14.7.52c-1.92.07-1.93,3.07,0,3Z"/><path class="cls-5" d="M661.67,286.4q-1.63-13.47-2.67-27-.51-6.64-.86-13.29c-.06-1.15-.12-2.3-.17-3.45,0-.39-.36-2.28,0-2.57s1.6.21,2,.32a10.89,10.89,0,0,1,2,.8c5.55,2.84,8.5,9.2,10.33,14.85,2.41,7.48,4.18,16,1.62,23.68a17.55,17.55,0,0,1-6.62,8.82,14.2,14.2,0,0,1-4.76,2.14,10.83,10.83,0,0,1-2.72.27,7.16,7.16,0,0,1-1.22-.09c-.16,0-.32-.1-.47-.13a.49.49,0,0,1-.21-.16c-.29-.33-.43,0-.43.91,1.61-1.05.11-3.65-1.52-2.59s-1.15,3.22.39,4.26,3.83.9,5.6.66a17.45,17.45,0,0,0,10-5.37c6.62-6.88,6.94-16.77,5.15-25.64-1.54-7.57-4.12-16.13-10-21.55a16.47,16.47,0,0,0-4.44-3c-1.64-.72-3.84-1.56-5.64-1.07-2.29.63-2.3,3-2.21,5q.19,3.94.42,7.89,1.1,18.22,3.31,36.35c.23,1.9,3.24,1.92,3,0Z"/><path class="cls-5" d="M688.48,246l-6.29,43.75a1.54,1.54,0,0,0,1.45,1.9,163,163,0,0,0,26,1.25,1.51,1.51,0,0,0,.75-2.79l-2.82-1.95c-1.59-1.1-3.09,1.49-1.51,2.59l2.82,2,.76-2.8a163,163,0,0,1-26-1.25l1.44,1.9,6.29-43.75a1.54,1.54,0,0,0-1-1.84,1.49,1.49,0,0,0-1.84,1Z"/><path class="cls-5" d="M688.61,266.89a62,62,0,0,0,18.2,1.95,1.5,1.5,0,0,0,1.44-1.89,6,6,0,0,0-4.18-3.91,1.5,1.5,0,0,0-.79,2.9,2.89,2.89,0,0,1,2.08,1.8l1.45-1.9a58.93,58.93,0,0,1-17.4-1.85,1.51,1.51,0,0,0-.8,2.9Z"/><path class="cls-5" d="M688.65,243.67A217.07,217.07,0,0,0,719,250.2a1.56,1.56,0,0,0,1.85-1,1.51,1.51,0,0,0-1.05-1.84,220,220,0,0,1-30.36-6.53,1.5,1.5,0,0,0-.8,2.89Z"/></g><g id="Layer_7" data-name="Layer 7"><path class="cls-6" d="M840.28,105c-.88,11.32-1.84,22.64-2.64,34-.7,9.79-.53,20.59,6.49,28.26a19,19,0,0,0,11.42,6.22,15.56,15.56,0,0,0,11.94-3.76,27.06,27.06,0,0,0,7.11-10.13A71.89,71.89,0,0,0,879,145.42a90.59,90.59,0,0,0,.23-35.9c-.48-2.48-4.41-1.89-4.36.59l1,51,.3,14.68c.05,2.85,4.5,2.86,4.44,0l-1-51-.3-14.67-4.36.59a84.68,84.68,0,0,1,.58,29A85.58,85.58,0,0,1,872,154.17a31.86,31.86,0,0,1-5.07,9.8c-2.17,2.65-5.14,4.9-8.67,5.14a13.34,13.34,0,0,1-9.9-4c-6.76-6.38-6.89-16.2-6.34-24.84.75-11.78,1.82-23.55,2.74-35.32.22-2.85-4.22-2.84-4.45,0Z"/><path class="cls-6" d="M908.14,176.47A461.1,461.1,0,0,0,907,122.22q-.6-7.62-1.48-15.23a2.22,2.22,0,0,0-4.44,0l-.34,4.23c-.22,2.85,4.23,2.84,4.45,0l.33-4.23h-4.44A460.71,460.71,0,0,1,904,161.18q0,7.65-.32,15.29c-.11,2.86,4.34,2.86,4.44,0Z"/><path class="cls-6" d="M902.91,119.81c3.08.23,5.94-.82,8.69-2.08,2.58-1.19,5.17-2.74,8-3.11,5-.65,9.25,2.56,12.28,6.2,3.73,4.49,5.85,10.06,7.49,15.58a82.82,82.82,0,0,1,3.41,20.78c.11,3.34.37,7.09-.42,10.37a8.81,8.81,0,0,1-1.41,3.32,2.89,2.89,0,0,1-1,.9,1.17,1.17,0,0,1-.89,0c-2.77-.74-4,3.55-1.18,4.29,3,.78,5.52-.76,7.1-3.24,1.72-2.68,2.08-5.85,2.22-9a87.31,87.31,0,0,0-2.13-23.29c-1.54-6.79-3.73-13.79-7.61-19.65-3.27-4.93-8-9.7-14.13-10.62-3.73-.57-7.13.39-10.51,1.92-3.18,1.44-6.32,3.4-10,3.14-2.85-.21-2.84,4.23,0,4.44Z"/><path class="cls-6" d="M970.74,148.94a123.75,123.75,0,0,0,18.61,1.93,51.29,51.29,0,0,0,8.85-.23,6.79,6.79,0,0,0,5.55-4.09,11,11,0,0,0,0-6.84,61,61,0,0,0-2.47-7.23c-1.94-4.81-4.7-9.45-9.33-12.08-4.18-2.38-9.52-2.92-13.66-.16-4.42,3-7.16,8.33-9.24,13.06a57.77,57.77,0,0,0-4.46,16c-.69,5.44-.93,11.25,2.84,15.66s10,6.57,15.28,8.37a77.14,77.14,0,0,0,19.49,3.89c2.86.2,2.85-4.25,0-4.45a71.45,71.45,0,0,1-14.79-2.62,56.21,56.21,0,0,1-13-5.27,12.55,12.55,0,0,1-4.32-3.8,11.28,11.28,0,0,1-1.42-6.52A52.08,52.08,0,0,1,977,128c2.15-3.23,5.21-5.85,9.33-5s7.05,3.78,9,7.31a38.14,38.14,0,0,1,2.66,6.12,34.92,34.92,0,0,1,1.75,5.89c.28,1.73.11,3.42-1.82,3.9a15.13,15.13,0,0,1-3.43.26c-1.55,0-3.1,0-4.66,0a114.65,114.65,0,0,1-17.92-1.78,2.28,2.28,0,0,0-2.73,1.55,2.24,2.24,0,0,0,1.55,2.74Z"/><path class="cls-6" d="M1051.8,118c-8.43-3.25-19.15-2.12-25.66,4.55-5.78,5.91-7.68,16.22-2.74,23.23,2.73,3.88,6.76,6.17,11.05,8,4,1.67,8.17,2.86,11.76,5.34,2.88,2,5.72,5.19,5.34,8.71a8.67,8.67,0,0,1-.22,1l-.18.56c-.17.5.28-.53-.11.28a8.09,8.09,0,0,1-.56,1,3.09,3.09,0,0,1-.62.78,11.28,11.28,0,0,1-3.81,2.58c-3.55,1.62-7.9,2.09-11.92,2.33l-19.44,1.18a2.81,2.81,0,0,0-2.75,2.75,2.77,2.77,0,0,0,2.75,2.75l17.2-1a60.85,60.85,0,0,0,12.67-1.65c3.56-1,7.25-2.64,9.66-5.55a11.94,11.94,0,0,0,2.11-11.77c-1.6-4.23-5.09-7.46-8.94-9.7s-8.07-3.32-12.05-5.13c-3.43-1.57-7-3.82-8.4-7.32a13.36,13.36,0,0,1,.29-10.2c3.81-8.86,14.84-10.54,23.11-7.35a2.78,2.78,0,0,0,3.38-1.92,2.82,2.82,0,0,0-1.92-3.39Z"/><path class="cls-6" d="M1072,179.58l.08-51.92,0-14.66-2.65,2c8.07,2.86,18.38,6.36,22.19,14.83,2.84,6.3,1.46,15.54-6.28,17.17-2.78.58-5.74.15-8.53-.15a36.48,36.48,0,0,0-9-.13,2.11,2.11,0,0,0-1.47,2.58,2.14,2.14,0,0,0,2.58,1.46c5.71-.78,11.39,1.38,17.12.36a13.21,13.21,0,0,0,10-8.49,19.08,19.08,0,0,0,.06-12.7c-1.63-4.79-5.07-8.51-9.16-11.39-5-3.49-10.77-5.57-16.44-7.58a2.11,2.11,0,0,0-2.65,2l-.09,51.93,0,14.65c0,2.7,4.19,2.71,4.2,0Z"/><path class="cls-3" d="M908.56,262.27V215.78c0-2.38-.15-4.82,0-7.19a3.38,3.38,0,0,1,.62-2,2.83,2.83,0,0,1,2.24-.44,34.54,34.54,0,0,1,11.33,3,21.65,21.65,0,0,1,9,6.8c3.64,5.15,4.46,13.45-1,17.72-3.18,2.49-7.46,2.81-11.34,2.86-4.58.06-9.13-.24-13.69.38a2.23,2.23,0,0,0-1.55,2.73,2.28,2.28,0,0,0,2.73,1.56c8.29-1.13,17.67,1.61,25.22-3.09s8.5-14.42,4.91-21.91c-3.89-8.15-13.12-12.22-21.51-13.87-2.3-.45-4.89-1-7.18-.27a6.28,6.28,0,0,0-4.06,5.21,51.66,51.66,0,0,0-.19,7.77v47.24c0,2.86,4.45,2.87,4.45,0Z"/><path class="cls-3" d="M953.69,268.66a351.39,351.39,0,0,1-.93-62.05l-2.23,2.22a29.71,29.71,0,0,1,21.31,13.62,27.1,27.1,0,0,1,2.86,5.94c.73,2.18,1.44,4.73.71,7s-3,3.34-4.84,4.43a46.1,46.1,0,0,1-6.19,3.14c-4.24,1.68-9.72,3-13.49-.39-2.12-1.91-5.27,1.22-3.14,3.14,4.33,3.9,10.12,4,15.46,2.37a43.42,43.42,0,0,0,7.79-3.39c2.37-1.3,5-2.69,6.81-4.76,4.13-4.76,2-11.7-.48-16.74A34.35,34.35,0,0,0,967.13,211a33.43,33.43,0,0,0-16.6-6.57c-1.25-.14-2.14,1.13-2.22,2.22a351.39,351.39,0,0,0,.94,62.05,2.28,2.28,0,0,0,2.22,2.22,2.23,2.23,0,0,0,2.22-2.22Z"/></g></svg>