<svg height="36" viewBox="0 0 36 36" width="36" xmlns="http://www.w3.org/2000/svg"><g fill="none" fill-rule="evenodd"><path d="m0 0h36v36h-36z"/><g fill-rule="nonzero" transform="translate(6 1.5)"><path d="m15.75 8.25 4.524375.855 3.725625-.855-8.25-8.25-1.138125 3.91125z" fill="#56368a"/><path d="m15.75 8.25v-8.25h-13.5c-1.243125 0-2.25 1.006875-2.25 2.25v28.5c0 1.243125 1.006875 2.25 2.25 2.25h19.5c1.243125 0 2.25-1.006875 2.25-2.25v-22.5z" fill="#7248b9"/><path d="m6.375 23.8125c-.620625 0-1.125-.504375-1.125-1.125s.504375-1.125 1.125-1.125 1.125.504375 1.125 1.125-.504375 1.125-1.125 1.125zm0-4.5c-.620625 0-1.125-.504375-1.125-1.125s.504375-1.125 1.125-1.125 1.125.504375 1.125 1.125-.504375 1.125-1.125 1.125zm0-4.5c-.620625 0-1.125-.504375-1.125-1.125s.504375-1.125 1.125-1.125 1.125.504375 1.125 1.125-.504375 1.125-1.125 1.125zm12.375 8.8125h-9.375v-1.875h9.375zm0-4.5h-9.375v-1.875h9.375zm0-4.5h-9.375v-1.875h9.375z" fill="#fff"/></g></g></svg>