<svg id="Layer_1" data-name="Layer 1" xmlns="http://www.w3.org/2000/svg" xmlns:xlink="http://www.w3.org/1999/xlink" viewBox="0 0 1280 1065.8"><defs><style>.cls-1,.cls-5,.cls-7{fill:none;}.cls-2{fill:#fff;}.cls-3{clip-path:url(#clip-path);}.cls-4{opacity:0;}.cls-5{stroke:#0054e9;stroke-linecap:round;stroke-linejoin:round;stroke-width:58.81px;}.cls-6{clip-path:url(#clip-path-2);}.cls-7{stroke:#0163aa;stroke-miterlimit:10;stroke-width:20.65px;}.cls-8{fill-rule:evenodd;}</style><clipPath id="clip-path"><rect class="cls-1" x="175" y="69.9" width="941" height="941"/></clipPath><clipPath id="clip-path-2"><rect class="cls-1" x="465.3" y="358.2" width="349.4" height="349.4"/></clipPath></defs><rect class="cls-2" x="598" y="490.9" width="84" height="84"/><g class="cls-3"><rect class="cls-4" x="175" y="69.9" width="941" height="941"/><rect class="cls-5" x="410.25" y="99.31" width="470.5" height="882.19" rx="88.22"/><path class="cls-5" d="M498.47,99.31h44.11a14.7,14.7,0,0,1,14.7,14.7,29.41,29.41,0,0,0,29.41,29.41H704.31A29.41,29.41,0,0,0,733.72,114a14.7,14.7,0,0,1,14.7-14.7h44.11"/></g><g class="cls-6"><rect class="cls-4" x="465.3" y="358.2" width="349.4" height="349.4"/><rect class="cls-7" x="552.65" y="369.12" width="174.7" height="327.56" rx="32.76"/><path class="cls-7" d="M585.41,369.12h16.37a5.45,5.45,0,0,1,5.46,5.46,10.92,10.92,0,0,0,10.92,10.92h43.68a10.92,10.92,0,0,0,10.92-10.92,5.45,5.45,0,0,1,5.46-5.46h16.37"/></g><path class="cls-8" d="M598,490.9h7.3v3.65h-3.65v3.65H598Zm21.91,0h3.66v3.65h7.3V490.9h3.65v7.3h-3.65v3.66h-3.65V498.2h-7.31Zm29.22,0h3.65v3.65h-3.65Zm7.3,0h3.66v3.65h-3.66ZM609,494.55h3.65v3.65h3.65v7.31h3.65v3.65h14.61v-3.65h3.65v3.65h25.57v-7.3h-7.31v3.65h-3.65v-3.65h-3.65V498.2h3.65v-3.65h3.65v3.65h3.66v-3.65h3.65v3.65h3.65v3.66H671V498.2h3.66v-3.65h3.65v11H671v3.65h-3.65v3.65h-3.65v3.66H671v3.65h-3.65v3.65H671v3.65h7.31v7.31H674.7v-3.66H671v3.66h-3.65v-7.31h-3.65v11H671V542h3.66v3.65H671v3.65h3.66V553H671v3.65H660.09v3.65h-3.66v-3.65H645.48v3.65h10.95v3.65h3.66v3.66h7.3v3.65h-11V567.6h-7.3v-3.66h-11v3.66h-3.65v-11h-3.65v7.3h-3.65v-3.65h-3.65v-3.65h-7.31V553H609v-3.66h7.3V542H609v7.3H605.3v-3.65h-3.65V542H598v-3.65h11v-7.31h3.65v3.66h3.65v-3.66h-3.65v-3.65h3.65V516.47h-3.65v-3.66H605.3v-3.65H609v-3.65h3.65v-3.65H605.3V498.2H609Zm29.21,0h11v3.65h-11Zm-3.65,3.65h3.65v3.66h-3.65ZM598,501.86h3.65v3.65H598Zm25.57,0h3.65v3.65h-3.65Zm7.3,0h3.65v3.65h-3.65Zm7.3,0h7.31v3.65h-7.31Zm-36.52,3.65h3.65v3.65h-3.65ZM598,509.16h3.65v7.31h11v7.3H609v3.65h-7.31v-7.3H598Zm73,0h7.31v3.65H671Zm-51.13,3.65V553h40.18V512.81Zm3.66,3.66h32.86v32.86H623.57Zm51.13,0h3.65v3.65H674.7Zm-47.48,3.65v25.56h25.56V520.12Zm43.82,0h3.66v3.65H671Zm-40.17,3.65h18.26V542H630.87ZM598,527.42h3.65v3.65H598Zm36.52,0v11h11v-11Zm-32.87,3.65h3.65v3.66h-3.65Zm36.52,0h3.66v3.66h-3.66ZM671,534.73h3.66v3.65H671Zm7.31,0H682v3.65h-3.65Zm-3.65,3.65h3.65V542H674.7Zm3.65,3.65H682v3.65h-3.65Zm-14.61,7.3V553h3.65v-3.66ZM678.35,553H682v3.65h-3.65Zm-76.7,3.65h3.65v3.65h-3.65Zm36.52,0v3.65h3.66v-3.65Zm32.87,0h3.66v3.65H671Zm-73,3.65h3.65v7.31H598Zm7.3,0H609v3.65H605.3Zm58.44,0h3.65v3.65h-3.65Zm14.61,0H682v3.65h-3.65Zm-62.09,3.65h7.31v3.66h-7.31Zm58.44,0h3.65v3.66H674.7Zm-36.53,3.66h11v7.3h-3.65v-3.65h-7.31Zm32.87,0h3.66v3.65H671Zm-73,3.65h3.65v3.65H598Zm11,0h7.3v3.65H609Zm18.26,0h7.3v3.65h-7.3Zm25.56,0h3.65v3.65h-3.65Zm21.92,0h3.65v3.65H674.7Z"/></svg>