<svg id="Layer_1" data-name="Layer 1" xmlns="http://www.w3.org/2000/svg" xmlns:xlink="http://www.w3.org/1999/xlink" viewBox="0 0 1280 1065.8"><defs><style>.cls-1,.cls-4,.cls-6,.cls-9{fill:none;}.cls-2{clip-path:url(#clip-path);}.cls-3{opacity:0;}.cls-4{stroke:#0163aa;stroke-miterlimit:10;stroke-width:20.65px;}.cls-5{clip-path:url(#clip-path-2);}.cls-6,.cls-9{stroke:#0054e9;stroke-linecap:round;stroke-linejoin:round;}.cls-6{stroke-width:58.81px;}.cls-7{fill:#0054e9;}.cls-8{clip-path:url(#clip-path-3);}.cls-9{stroke-width:5.5px;}</style><clipPath id="clip-path"><rect class="cls-1" x="127.34" y="315.97" width="349.4" height="349.4"/></clipPath><clipPath id="clip-path-2"><rect class="cls-1" x="458.3" y="61.01" width="941" height="941"/></clipPath><clipPath id="clip-path-3"><rect class="cls-1" x="884.53" y="463.95" width="87.95" height="87.95"/></clipPath></defs><g class="cls-2"><rect class="cls-3" x="127.34" y="315.97" width="349.4" height="349.4"/><rect class="cls-4" x="214.69" y="326.89" width="174.7" height="327.56" rx="32.76"/><path class="cls-4" d="M247.45,326.89h16.37a5.46,5.46,0,0,1,5.46,5.46,10.92,10.92,0,0,0,10.92,10.92h43.68a10.92,10.92,0,0,0,10.92-10.92,5.46,5.46,0,0,1,5.46-5.46h16.37"/></g><g class="cls-5"><rect class="cls-3" x="458.3" y="61.01" width="941" height="941"/><rect class="cls-6" x="693.55" y="90.42" width="470.5" height="882.19" rx="88.22"/><path class="cls-6" d="M781.77,90.42h44.11a14.7,14.7,0,0,1,14.7,14.7A29.41,29.41,0,0,0,870,134.53H987.62a29.4,29.4,0,0,0,29.4-29.41,14.7,14.7,0,0,1,14.71-14.7h44.1"/></g><path class="cls-7" d="M1067.25,416.81a13.86,13.86,0,0,1,13.84,13.84V584.58a13.85,13.85,0,0,1-13.84,13.83H791.75a13.85,13.85,0,0,1-13.84-13.83V430.65a13.86,13.86,0,0,1,13.84-13.84h275.5m0-14.91H791.75A28.84,28.84,0,0,0,763,430.65V584.58a28.83,28.83,0,0,0,28.75,28.74h275.5A28.83,28.83,0,0,0,1096,584.58V430.65a28.84,28.84,0,0,0-28.75-28.75Z"/><g class="cls-8"><rect class="cls-3" x="884.53" y="463.95" width="87.95" height="87.95"/><path class="cls-9" d="M950.49,502.43c0-8.7,0-23.13,0-27.49a2.75,2.75,0,0,0-2.75-2.75l-38.44.05a2.74,2.74,0,0,0-2.75,2.74c0,5.25,0,22.19,0,27.45,0,11,14.26,19.24,22,19.24S950.49,513.47,950.49,502.43Zm-22,41.22v-22m-13.74,22h27.48"/><path class="cls-9" d="M950.49,480.44h13.74v2.75c0,9.48-5.76,19.24-13.74,19.24m-44-22H892.77v2.75c0,9.48,5.77,19.24,13.74,19.24"/></g></svg>