<svg id="Layer_1" data-name="Layer 1" xmlns="http://www.w3.org/2000/svg" xmlns:xlink="http://www.w3.org/1999/xlink" viewBox="0 0 1280 1065.8"><defs><style>.cls-1,.cls-2,.cls-3,.cls-4,.cls-5,.cls-8,.cls-9{fill:none;}.cls-2,.cls-3,.cls-4,.cls-5{stroke:#0163aa;}.cls-2,.cls-4,.cls-9{stroke-linecap:round;}.cls-2,.cls-4{stroke-linejoin:round;}.cls-2,.cls-3{stroke-width:23.15px;}.cls-3,.cls-5,.cls-8,.cls-9{stroke-miterlimit:10;}.cls-4,.cls-5{stroke-width:20.65px;}.cls-6{clip-path:url(#clip-path);}.cls-7{opacity:0;}.cls-8,.cls-9{stroke:#0054e9;stroke-width:28.39px;}</style><clipPath id="clip-path"><rect class="cls-1" x="336" y="300.9" width="754" height="754"/></clipPath></defs><path class="cls-2" d="M724.8,523.86C722,562.12,693,593.32,661.12,593.32s-60.88-31.2-63.67-69.46c-2.89-39.79,25.32-69.46,63.67-69.46S727.69,484.79,724.8,523.86Z"/><path class="cls-3" d="M661.12,639.63c-63,0-126.84,34.73-138.66,100.29-1.43,7.9,3,15.48,11.32,15.48H788.47c8.28,0,12.75-7.58,11.32-15.48C788,674.36,724.07,639.63,661.12,639.63Z"/><path class="cls-4" d="M392.46,415.36c-2.53,34.13-28.4,62-56.8,62s-54.31-27.83-56.8-62c-2.58-35.5,22.59-62,56.8-62S395,380.51,392.46,415.36Z"/><path class="cls-5" d="M335.66,518.63c-56.15,0-113.14,31-123.69,89.46-1.27,7,2.72,13.81,10.09,13.81h227.2c7.38,0,11.37-6.76,10.1-13.81C448.81,549.61,391.81,518.63,335.66,518.63Z"/><path class="cls-4" d="M1043.79,413.86c-2.53,34.13-28.4,62-56.8,62s-54.31-27.83-56.79-62c-2.59-35.5,22.59-62,56.79-62S1046.37,379,1043.79,413.86Z"/><path class="cls-5" d="M987,517.13c-56.15,0-113.14,31-123.69,89.46-1.27,7,2.72,13.81,10.1,13.81h227.19c7.38,0,11.37-6.76,10.1-13.81C1100.14,548.11,1043.15,517.13,987,517.13Z"/><g class="cls-6"><rect class="cls-7" x="336" y="300.9" width="754" height="754"/><path class="cls-8" d="M661.59,395.15c-127.77,0-231.34,103.57-231.34,231.34S533.82,857.83,661.59,857.83,892.93,754.25,892.93,626.49,789.35,395.16,661.59,395.15Z"/><line class="cls-9" x1="834.18" y1="799.08" x2="995.75" y2="960.65"/></g></svg>