<svg id="Layer_1" data-name="Layer 1" xmlns="http://www.w3.org/2000/svg" viewBox="0 0 1280 1065.8"><defs><style>.cls-1{font-size:76px;font-family:Inter-Medium, Inter;font-weight:500;}.cls-1,.cls-2{fill:#0054e9;}</style></defs><text class="cls-1" transform="translate(362.6 560.54)">INSCREVER-SE</text><path class="cls-2" d="M1082.81,447.15a33.23,33.23,0,0,1,33.19,33.2v105.1a33.23,33.23,0,0,1-33.19,33.2H197.19A33.23,33.23,0,0,1,164,585.45V480.35a33.23,33.23,0,0,1,33.19-33.2h885.62m0-15H197.19A48.34,48.34,0,0,0,149,480.35v105.1a48.34,48.34,0,0,0,48.19,48.2h885.62a48.34,48.34,0,0,0,48.19-48.2V480.35a48.34,48.34,0,0,0-48.19-48.2Z"/></svg>